<svg width="31" height="36" viewBox="0 0 31 36" fill="none" xmlns="http://www.w3.org/2000/svg">
<path d="M25.3324 19.024C25.3164 16.0744 26.6395 13.8481 29.3175 12.2085C27.8191 10.0465 25.5555 8.85697 22.5667 8.62389C19.7372 8.39885 16.6448 10.2876 15.513 10.2876C14.3175 10.2876 11.5757 8.70426 9.42375 8.70426C4.97635 8.7766 0.25 12.2808 0.25 19.4098C0.25 21.5155 0.632572 23.6909 1.39772 25.936C2.41791 28.8856 6.10016 36.1191 9.94182 35.9985C11.9503 35.9503 13.369 34.5599 15.9833 34.5599C18.5178 34.5599 19.8329 35.9985 22.0725 35.9985C25.9461 35.9423 29.2776 29.3678 30.25 26.4102C25.0534 23.9427 25.3324 19.1767 25.3324 19.024V19.024ZM20.8212 5.82695C22.9971 3.22291 22.7978 0.851941 22.7341 0C20.8132 0.11252 18.5895 1.3181 17.3223 2.80497C15.9275 4.39634 15.1065 6.36544 15.2819 8.5837C17.3621 8.74445 19.259 7.66747 20.8212 5.82695V5.82695Z" fill="#252525"/>
</svg>
