<svg width="1922" height="942" viewBox="0 0 1922 942" fill="none" xmlns="http://www.w3.org/2000/svg">
<path fill-rule="evenodd" clip-rule="evenodd" d="M907.784 48.8571C956.594 25.2466 998.86 10.7684 1028.83 3.90054L1028.17 0.976318C997.594 7.98088 954.505 22.7922 904.844 46.9489C817.166 89.5986 708.902 161.428 612.786 271.015C579.716 308.721 548.083 350.897 519.222 397.893C471.072 476.298 414.492 535.364 356.04 579.387C252.981 494.722 218.669 381.344 217.725 273.792C216.777 165.887 249.427 63.9565 279.842 3.10909L277.158 1.76777C246.573 62.9563 213.773 165.354 214.725 273.818C215.673 381.805 250.089 495.915 353.569 581.238C218.874 681.621 74.7143 702.611 1.12306 696.554L0.876953 699.544C75.4284 705.68 221.142 684.331 356.9 582.493C415.98 538.175 473.167 478.618 521.778 399.463C550.048 353.429 580.987 312.035 613.332 274.948C639.823 352.521 687.594 466.549 751.435 579.635C706.189 577.288 670.333 590.466 642.177 613.576C613.486 637.126 592.878 670.916 578.4 708.871C549.451 784.759 544.86 877.691 549.504 940.111L552.496 939.889C547.871 877.719 552.467 785.271 581.203 709.94C595.567 672.285 615.925 639.006 644.081 615.895C672.036 592.949 707.764 579.954 753.192 582.739C814.754 691.269 891.137 798.72 977.755 871.892C1012.56 901.295 1049.05 925.185 1086.91 941.379L1088.09 938.621C1051.54 922.989 1016.22 900.093 982.409 871.882C1104.38 858.896 1185 779.451 1236.2 685.352C1287.36 591.343 1309.28 482.525 1313.86 410.072C1384.12 444.444 1456.46 464.099 1525.92 458.11C1543.86 486.184 1565.14 513.266 1590.23 538.678C1610.87 559.571 1634.08 579.333 1660.14 597.588C1729.16 645.932 1770.46 691.066 1792.52 731.812C1745.61 727.864 1671.7 733.317 1598.63 762.27C1524.07 791.811 1450.33 845.847 1407.14 939.371L1409.86 940.629C1452.67 847.956 1525.72 794.385 1599.73 765.059C1673.34 735.893 1747.82 730.742 1794.19 734.971C1819.98 784.566 1817.29 827.614 1801.51 862.142C1785.63 896.909 1756.4 923.158 1729.25 938.698L1730.75 941.302C1758.29 925.536 1788.03 898.867 1804.24 863.389C1820.49 827.84 1823.08 783.568 1796.47 732.855C1774.46 690.907 1732.49 644.604 1661.86 595.13C1636.2 577.159 1613.33 557.722 1592.98 537.183C1606.35 487.971 1638.65 413.77 1692.36 350.159C1746.36 286.205 1821.92 233.054 1921.6 226.601L1921.4 223.607C1820.68 230.128 1744.42 283.853 1690.07 348.224C1636.64 411.496 1604.29 485.147 1590.54 534.711C1566.17 509.764 1545.46 483.223 1527.96 455.73C1425.06 294.106 1432.84 99.5484 1456.96 2.80126L1454.04 2.0756C1429.9 98.9141 1422.02 293.133 1524.11 455.25C1455.18 460.806 1383.24 440.971 1313.16 406.388C1142.82 322.323 984.122 151.45 907.784 48.8571ZM1310.94 408.636C1140.07 323.99 981.238 152.725 905.038 50.1918C818.033 92.676 710.875 163.932 615.613 272.342C642.118 350.323 690.527 466.06 755.401 580.554C816.841 688.986 892.991 796.199 979.209 869.192C1101.48 857.299 1182.24 778.245 1233.57 683.918C1284.76 589.842 1306.55 480.76 1310.94 408.636Z" fill="#FFEBC5"/>
<path d="M1911.75 626C1911.75 624.895 1910.85 624 1909.75 624H1908.5C1907.4 624 1906.5 624.895 1906.5 626V627.25C1906.5 628.355 1907.4 629.25 1908.5 629.25H1909.75C1910.85 629.25 1911.75 628.355 1911.75 627.25V626Z" fill="#FFEBC5"/>
<path d="M1885.5 626C1885.5 624.895 1884.6 624 1883.5 624H1882.25C1881.15 624 1880.25 624.895 1880.25 626V627.25C1880.25 628.355 1881.15 629.25 1882.25 629.25H1883.5C1884.6 629.25 1885.5 628.355 1885.5 627.25V626Z" fill="#FFEBC5"/>
<path d="M1859.25 626C1859.25 624.895 1858.35 624 1857.25 624H1856C1854.9 624 1854 624.895 1854 626V627.25C1854 628.355 1854.9 629.25 1856 629.25H1857.25C1858.35 629.25 1859.25 628.355 1859.25 627.25V626Z" fill="#FFEBC5"/>
<path d="M1911.75 652.25C1911.75 651.145 1910.85 650.25 1909.75 650.25H1908.5C1907.4 650.25 1906.5 651.145 1906.5 652.25V653.5C1906.5 654.605 1907.4 655.5 1908.5 655.5H1909.75C1910.85 655.5 1911.75 654.605 1911.75 653.5V652.25Z" fill="#FFEBC5"/>
<path d="M1885.5 652.25C1885.5 651.145 1884.6 650.25 1883.5 650.25H1882.25C1881.15 650.25 1880.25 651.145 1880.25 652.25V653.5C1880.25 654.605 1881.15 655.5 1882.25 655.5H1883.5C1884.6 655.5 1885.5 654.605 1885.5 653.5V652.25Z" fill="#FFEBC5"/>
<path d="M1859.25 652.25C1859.25 651.145 1858.35 650.25 1857.25 650.25H1856C1854.9 650.25 1854 651.145 1854 652.25V653.5C1854 654.605 1854.9 655.5 1856 655.5H1857.25C1858.35 655.5 1859.25 654.605 1859.25 653.5V652.25Z" fill="#FFEBC5"/>
<path d="M1911.75 678.5C1911.75 677.395 1910.85 676.5 1909.75 676.5H1908.5C1907.4 676.5 1906.5 677.395 1906.5 678.5V679.75C1906.5 680.855 1907.4 681.75 1908.5 681.75H1909.75C1910.85 681.75 1911.75 680.855 1911.75 679.75V678.5Z" fill="#FFEBC5"/>
<path d="M1885.5 678.5C1885.5 677.395 1884.6 676.5 1883.5 676.5H1882.25C1881.15 676.5 1880.25 677.395 1880.25 678.5V679.75C1880.25 680.855 1881.15 681.75 1882.25 681.75H1883.5C1884.6 681.75 1885.5 680.855 1885.5 679.75V678.5Z" fill="#FFEBC5"/>
<path d="M1859.25 678.5C1859.25 677.395 1858.35 676.5 1857.25 676.5H1856C1854.9 676.5 1854 677.395 1854 678.5V679.75C1854 680.855 1854.9 681.75 1856 681.75H1857.25C1858.35 681.75 1859.25 680.855 1859.25 679.75V678.5Z" fill="#FFEBC5"/>
<path d="M1911.75 704.75C1911.75 703.645 1910.85 702.75 1909.75 702.75H1908.5C1907.4 702.75 1906.5 703.645 1906.5 704.75V706C1906.5 707.105 1907.4 708 1908.5 708H1909.75C1910.85 708 1911.75 707.105 1911.75 706V704.75Z" fill="#FFEBC5"/>
<path d="M1885.5 704.75C1885.5 703.645 1884.6 702.75 1883.5 702.75H1882.25C1881.15 702.75 1880.25 703.645 1880.25 704.75V706C1880.25 707.105 1881.15 708 1882.25 708H1883.5C1884.6 708 1885.5 707.105 1885.5 706V704.75Z" fill="#FFEBC5"/>
<path d="M1859.25 704.75C1859.25 703.645 1858.35 702.75 1857.25 702.75H1856C1854.9 702.75 1854 703.645 1854 704.75V706C1854 707.105 1854.9 708 1856 708H1857.25C1858.35 708 1859.25 707.105 1859.25 706V704.75Z" fill="#FFEBC5"/>
<path d="M1911.75 731C1911.75 729.895 1910.85 729 1909.75 729H1908.5C1907.4 729 1906.5 729.895 1906.5 731V732.25C1906.5 733.355 1907.4 734.25 1908.5 734.25H1909.75C1910.85 734.25 1911.75 733.355 1911.75 732.25V731Z" fill="#FFEBC5"/>
<path d="M1885.5 731C1885.5 729.895 1884.6 729 1883.5 729H1882.25C1881.15 729 1880.25 729.895 1880.25 731V732.25C1880.25 733.355 1881.15 734.25 1882.25 734.25H1883.5C1884.6 734.25 1885.5 733.355 1885.5 732.25V731Z" fill="#FFEBC5"/>
<path d="M1859.25 731C1859.25 729.895 1858.35 729 1857.25 729H1856C1854.9 729 1854 729.895 1854 731V732.25C1854 733.355 1854.9 734.25 1856 734.25H1857.25C1858.35 734.25 1859.25 733.355 1859.25 732.25V731Z" fill="#FFEBC5"/>
<path d="M726 863C724.895 863 724 863.895 724 865V866.538C724 867.643 724.895 868.538 726 868.538H727.538C728.643 868.538 729.538 867.643 729.538 866.538V865C729.538 863.895 728.643 863 727.538 863H726Z" fill="#FFEBC5"/>
<path d="M726 894.404C724.895 894.404 724 895.299 724 896.404V897.942C724 899.046 724.895 899.942 726 899.942H727.538C728.643 899.942 729.538 899.046 729.538 897.942V896.404C729.538 895.299 728.643 894.404 727.538 894.404H726Z" fill="#FFEBC5"/>
<path d="M726 925.808C724.895 925.808 724 926.703 724 927.808V929.346C724 930.45 724.895 931.346 726 931.346H727.538C728.643 931.346 729.538 930.45 729.538 929.346V927.808C729.538 926.703 728.643 925.808 727.538 925.808H726Z" fill="#FFEBC5"/>
<path d="M760.888 863C759.783 863 758.888 863.895 758.888 865V866.538C758.888 867.643 759.783 868.538 760.888 868.538H762.426C763.531 868.538 764.426 867.643 764.426 866.538V865C764.426 863.895 763.531 863 762.426 863H760.888Z" fill="#FFEBC5"/>
<path d="M760.888 894.404C759.783 894.404 758.888 895.299 758.888 896.404V897.942C758.888 899.046 759.783 899.942 760.888 899.942H762.426C763.531 899.942 764.426 899.046 764.426 897.942V896.404C764.426 895.299 763.531 894.404 762.426 894.404H760.888Z" fill="#FFEBC5"/>
<path d="M760.888 925.808C759.783 925.808 758.888 926.703 758.888 927.808V929.346C758.888 930.45 759.783 931.346 760.888 931.346H762.426C763.531 931.346 764.426 930.45 764.426 929.346V927.808C764.426 926.703 763.531 925.808 762.426 925.808H760.888Z" fill="#FFEBC5"/>
<path d="M795.777 863C794.672 863 793.777 863.895 793.777 865V866.538C793.777 867.643 794.672 868.538 795.777 868.538H797.315C798.419 868.538 799.315 867.643 799.315 866.538V865C799.315 863.895 798.419 863 797.315 863H795.777Z" fill="#FFEBC5"/>
<path d="M795.777 894.404C794.672 894.404 793.777 895.299 793.777 896.404V897.942C793.777 899.046 794.672 899.942 795.777 899.942H797.315C798.419 899.942 799.315 899.046 799.315 897.942V896.404C799.315 895.299 798.419 894.404 797.315 894.404H795.777Z" fill="#FFEBC5"/>
<path d="M795.777 925.808C794.672 925.808 793.777 926.703 793.777 927.808V929.346C793.777 930.45 794.672 931.346 795.777 931.346H797.315C798.419 931.346 799.315 930.45 799.315 929.346V927.808C799.315 926.703 798.419 925.808 797.315 925.808H795.777Z" fill="#FFEBC5"/>
<path d="M830.665 863C829.56 863 828.665 863.895 828.665 865V866.538C828.665 867.643 829.56 868.538 830.665 868.538H832.203C833.307 868.538 834.203 867.643 834.203 866.538V865C834.203 863.895 833.307 863 832.203 863H830.665Z" fill="#FFEBC5"/>
<path d="M830.665 894.404C829.56 894.404 828.665 895.299 828.665 896.404V897.942C828.665 899.046 829.56 899.942 830.665 899.942H832.203C833.307 899.942 834.203 899.046 834.203 897.942V896.404C834.203 895.299 833.307 894.404 832.203 894.404H830.665Z" fill="#FFEBC5"/>
<path d="M830.665 925.808C829.56 925.808 828.665 926.703 828.665 927.808V929.346C828.665 930.45 829.56 931.346 830.665 931.346H832.203C833.307 931.346 834.203 930.45 834.203 929.346V927.808C834.203 926.703 833.307 925.808 832.203 925.808H830.665Z" fill="#FFEBC5"/>
<path d="M865.553 863C864.448 863 863.553 863.895 863.553 865V866.538C863.553 867.643 864.448 868.538 865.553 868.538H867.091C868.195 868.538 869.091 867.643 869.091 866.538V865C869.091 863.895 868.195 863 867.091 863H865.553Z" fill="#FFEBC5"/>
<path d="M865.553 894.404C864.448 894.404 863.553 895.299 863.553 896.404V897.942C863.553 899.046 864.448 899.942 865.553 899.942H867.091C868.195 899.942 869.091 899.046 869.091 897.942V896.404C869.091 895.299 868.195 894.404 867.091 894.404H865.553Z" fill="#FFEBC5"/>
<path d="M865.553 925.808C864.448 925.808 863.553 926.703 863.553 927.808V929.346C863.553 930.45 864.448 931.346 865.553 931.346H867.091C868.195 931.346 869.091 930.45 869.091 929.346V927.808C869.091 926.703 868.195 925.808 867.091 925.808H865.553Z" fill="#FFEBC5"/>
<path d="M17.4452 250.636C17.4452 251.741 18.3406 252.636 19.4452 252.636H20.1088C21.2133 252.636 22.1088 251.741 22.1088 250.636V249.973C22.1088 248.868 21.2133 247.973 20.1088 247.973H19.4452C18.3406 247.973 17.4452 248.868 17.4452 249.973V250.636Z" fill="#FFEBC5"/>
<path d="M43.8908 250.636C43.8908 251.741 44.7862 252.636 45.8908 252.636H46.5543C47.6589 252.636 48.5543 251.741 48.5543 250.636V249.973C48.5543 248.868 47.6589 247.973 46.5543 247.973H45.8908C44.7862 247.973 43.8908 248.868 43.8908 249.973V250.636Z" fill="#FFEBC5"/>
<path d="M70.3361 250.636C70.3361 251.741 71.2315 252.636 72.3361 252.636H72.9997C74.1043 252.636 74.9997 251.741 74.9997 250.636V249.973C74.9997 248.868 74.1043 247.973 72.9997 247.973H72.3361C71.2315 247.973 70.3361 248.868 70.3361 249.973V250.636Z" fill="#FFEBC5"/>
<path d="M17.4452 221.257C17.4452 222.361 18.3406 223.257 19.4452 223.257H20.1088C21.2133 223.257 22.1088 222.361 22.1088 221.257V220.593C22.1088 219.489 21.2133 218.593 20.1088 218.593H19.4452C18.3406 218.593 17.4452 219.489 17.4452 220.593V221.257Z" fill="#FFEBC5"/>
<path d="M43.8908 221.257C43.8908 222.361 44.7862 223.257 45.8908 223.257H46.5543C47.6589 223.257 48.5543 222.361 48.5543 221.257V220.593C48.5543 219.489 47.6589 218.593 46.5543 218.593H45.8908C44.7862 218.593 43.8908 219.489 43.8908 220.593V221.257Z" fill="#FFEBC5"/>
<path d="M70.3365 221.257C70.3365 222.361 71.232 223.257 72.3365 223.257H73.0001C74.1047 223.257 75.0001 222.361 75.0001 221.257V220.593C75.0001 219.489 74.1047 218.593 73.0001 218.593H72.3365C71.232 218.593 70.3365 219.489 70.3365 220.593V221.257Z" fill="#FFEBC5"/>
<path d="M17.4454 191.877C17.4454 192.981 18.3408 193.877 19.4454 193.877H20.109C21.2135 193.877 22.109 192.981 22.109 191.877V191.213C22.109 190.109 21.2135 189.213 20.109 189.213H19.4454C18.3408 189.213 17.4454 190.109 17.4454 191.213V191.877Z" fill="#FFEBC5"/>
<path d="M43.8908 191.877C43.8908 192.981 44.7862 193.877 45.8908 193.877H46.5543C47.6589 193.877 48.5543 192.981 48.5543 191.877V191.213C48.5543 190.109 47.6589 189.213 46.5543 189.213H45.8908C44.7862 189.213 43.8908 190.109 43.8908 191.213V191.877Z" fill="#FFEBC5"/>
<path d="M70.3365 191.877C70.3365 192.981 71.232 193.877 72.3365 193.877H73.0001C74.1047 193.877 75.0001 192.981 75.0001 191.877V191.213C75.0001 190.109 74.1047 189.213 73.0001 189.213H72.3365C71.232 189.213 70.3365 190.109 70.3365 191.213V191.877Z" fill="#FFEBC5"/>
<path d="M17.4454 162.498C17.4454 163.602 18.3408 164.497 19.4454 164.497H20.109C21.2135 164.497 22.109 163.602 22.109 162.498V161.834C22.109 160.729 21.2135 159.834 20.109 159.834H19.4454C18.3408 159.834 17.4454 160.729 17.4454 161.834V162.498Z" fill="#FFEBC5"/>
<path d="M43.8908 162.498C43.8908 163.602 44.7862 164.497 45.8908 164.497H46.5543C47.6589 164.497 48.5543 163.602 48.5543 162.498V161.834C48.5543 160.729 47.6589 159.834 46.5543 159.834H45.8908C44.7862 159.834 43.8908 160.729 43.8908 161.834V162.498Z" fill="#FFEBC5"/>
<path d="M70.3365 162.498C70.3365 163.602 71.232 164.497 72.3365 164.497H73.0001C74.1047 164.497 75.0001 163.602 75.0001 162.498V161.834C75.0001 160.729 74.1047 159.834 73.0001 159.834H72.3365C71.232 159.834 70.3365 160.729 70.3365 161.834V162.498Z" fill="#FFEBC5"/>
<path d="M17.4454 133.118C17.4454 134.223 18.3408 135.118 19.4454 135.118H20.109C21.2135 135.118 22.109 134.223 22.109 133.118V132.454C22.109 131.35 21.2135 130.454 20.109 130.454H19.4454C18.3408 130.454 17.4454 131.35 17.4454 132.454V133.118Z" fill="#FFEBC5"/>
<path d="M43.8908 133.118C43.8908 134.223 44.7862 135.118 45.8908 135.118H46.5543C47.6589 135.118 48.5543 134.223 48.5543 133.118V132.454C48.5543 131.35 47.6589 130.454 46.5543 130.454H45.8908C44.7862 130.454 43.8908 131.35 43.8908 132.454V133.118Z" fill="#FFEBC5"/>
<path d="M70.3365 133.118C70.3365 134.223 71.232 135.118 72.3365 135.118H73.0001C74.1047 135.118 75.0001 134.223 75.0001 133.118V132.454C75.0001 131.35 74.1047 130.454 73.0001 130.454H72.3365C71.232 130.454 70.3365 131.35 70.3365 132.454V133.118Z" fill="#FFEBC5"/>
<path d="M1599.19 10.875C1598.08 10.875 1597.19 11.7704 1597.19 12.875V15.25C1597.19 16.3546 1598.08 17.25 1599.19 17.25H1601.56C1602.67 17.25 1603.56 16.3546 1603.56 15.25V12.875C1603.56 11.7704 1602.67 10.875 1601.56 10.875H1599.19Z" fill="#FFEBC5"/>
<path d="M1599.19 42.75C1598.08 42.75 1597.19 43.6454 1597.19 44.75V47.125C1597.19 48.2295 1598.08 49.125 1599.19 49.125H1601.56C1602.67 49.125 1603.56 48.2295 1603.56 47.125V44.75C1603.56 43.6454 1602.67 42.75 1601.56 42.75H1599.19Z" fill="#FFEBC5"/>
<path d="M1599.19 74.6249C1598.08 74.6249 1597.19 75.5204 1597.19 76.6249V78.9999C1597.19 80.1045 1598.08 80.9999 1599.19 80.9999H1601.56C1602.67 80.9999 1603.56 80.1045 1603.56 78.9999V76.6249C1603.56 75.5204 1602.67 74.6249 1601.56 74.6249H1599.19Z" fill="#FFEBC5"/>
<path d="M1631.06 10.875C1629.96 10.875 1629.06 11.7704 1629.06 12.875V15.25C1629.06 16.3546 1629.96 17.25 1631.06 17.25H1633.44C1634.54 17.25 1635.44 16.3546 1635.44 15.25V12.875C1635.44 11.7704 1634.54 10.875 1633.44 10.875H1631.06Z" fill="#FFEBC5"/>
<path d="M1631.06 42.75C1629.96 42.75 1629.06 43.6454 1629.06 44.75V47.125C1629.06 48.2295 1629.96 49.125 1631.06 49.125H1633.44C1634.54 49.125 1635.44 48.2295 1635.44 47.125V44.75C1635.44 43.6454 1634.54 42.75 1633.44 42.75H1631.06Z" fill="#FFEBC5"/>
<path d="M1631.06 74.6249C1629.96 74.6249 1629.06 75.5204 1629.06 76.6249V78.9999C1629.06 80.1045 1629.96 80.9999 1631.06 80.9999H1633.44C1634.54 80.9999 1635.44 80.1045 1635.44 78.9999V76.6249C1635.44 75.5204 1634.54 74.6249 1633.44 74.6249H1631.06Z" fill="#FFEBC5"/>
<path d="M1662.94 10.875C1661.83 10.875 1660.94 11.7704 1660.94 12.875V15.25C1660.94 16.3546 1661.83 17.25 1662.94 17.25H1665.31C1666.42 17.25 1667.31 16.3546 1667.31 15.25V12.875C1667.31 11.7704 1666.42 10.875 1665.31 10.875H1662.94Z" fill="#FFEBC5"/>
<path d="M1662.94 42.75C1661.83 42.75 1660.94 43.6454 1660.94 44.75V47.125C1660.94 48.2295 1661.83 49.125 1662.94 49.125H1665.31C1666.42 49.125 1667.31 48.2295 1667.31 47.125V44.75C1667.31 43.6454 1666.42 42.75 1665.31 42.75H1662.94Z" fill="#FFEBC5"/>
<path d="M1662.94 74.6249C1661.83 74.6249 1660.94 75.5204 1660.94 76.6249V78.9999C1660.94 80.1045 1661.83 80.9999 1662.94 80.9999H1665.31C1666.42 80.9999 1667.31 80.1045 1667.31 78.9999V76.6249C1667.31 75.5204 1666.42 74.6249 1665.31 74.6249H1662.94Z" fill="#FFEBC5"/>
<path d="M1694.81 10.875C1693.71 10.875 1692.81 11.7704 1692.81 12.875V15.25C1692.81 16.3546 1693.71 17.25 1694.81 17.25H1697.19C1698.29 17.25 1699.19 16.3546 1699.19 15.25V12.875C1699.19 11.7704 1698.29 10.875 1697.19 10.875L1694.81 10.875Z" fill="#FFEBC5"/>
<path d="M1694.81 42.75C1693.71 42.75 1692.81 43.6454 1692.81 44.75V47.125C1692.81 48.2295 1693.71 49.125 1694.81 49.125H1697.19C1698.29 49.125 1699.19 48.2295 1699.19 47.125V44.75C1699.19 43.6454 1698.29 42.75 1697.19 42.75H1694.81Z" fill="#FFEBC5"/>
<path d="M1694.81 74.6249C1693.71 74.6249 1692.81 75.5204 1692.81 76.6249V78.9999C1692.81 80.1045 1693.71 80.9999 1694.81 80.9999H1697.19C1698.29 80.9999 1699.19 80.1045 1699.19 78.9999V76.6249C1699.19 75.5204 1698.29 74.6249 1697.19 74.6249H1694.81Z" fill="#FFEBC5"/>
<path d="M1726.69 10.875C1725.58 10.875 1724.69 11.7704 1724.69 12.875V15.25C1724.69 16.3546 1725.58 17.25 1726.69 17.25H1729.06C1730.17 17.25 1731.06 16.3546 1731.06 15.25V12.875C1731.06 11.7704 1730.17 10.875 1729.06 10.875H1726.69Z" fill="#FFEBC5"/>
<path d="M1726.69 42.75C1725.58 42.75 1724.69 43.6454 1724.69 44.75V47.125C1724.69 48.2295 1725.58 49.125 1726.69 49.125L1729.06 49.125C1730.17 49.125 1731.06 48.2295 1731.06 47.125V44.75C1731.06 43.6454 1730.17 42.75 1729.06 42.75H1726.69Z" fill="#FFEBC5"/>
<path d="M1726.69 74.6249C1725.58 74.6249 1724.69 75.5204 1724.69 76.6249V78.9999C1724.69 80.1045 1725.58 80.9999 1726.69 80.9999L1729.06 80.9999C1730.17 80.9999 1731.06 80.1045 1731.06 78.9999V76.6249C1731.06 75.5204 1730.17 74.6249 1729.06 74.6249H1726.69Z" fill="#FFEBC5"/>
<path d="M589 9.875C587.895 9.875 587 10.7704 587 11.875V12.25C587 13.3546 587.895 14.25 589 14.25H589.375C590.48 14.25 591.375 13.3546 591.375 12.25V11.875C591.375 10.7704 590.48 9.875 589.375 9.875H589Z" fill="#FFEBC5"/>
<path d="M589 31.75C587.895 31.75 587 32.6455 587 33.75V34.125C587 35.2296 587.895 36.125 589 36.125H589.375C590.48 36.125 591.375 35.2296 591.375 34.125V33.75C591.375 32.6454 590.48 31.75 589.375 31.75H589Z" fill="#FFEBC5"/>
<path d="M589 53.625C587.895 53.625 587 54.5205 587 55.625V56C587 57.1046 587.895 58 589 58H589.375C590.48 58 591.375 57.1046 591.375 56V55.625C591.375 54.5205 590.48 53.625 589.375 53.625H589Z" fill="#FFEBC5"/>
<path d="M610.875 9.875C609.77 9.875 608.875 10.7704 608.875 11.875V12.25C608.875 13.3546 609.77 14.25 610.875 14.25H611.25C612.355 14.25 613.25 13.3546 613.25 12.25V11.875C613.25 10.7704 612.355 9.875 611.25 9.875H610.875Z" fill="#FFEBC5"/>
<path d="M610.875 31.75C609.77 31.75 608.875 32.6454 608.875 33.75V34.125C608.875 35.2296 609.77 36.125 610.875 36.125H611.25C612.355 36.125 613.25 35.2296 613.25 34.125V33.75C613.25 32.6454 612.355 31.75 611.25 31.75H610.875Z" fill="#FFEBC5"/>
<path d="M610.875 53.625C609.77 53.625 608.875 54.5205 608.875 55.625V56C608.875 57.1046 609.77 58 610.875 58H611.25C612.355 58 613.25 57.1046 613.25 56V55.625C613.25 54.5205 612.355 53.625 611.25 53.625H610.875Z" fill="#FFEBC5"/>
<path d="M632.75 9.875C631.645 9.875 630.75 10.7704 630.75 11.875V12.25C630.75 13.3546 631.645 14.25 632.75 14.25H633.125C634.23 14.25 635.125 13.3546 635.125 12.25V11.875C635.125 10.7704 634.23 9.875 633.125 9.875H632.75Z" fill="#FFEBC5"/>
<path d="M632.75 31.75C631.645 31.75 630.75 32.6454 630.75 33.75V34.125C630.75 35.2296 631.645 36.125 632.75 36.125H633.125C634.23 36.125 635.125 35.2296 635.125 34.125V33.75C635.125 32.6454 634.23 31.75 633.125 31.75H632.75Z" fill="#FFEBC5"/>
<path d="M632.75 53.625C631.645 53.625 630.75 54.5205 630.75 55.625V56C630.75 57.1046 631.645 58 632.75 58H633.125C634.23 58 635.125 57.1046 635.125 56V55.625C635.125 54.5205 634.23 53.625 633.125 53.625H632.75Z" fill="#FFEBC5"/>
<path d="M654.625 9.875C653.52 9.875 652.625 10.7704 652.625 11.875V12.25C652.625 13.3546 653.52 14.25 654.625 14.25H655C656.105 14.25 657 13.3546 657 12.25V11.875C657 10.7704 656.105 9.875 655 9.875H654.625Z" fill="#FFEBC5"/>
<path d="M654.625 31.75C653.52 31.75 652.625 32.6454 652.625 33.75V34.125C652.625 35.2296 653.52 36.125 654.625 36.125H655C656.105 36.125 657 35.2296 657 34.125V33.75C657 32.6454 656.105 31.75 655 31.75H654.625Z" fill="#FFEBC5"/>
<path d="M654.625 53.625C653.52 53.625 652.625 54.5205 652.625 55.625V56C652.625 57.1046 653.52 58 654.625 58H655C656.105 58 657 57.1046 657 56V55.625C657 54.5205 656.105 53.625 655 53.625H654.625Z" fill="#FFEBC5"/>
<path d="M676.5 9.875C675.395 9.875 674.5 10.7704 674.5 11.875V12.25C674.5 13.3546 675.395 14.25 676.5 14.25H676.875C677.98 14.25 678.875 13.3546 678.875 12.25V11.875C678.875 10.7704 677.98 9.875 676.875 9.875H676.5Z" fill="#FFEBC5"/>
<path d="M676.5 31.75C675.395 31.75 674.5 32.6455 674.5 33.75V34.125C674.5 35.2296 675.395 36.125 676.5 36.125H676.875C677.98 36.125 678.875 35.2296 678.875 34.125V33.75C678.875 32.6454 677.98 31.75 676.875 31.75H676.5Z" fill="#FFEBC5"/>
<path d="M676.5 53.625C675.395 53.625 674.5 54.5205 674.5 55.625V56C674.5 57.1046 675.395 58 676.5 58H676.875C677.98 58 678.875 57.1046 678.875 56V55.625C678.875 54.5205 677.98 53.625 676.875 53.625H676.5Z" fill="#FFEBC5"/>
</svg>
