<svg width="989" height="336" viewBox="0 0 989 336" fill="none" xmlns="http://www.w3.org/2000/svg">
<path fill-rule="evenodd" clip-rule="evenodd" d="M86.7126 277.5C163.087 277.5 225 228.938 225 138.75C225 48.5625 163.087 0 86.7126 0H2.76574C1.23826 0 0 1.24241 0 2.775V274.725C0 276.258 1.23827 277.5 2.76575 277.5H86.7126ZM176.599 138.75C176.599 208.125 130.164 228.938 72.8839 228.938H48.1675C47.7533 228.938 47.4175 228.602 47.4175 228.188V49.3125C47.4175 48.8983 47.7533 48.5625 48.1675 48.5625H72.8839C130.164 48.5625 176.599 69.375 176.599 138.75Z" fill="white"/>
<path fill-rule="evenodd" clip-rule="evenodd" d="M341.25 277.5C289.473 277.5 247.5 235.527 247.5 183.75C247.5 131.973 289.473 90 341.25 90C393.027 90 435 131.973 435 183.75C435 235.527 393.027 277.5 341.25 277.5ZM386.25 183.75C386.25 208.603 366.103 228.75 341.25 228.75C316.397 228.75 296.25 208.603 296.25 183.75C296.25 158.897 316.397 138.75 341.25 138.75C366.103 138.75 386.25 158.897 386.25 183.75Z" fill="white"/>
<path d="M461.25 165V277.5H506.25V172.5C506.25 151.789 523.039 135 543.75 135H555L570 90H536.25C494.829 90 461.25 123.579 461.25 165Z" fill="white"/>
<path d="M599.089 230.625L581.25 277.5H660.536C660.536 277.5 720 277.5 720 218.906C720 160.313 660.536 160.313 660.536 160.313H640.714C640.714 160.313 628.821 160.313 628.821 148.594C628.821 136.875 640.714 136.875 640.714 136.875H706.125L720 90H640.714C640.714 90 581.25 90 581.25 148.594C581.25 207.188 640.714 207.188 640.714 207.188H660.536C660.536 207.188 672.428 207.188 672.428 218.906C672.428 230.625 660.536 230.625 660.536 230.625H599.089Z" fill="white"/>
<path d="M750 49.4877L795 37.5V277.5H750V49.4877Z" fill="white"/>
<path d="M847.5 335.625H892.5L988.125 90H943.125L904.687 188.732L866.25 90H821.25L882.187 246.526L847.5 335.625Z" fill="white"/>
</svg>
