<svg width="103" height="35" viewBox="0 0 103 35" fill="none" xmlns="http://www.w3.org/2000/svg">
<path fill-rule="evenodd" clip-rule="evenodd" d="M8.9644 28.6881C16.86 28.6881 23.2606 23.6677 23.2606 14.344C23.2606 5.02042 16.86 0 8.9644 0H0.285924C0.128012 0 0 0.128441 0 0.286881V28.4012C0 28.5597 0.128013 28.6881 0.285924 28.6881H8.9644ZM18.2569 14.344C18.2569 21.5161 13.4565 23.6677 7.53477 23.6677H4.97958C4.93676 23.6677 4.90204 23.633 4.90204 23.5901V5.09795C4.90204 5.05513 4.93676 5.02042 4.97958 5.02042H7.53477C13.4565 5.02042 18.2569 7.17202 18.2569 14.344Z" fill="#FFB82E"/>
<path fill-rule="evenodd" clip-rule="evenodd" d="M35.2786 28.6881C29.9259 28.6881 25.5867 24.3489 25.5867 18.9962C25.5867 13.6435 29.9259 9.30425 35.2786 9.30425C40.6313 9.30425 44.9705 13.6435 44.9705 18.9962C44.9705 24.3489 40.6313 28.6881 35.2786 28.6881ZM39.9307 18.9962C39.9307 21.5655 37.8479 23.6483 35.2786 23.6483C32.7093 23.6483 30.6265 21.5655 30.6265 18.9962C30.6265 16.4269 32.7093 14.344 35.2786 14.344C37.8479 14.344 39.9307 16.4269 39.9307 18.9962Z" fill="#FFB82E"/>
<path d="M47.6843 17.0578V28.6881H52.3364V17.8331C52.3364 15.6921 54.0721 13.9564 56.2132 13.9564H57.3762L58.9269 9.30425H55.4378C51.1556 9.30425 47.6843 12.7756 47.6843 17.0578Z" fill="#FFB82E"/>
<path d="M61.9342 23.8421L60.0899 28.6881H68.2865C68.2865 28.6881 74.434 28.6881 74.434 22.6306C74.434 16.5732 68.2865 16.5732 68.2865 16.5732H66.2374C66.2374 16.5732 65.0079 16.5732 65.0079 15.3617C65.0079 14.1502 66.2374 14.1502 66.2374 14.1502H72.9996L74.434 9.30425H66.2374C66.2374 9.30425 60.0899 9.30425 60.0899 15.3617C60.0899 21.4192 66.2374 21.4192 66.2374 21.4192H68.2865C68.2865 21.4192 69.516 21.4192 69.516 22.6306C69.516 23.8421 68.2865 23.8421 68.2865 23.8421H61.9342Z" fill="#FFB82E"/>
<path d="M77.5354 5.11606L82.1875 3.87677V28.6881H77.5354V5.11606Z" fill="#FFB82E"/>
<path d="M87.615 34.6971H92.2671L102.153 9.30425H97.5007L93.5271 19.5112L89.5534 9.30425H84.9012L91.201 25.486L87.615 34.6971Z" fill="#FFB82E"/>
</svg>
