<svg width="100" height="146" viewBox="0 0 100 146" fill="none" xmlns="http://www.w3.org/2000/svg">
<path d="M0 143.091C0 144.195 0.89543 145.091 2 145.091H3.53798C4.64255 145.091 5.53798 144.195 5.53798 143.091V141.553C5.53798 140.448 4.64255 139.553 3.53798 139.553H2C0.895432 139.553 0 140.448 0 141.553V143.091Z" fill="#FFEBC5"/>
<path d="M31.4037 143.091C31.4037 144.195 32.2991 145.091 33.4037 145.091H34.9417C36.0462 145.091 36.9417 144.195 36.9417 143.091V141.553C36.9417 140.448 36.0462 139.553 34.9417 139.553H33.4037C32.2991 139.553 31.4037 140.448 31.4037 141.553V143.091Z" fill="#FFEBC5"/>
<path d="M62.8076 143.091C62.8076 144.195 63.703 145.091 64.8076 145.091H66.3455C67.4501 145.091 68.3456 144.195 68.3456 143.091V141.553C68.3456 140.448 67.4501 139.553 66.3456 139.553H64.8076C63.703 139.553 62.8076 140.448 62.8076 141.553V143.091Z" fill="#FFEBC5"/>
<path d="M94.2114 143.091C94.2114 144.195 95.1069 145.091 96.2114 145.091H97.7494C98.854 145.091 99.7494 144.195 99.7494 143.091V141.553C99.7494 140.448 98.854 139.553 97.7494 139.553H96.2114C95.1069 139.553 94.2114 140.448 94.2114 141.553V143.091Z" fill="#FFEBC5"/>
<path d="M1.52501e-06 108.203C1.52501e-06 109.307 0.895432 110.203 2 110.203H3.53798C4.64255 110.203 5.53798 109.307 5.53798 108.203V106.665C5.53798 105.56 4.64255 104.665 3.53798 104.665H2C0.895433 104.665 1.52501e-06 105.56 1.52501e-06 106.665V108.203Z" fill="#FFEBC5"/>
<path d="M31.4037 108.203C31.4037 109.307 32.2991 110.203 33.4037 110.203H34.9417C36.0462 110.203 36.9417 109.307 36.9417 108.203V106.665C36.9417 105.56 36.0462 104.665 34.9417 104.665H33.4037C32.2991 104.665 31.4037 105.56 31.4037 106.665V108.203Z" fill="#FFEBC5"/>
<path d="M62.8076 108.203C62.8076 109.307 63.703 110.203 64.8076 110.203H66.3455C67.4501 110.203 68.3456 109.307 68.3456 108.203V106.665C68.3456 105.56 67.4501 104.665 66.3456 104.665H64.8076C63.703 104.665 62.8076 105.56 62.8076 106.665V108.203Z" fill="#FFEBC5"/>
<path d="M94.2118 108.203C94.2118 109.307 95.1073 110.203 96.2118 110.203H97.7498C98.8544 110.203 99.7498 109.307 99.7498 108.203V106.665C99.7498 105.56 98.8544 104.665 97.7498 104.665H96.2118C95.1073 104.665 94.2118 105.56 94.2118 106.665V108.203Z" fill="#FFEBC5"/>
<path d="M3.05003e-06 73.3141C3.05003e-06 74.4187 0.895433 75.3141 2 75.3141H3.53798C4.64255 75.3141 5.53799 74.4187 5.53799 73.3141V71.7762C5.53799 70.6716 4.64256 69.7762 3.53799 69.7762H2C0.895435 69.7762 3.05003e-06 70.6716 3.05003e-06 71.7762V73.3141Z" fill="#FFEBC5"/>
<path d="M31.4037 73.3141C31.4037 74.4187 32.2991 75.3141 33.4037 75.3141H34.9417C36.0462 75.3141 36.9417 74.4187 36.9417 73.3141V71.7762C36.9417 70.6716 36.0462 69.7762 34.9417 69.7762H33.4037C32.2991 69.7762 31.4037 70.6716 31.4037 71.7762V73.3141Z" fill="#FFEBC5"/>
<path d="M62.8076 73.3141C62.8076 74.4187 63.703 75.3141 64.8076 75.3141H66.3455C67.4501 75.3141 68.3456 74.4187 68.3456 73.3141V71.7762C68.3456 70.6716 67.4501 69.7762 66.3456 69.7762H64.8076C63.703 69.7762 62.8076 70.6716 62.8076 71.7762V73.3141Z" fill="#FFEBC5"/>
<path d="M94.2118 73.3141C94.2118 74.4187 95.1073 75.3141 96.2118 75.3141H97.7498C98.8544 75.3141 99.7498 74.4187 99.7498 73.3141V71.7762C99.7498 70.6716 98.8544 69.7762 97.7498 69.7762H96.2118C95.1073 69.7762 94.2118 70.6716 94.2118 71.7762V73.3141Z" fill="#FFEBC5"/>
<path d="M4.57504e-06 38.4261C4.57504e-06 39.5306 0.895435 40.4261 2 40.4261H3.53799C4.64256 40.4261 5.53799 39.5306 5.53799 38.4261V36.8881C5.53799 35.7835 4.64256 34.8881 3.53799 34.8881H2.00001C0.895437 34.8881 4.57504e-06 35.7835 4.57504e-06 36.8881V38.4261Z" fill="#FFEBC5"/>
<path d="M31.4037 38.4261C31.4037 39.5306 32.2991 40.4261 33.4037 40.4261H34.9417C36.0462 40.4261 36.9417 39.5306 36.9417 38.4261V36.8881C36.9417 35.7835 36.0462 34.8881 34.9417 34.8881H33.4037C32.2991 34.8881 31.4037 35.7835 31.4037 36.8881V38.4261Z" fill="#FFEBC5"/>
<path d="M62.8076 38.4261C62.8076 39.5306 63.703 40.4261 64.8076 40.4261H66.3456C67.4501 40.4261 68.3456 39.5306 68.3456 38.4261V36.8881C68.3456 35.7835 67.4501 34.8881 66.3456 34.8881H64.8076C63.703 34.8881 62.8076 35.7835 62.8076 36.8881V38.4261Z" fill="#FFEBC5"/>
<path d="M94.2118 38.4261C94.2118 39.5306 95.1073 40.4261 96.2118 40.4261H97.7498C98.8544 40.4261 99.7498 39.5306 99.7498 38.4261V36.8881C99.7498 35.7835 98.8544 34.8881 97.7498 34.8881H96.2118C95.1073 34.8881 94.2118 35.7835 94.2118 36.8881V38.4261Z" fill="#FFEBC5"/>
<path d="M6.10004e-06 3.53798C6.10004e-06 4.64255 0.895437 5.53798 2.00001 5.53798H3.53799C4.64256 5.53798 5.53799 4.64255 5.53799 3.53798V2C5.53799 0.895432 4.64256 0 3.53799 0H2.00001C0.895438 0 6.10004e-06 0.895431 6.10004e-06 2V3.53798Z" fill="#FFEBC5"/>
<path d="M31.4037 3.53798C31.4037 4.64255 32.2991 5.53798 33.4037 5.53798H34.9417C36.0462 5.53798 36.9417 4.64255 36.9417 3.53798V2C36.9417 0.895432 36.0462 0 34.9417 0H33.4037C32.2991 0 31.4037 0.89543 31.4037 2V3.53798Z" fill="#FFEBC5"/>
<path d="M62.8076 3.53798C62.8076 4.64255 63.703 5.53798 64.8076 5.53798H66.3456C67.4501 5.53798 68.3456 4.64255 68.3456 3.53798V2C68.3456 0.895432 67.4501 0 66.3456 0H64.8076C63.703 0 62.8076 0.89543 62.8076 2V3.53798Z" fill="#FFEBC5"/>
<path d="M94.2118 3.53798C94.2118 4.64255 95.1073 5.53798 96.2118 5.53798H97.7498C98.8544 5.53798 99.7498 4.64255 99.7498 3.53798V2C99.7498 0.895432 98.8544 0 97.7498 0H96.2118C95.1073 0 94.2118 0.89543 94.2118 2V3.53798Z" fill="#FFEBC5"/>
</svg>
