<svg width="331" height="305" viewBox="0 0 331 305" fill="none" xmlns="http://www.w3.org/2000/svg">
<path fill-rule="evenodd" clip-rule="evenodd" d="M329.64 152.062C320.624 250.939 248.067 304.181 164.553 304.181H78.7684C76.3134 304.181 74.1261 303.36 72.4434 301.981C71.9634 301.587 71.5244 301.148 71.132 300.669C69.5669 298.76 68.7425 296.223 69.0075 293.441L101.747 72.7066C101.892 71.7261 102.734 71 103.725 71H150.703C151.917 71 152.851 72.073 152.684 73.2755L128.801 244.997C128.502 248.279 130.931 250.939 134.226 250.939H154.286C216.922 250.939 269.779 228.121 276.714 152.062C283.65 76.0022 234.954 53.1844 172.318 53.1844L161 53H143H104H79.2817C71.4797 53 64.0605 49.6196 58.941 43.7322V43.7322C58.1825 42.8598 58.802 41.5 59.958 41.5H104.582C107.022 41.5 109 39.5218 109 37.0816V37.0816C109 34.6415 107.022 32.6633 104.582 32.6633H53.9952C45.7738 32.6633 37.9904 28.9577 32.8073 22.576V22.576C32.0829 21.6841 32.7176 20.3508 33.8667 20.3508H83.5746C86.0187 20.3508 88 18.3695 88 15.9254V15.9254C88 13.4813 86.0187 11.5 83.5746 11.5H21.2817C13.4797 11.5 6.06049 8.11956 0.941 2.23215V2.23215C0.182465 1.35984 0.802048 0 1.95804 0H192.5C233.825 0 269.884 12.9792 294.885 38.1303L295.023 38.269C320.459 63.9453 334.186 102.201 329.64 152.062Z" fill="#FFB82E"/>
</svg>
