<svg width="21" height="31" viewBox="0 0 21 31" fill="none" xmlns="http://www.w3.org/2000/svg">
<path fill-rule="evenodd" clip-rule="evenodd" d="M17.037 4.63498C13.5199 0.455007 7.08423 0.455007 3.56711 4.63498C1.47361 7.12303 0.922359 10.5626 2.13345 13.5802L2.33691 14.0872C3.6939 17.4684 5.31974 20.7354 7.1988 23.8567L10.0879 28.6559C10.185 28.8173 10.4191 28.8173 10.5162 28.6559L13.4053 23.8567C15.2844 20.7354 16.9102 17.4684 18.2672 14.0872L18.4707 13.5802C19.6818 10.5626 19.1305 7.12303 17.037 4.63498ZM2.41935 3.66924C6.53585 -1.22308 14.0683 -1.22308 18.1848 3.66924C20.635 6.58129 21.2802 10.607 19.8627 14.1389L19.6593 14.6459C18.2724 18.1015 16.6108 21.4403 14.6904 24.6304L11.8013 29.4295C11.1211 30.5594 9.48297 30.5594 8.80277 29.4295L5.9137 24.6304C3.99329 21.4403 2.33168 18.1015 0.944839 14.6459L0.741378 14.1389C-0.676107 10.607 -0.0309069 6.58129 2.41935 3.66924ZM5.88539 10.4065C5.88539 7.94259 7.84977 5.92135 10.3021 5.92135C12.7543 5.92135 14.7187 7.94259 14.7187 10.4065C14.7187 12.8705 12.7543 14.8917 10.3021 14.8917C7.84977 14.8917 5.88539 12.8705 5.88539 10.4065ZM10.3021 7.42135C8.70426 7.42135 7.38539 8.74471 7.38539 10.4065C7.38539 12.0683 8.70426 13.3917 10.3021 13.3917C11.8999 13.3917 13.2187 12.0683 13.2187 10.4065C13.2187 8.74471 11.8999 7.42135 10.3021 7.42135Z" fill="#FFB82E"/>
</svg>
