<svg width="1920" height="2307" viewBox="0 0 1920 2307" fill="none" xmlns="http://www.w3.org/2000/svg">
<path d="M1920 1588.48V2255.58L1797.3 2278.45C1617.78 2311.9 1433.83 2314.19 1253.52 2285.23C1103.94 2261.2 951.695 2258.66 801.397 2277.68L714.564 2288.67C552.69 2309.16 389.039 2311.58 226.63 2295.89L0 2274V1529C0 1529 374.215 1579.34 594 1578.38C926.525 1576.93 1077.47 1531.32 1410 1532.37C1609.51 1532.99 1920 1588.48 1920 1588.48Z" fill="#F5F5F5"/>
<path fill-rule="evenodd" clip-rule="evenodd" d="M1437.39 684.322C1441.08 852.826 1343.02 1038 1080.02 1038H0V1716C341.602 1648.41 691.618 1634.17 1037.58 1673.8L1067.78 1677.26C1292.08 1702.95 1518.92 1696.12 1741.27 1656.97L1920 1625.5V496.996C1906.81 497.893 1885.81 488.93 1867.26 456.663C1851.06 428.491 1854.42 399.917 1857.86 370.791C1862.84 328.43 1862.36 289.63 1832 248C1814.5 224 1777 200.977 1731.5 203.5C1692.45 205.666 1668.1 206.302 1616.07 189.119C1519.44 157.21 1496.11 49.7444 1496.52 0H1303.5C1280.78 64.0852 1243.81 220.399 1277.7 336.559C1295.62 397.985 1328.79 434.548 1361.41 470.507C1405.91 519.549 1435.01 575.984 1437.39 684.322Z" fill="url(#paint0_linear_906_214)"/>
<path d="M1920 0H1496.52C1496.11 49.7444 1519.44 157.21 1616.07 189.119C1668.1 206.302 1692.45 205.666 1731.5 203.5C1777 200.977 1814.5 224 1832 248C1862.36 289.63 1862.84 328.43 1857.86 370.791C1854.42 399.917 1851.06 428.491 1867.26 456.663C1885.81 488.93 1906.81 497.893 1920 496.996V0Z" fill="url(#paint1_linear_906_214)"/>
<defs>
<linearGradient id="paint0_linear_906_214" x1="1145.2" y1="360.14" x2="1920.05" y2="354.899" gradientUnits="userSpaceOnUse">
<stop stop-color="#FFC557"/>
<stop offset="1" stop-color="#FFB82E"/>
</linearGradient>
<linearGradient id="paint1_linear_906_214" x1="1214.3" y1="796.455" x2="1954.86" y2="33.8478" gradientUnits="userSpaceOnUse">
<stop stop-color="#FFC557"/>
<stop offset="1" stop-color="#FFC75C"/>
</linearGradient>
</defs>
</svg>
