<svg width="504" height="670" viewBox="0 0 504 670" fill="none" xmlns="http://www.w3.org/2000/svg">
<path d="M0 670H391.5L328.43 635.46C286.15 612.306 255.701 572.277 244.673 525.35V525.35C232.026 471.535 193.979 427.242 142.687 406.622L129.847 401.461C88.2079 384.721 53.5532 354.232 31.6462 315.063L0 258.482V670Z" fill="url(#paint0_linear_783_214)"/>
<path d="M504 0H232.5L244.664 55.2154C255.411 103.998 291.085 143.499 338.524 159.146V159.146C362.599 167.086 379.879 188.274 382.817 213.454L385.046 232.559C389.033 266.732 411.135 296.101 442.868 309.393L504 335V0Z" fill="url(#paint1_linear_783_214)"/>
<path fill-rule="evenodd" clip-rule="evenodd" d="M0 258.482V0H232.5L244.664 55.2154C255.411 103.998 291.085 143.499 338.524 159.146V159.146C362.599 167.086 379.879 188.274 382.817 213.454L385.046 232.559C389.033 266.732 411.135 296.101 442.868 309.393L504 335V670H391.5L328.43 635.46C286.15 612.306 255.701 572.277 244.673 525.35V525.35C232.026 471.535 193.979 427.242 142.687 406.622L129.847 401.461C88.2079 384.721 53.5532 354.232 31.6462 315.063L0 258.482Z" fill="url(#paint2_linear_783_214)"/>
<path fill-rule="evenodd" clip-rule="evenodd" d="M301 552.423C301 599.064 341.518 636.873 391.5 636.873C393.438 636.873 395.362 636.816 397.27 636.704C412.822 635.791 415.479 616.035 406.418 603.362C392.326 583.654 383.165 555.9 398.5 524.896C421.843 477.701 386.22 470.18 363.856 472.356C362.617 472.476 361.399 472.749 360.221 473.153C325.653 485.034 301 516.042 301 552.423Z" fill="#FFC24D"/>
<defs>
<linearGradient id="paint0_linear_783_214" x1="143.227" y1="165.537" x2="396.837" y2="401.497" gradientUnits="userSpaceOnUse">
<stop stop-color="#FFB82E"/>
<stop offset="1" stop-color="#FFC557"/>
</linearGradient>
<linearGradient id="paint1_linear_783_214" x1="143.227" y1="165.537" x2="396.837" y2="401.497" gradientUnits="userSpaceOnUse">
<stop stop-color="#FFB82E"/>
<stop offset="1" stop-color="#FFC557"/>
</linearGradient>
<linearGradient id="paint2_linear_783_214" x1="-6.30504e-06" y1="-7.46517" x2="485.603" y2="367.341" gradientUnits="userSpaceOnUse">
<stop stop-color="#FFA700"/>
<stop offset="1" stop-color="#FFC045"/>
</linearGradient>
</defs>
</svg>
