<svg width="86" height="63" viewBox="0 0 86 63" fill="none" xmlns="http://www.w3.org/2000/svg">
<path fill-rule="evenodd" clip-rule="evenodd" d="M54.2628 5.43334C53.9776 5.43334 52.8956 5.68827 51.7268 8.06894L51.7174 8.08815L46.6076 18.292C46.0204 19.4875 45.0512 20.4943 44.0694 21.2235C43.0841 21.9554 41.8334 22.5955 40.5093 22.8114L31.2704 24.3308C28.7876 24.7586 28.1846 25.699 28.077 26.0346C27.9709 26.3655 27.9102 27.4751 29.6952 29.2573L36.9431 36.4942C37.9275 37.507 38.5861 38.8358 38.9488 40.1033C39.3096 41.364 39.4604 42.8554 39.1265 44.26L37.0606 53.1627C36.2998 56.4373 37.1388 57.3259 37.2441 57.4024C37.3588 57.4858 38.4773 58.0009 41.3672 56.2974L50.0265 51.1603C51.3352 50.3736 52.895 50.0682 54.29 50.0682C55.6849 50.0682 57.2448 50.3736 58.5534 51.1603L67.22 56.3017C70.1092 58.0224 71.222 57.4991 71.3316 57.4191C71.4424 57.3383 72.28 56.4366 71.5195 53.1633L69.453 44.2579C69.1225 42.8458 69.2675 41.3472 69.6312 40.0762C69.9943 38.8073 70.6585 37.4712 71.6656 36.4656L78.8767 29.2655L78.8804 29.2618C80.668 27.46 80.6099 26.3406 80.5031 26.0074C80.398 25.6797 79.8042 24.7439 77.3193 24.3324L68.0685 22.811L68.0131 22.8013C66.7335 22.5636 65.5061 21.9433 64.5192 21.2163C63.5415 20.4961 62.5644 19.4974 61.9724 18.292L56.866 8.09445C55.6615 5.70637 54.5604 5.43334 54.2628 5.43334ZM54.2628 0C57.5929 0 60.1384 2.50077 61.7267 5.6519L61.7299 5.65826L66.8575 15.8979C66.9555 16.0988 67.244 16.4715 67.7499 16.8442C68.2388 17.2044 68.706 17.3985 68.9886 17.4558L78.2037 18.9713C81.63 19.5379 84.6842 21.2281 85.6855 24.3505C86.685 27.4673 85.194 30.6208 82.7409 33.0911L82.7327 33.0993L75.5134 40.3075C75.3234 40.4972 75.0445 40.936 74.8635 41.5688C74.6832 42.1988 74.6835 42.7299 74.7515 43.0197L74.7528 43.0256L76.8204 51.9356C77.6923 55.6893 77.4597 59.6778 74.5416 61.8065C71.6232 63.9352 67.7499 62.9427 64.4365 60.9703L64.4324 60.9679L55.748 55.816C55.4988 55.6656 54.9773 55.5016 54.29 55.5016C53.6026 55.5016 53.0811 55.6655 52.8319 55.816L52.8139 55.8268L44.1435 60.9703L44.1374 60.9739C40.826 62.9268 36.9571 63.9131 34.0427 61.796C31.119 59.6721 30.8878 55.6886 31.7594 51.9362L33.8272 43.0255L33.8316 43.0069C33.8935 42.7485 33.8991 42.2338 33.7166 41.596C33.5379 40.9717 33.2596 40.5119 33.048 40.289L25.8474 33.0993C23.3878 30.6435 21.8942 27.497 22.8946 24.3777C23.8933 21.2635 26.9348 19.5615 30.3579 18.9744L30.3764 18.9712L39.6321 17.4491C39.8669 17.4109 40.3201 17.2365 40.8215 16.8641C41.3231 16.4915 41.6198 16.1088 41.7226 15.898L41.7349 15.8728L46.8456 5.66729C48.3981 2.51071 50.9239 0 54.2628 0Z" fill="#FFB82E"/>
<path fill-rule="evenodd" clip-rule="evenodd" d="M8 6.11251C8 4.61213 9.21815 3.39584 10.7208 3.39584H32.4872C33.9899 3.39584 35.208 4.61213 35.208 6.11251C35.208 7.61288 33.9899 8.82918 32.4872 8.82918H10.7208C9.21815 8.82918 8 7.61288 8 6.11251Z" fill="#FFB82E"/>
<path fill-rule="evenodd" clip-rule="evenodd" d="M8 56.8237C8 55.3233 9.21815 54.107 10.7208 54.107H21.604C23.1067 54.107 24.3248 55.3233 24.3248 56.8237C24.3248 58.3241 23.1067 59.5404 21.604 59.5404H10.7208C9.21815 59.5404 8 58.3241 8 56.8237Z" fill="#FFB82E"/>
<path fill-rule="evenodd" clip-rule="evenodd" d="M0 31.4681C0 29.9677 1.21815 28.7514 2.72081 28.7514H14.3485C15.8512 28.7514 17.0693 29.9677 17.0693 31.4681C17.0693 32.9685 15.8512 34.1848 14.3485 34.1848H2.72081C1.21815 34.1848 0 32.9685 0 31.4681Z" fill="#FFB82E"/>
</svg>
