<svg width="215" height="44" viewBox="0 0 215 44" fill="none" xmlns="http://www.w3.org/2000/svg">
<path d="M61.2196 35.2375V8.8437H77.8477V12.7651H65.2917V31.3162H77.8477V35.2375H61.2196ZM63.0671 23.662V19.7406H75.7739V23.662H63.0671ZM96.5593 35.2375L90.1494 26.9046L89.5838 26.1882L81.2509 15.4422H86.1526L92.4494 23.662L93.0904 24.4915L101.31 35.2375H96.5593ZM81.2886 35.2375L89.0936 25.0571L91.3937 27.8096L85.8887 35.2375H81.2886ZM93.3167 25.6604L91.1674 22.9456L96.0314 15.4422H100.632L93.3167 25.6604ZM111.048 35.6146C109.414 35.6146 107.918 35.1621 106.561 34.2572C105.228 33.3523 104.16 32.1206 103.356 30.5621C102.551 29.0036 102.149 27.244 102.149 25.2833C102.149 23.2975 102.551 21.5379 103.356 20.0045C104.185 18.446 105.291 17.2269 106.674 16.3471C108.081 15.4673 109.653 15.0274 111.387 15.0274C112.418 15.0274 113.36 15.1782 114.215 15.4799C115.07 15.7815 115.811 16.2088 116.44 16.7619C117.093 17.2897 117.621 17.9056 118.023 18.6094C118.451 19.3133 118.714 20.0674 118.815 20.8718L117.948 20.5701V15.4422H121.869V35.2375H117.948V30.5244L118.853 30.2604C118.702 30.9391 118.388 31.6053 117.91 32.2588C117.458 32.8872 116.867 33.4528 116.138 33.9556C115.434 34.4583 114.642 34.8605 113.762 35.1621C112.908 35.4638 112.003 35.6146 111.048 35.6146ZM112.066 32.0326C113.247 32.0326 114.29 31.7435 115.195 31.1654C116.1 30.5872 116.804 29.7954 117.307 28.7899C117.835 27.7593 118.099 26.5904 118.099 25.2833C118.099 24.0013 117.835 22.8576 117.307 21.8521C116.804 20.8466 116.1 20.0548 115.195 19.4767C114.29 18.8985 113.247 18.6094 112.066 18.6094C110.909 18.6094 109.879 18.8985 108.974 19.4767C108.094 20.0548 107.39 20.8466 106.862 21.8521C106.36 22.8576 106.108 24.0013 106.108 25.2833C106.108 26.5904 106.36 27.7593 106.862 28.7899C107.39 29.7954 108.094 30.5872 108.974 31.1654C109.879 31.7435 110.909 32.0326 112.066 32.0326ZM127.216 35.2375V15.4422H131.138V19.6652L130.421 20.1176C130.622 19.4641 130.937 18.8357 131.364 18.2324C131.816 17.6291 132.357 17.1012 132.985 16.6487C133.639 16.1711 134.33 15.7941 135.059 15.5176C135.813 15.2411 136.58 15.1028 137.359 15.1028C138.49 15.1028 139.483 15.2913 140.338 15.6684C141.192 16.0454 141.896 16.611 142.449 17.3651C143.002 18.1193 143.404 19.0619 143.656 20.1931L143.053 20.0422L143.316 19.4012C143.593 18.8231 143.97 18.2826 144.448 17.7799C144.95 17.252 145.516 16.787 146.144 16.3848C146.773 15.9826 147.439 15.6684 148.143 15.4422C148.847 15.2159 149.538 15.1028 150.217 15.1028C151.7 15.1028 152.919 15.4045 153.874 16.0077C154.854 16.611 155.583 17.5285 156.061 18.7602C156.564 19.992 156.815 21.5253 156.815 23.3603V35.2375H152.894V23.5865C152.894 22.4554 152.743 21.5379 152.441 20.834C152.165 20.1051 151.737 19.5646 151.159 19.2127C150.581 18.8608 149.84 18.6848 148.935 18.6848C148.231 18.6848 147.565 18.8105 146.936 19.0619C146.333 19.2881 145.805 19.6149 145.353 20.0422C144.9 20.4696 144.548 20.9723 144.297 21.5505C144.045 22.1035 143.92 22.7193 143.92 23.398V35.2375H139.998V23.5111C139.998 22.4805 139.848 21.6133 139.546 20.9095C139.244 20.1805 138.804 19.6275 138.226 19.2504C137.648 18.8734 136.944 18.6848 136.115 18.6848C135.411 18.6848 134.757 18.8105 134.154 19.0619C133.551 19.2881 133.023 19.6149 132.57 20.0422C132.118 20.4444 131.766 20.9346 131.515 21.5127C131.263 22.0658 131.138 22.669 131.138 23.3226V35.2375H127.216ZM162.015 43.5328V15.4422H165.936V19.9668L165.333 19.6275C165.484 18.8734 165.911 18.157 166.615 17.4783C167.319 16.7744 168.173 16.2088 169.179 15.7815C170.209 15.329 171.265 15.1028 172.346 15.1028C174.131 15.1028 175.714 15.5427 177.097 16.4225C178.479 17.3023 179.573 18.5089 180.377 20.0422C181.182 21.5756 181.584 23.3352 181.584 25.321C181.584 27.2817 181.182 29.0413 180.377 30.5998C179.598 32.1331 178.517 33.3523 177.135 34.2572C175.752 35.137 174.193 35.5769 172.459 35.5769C171.303 35.5769 170.184 35.3507 169.103 34.8982C168.022 34.4206 167.105 33.8173 166.351 33.0883C165.597 32.3594 165.132 31.6053 164.956 30.826L165.936 30.2981V43.5328H162.015ZM171.818 31.9949C172.974 31.9949 174.005 31.7058 174.91 31.1276C175.815 30.5495 176.531 29.7577 177.059 28.7522C177.587 27.7467 177.851 26.603 177.851 25.321C177.851 24.039 177.587 22.9079 177.059 21.9275C176.556 20.922 175.853 20.1302 174.948 19.5521C174.043 18.9739 172.999 18.6848 171.818 18.6848C170.637 18.6848 169.593 18.9739 168.688 19.5521C167.784 20.1051 167.067 20.8843 166.539 21.8898C166.011 22.8953 165.747 24.039 165.747 25.321C165.747 26.603 166.011 27.7467 166.539 28.7522C167.067 29.7577 167.784 30.5495 168.688 31.1276C169.593 31.7058 170.637 31.9949 171.818 31.9949ZM185.877 35.2375V7.33548H189.761V35.2375H185.877ZM204.134 35.6146C202.098 35.6146 200.288 35.1873 198.705 34.3326C197.146 33.4528 195.914 32.2588 195.01 30.7506C194.13 29.2424 193.69 27.5079 193.69 25.5472C193.69 23.9887 193.941 22.5685 194.444 21.2865C194.947 20.0045 195.638 18.8985 196.518 17.9684C197.423 17.0132 198.491 16.2843 199.723 15.7815C200.98 15.2536 202.337 14.9897 203.795 14.9897C205.077 14.9897 206.271 15.2411 207.377 15.7438C208.483 16.2214 209.438 16.8875 210.243 17.7422C211.072 18.5969 211.701 19.6149 212.128 20.7963C212.58 21.9526 212.794 23.2221 212.769 24.6046L212.731 26.2636H196.555L195.688 23.1718H209.375L208.81 23.8128V22.9079C208.734 22.0783 208.458 21.3368 207.98 20.6832C207.503 20.0297 206.899 19.5144 206.17 19.1373C205.441 18.7602 204.65 18.5717 203.795 18.5717C202.438 18.5717 201.294 18.8357 200.364 19.3635C199.434 19.8663 198.73 20.6204 198.252 21.6259C197.775 22.6062 197.536 23.8254 197.536 25.2833C197.536 26.6658 197.825 27.8724 198.403 28.903C198.981 29.9085 199.798 30.6878 200.854 31.2408C201.91 31.7938 203.129 32.0703 204.511 32.0703C205.492 32.0703 206.397 31.9069 207.226 31.5801C208.081 31.2533 208.998 30.6626 209.979 29.808L211.939 32.5605C211.336 33.1637 210.594 33.6916 209.715 34.1441C208.86 34.5966 207.943 34.961 206.962 35.2375C206.007 35.4889 205.064 35.6146 204.134 35.6146Z" fill="#4A4A4A"/>
<path d="M21.358 41.7905C32.8326 41.7905 42.1345 32.4886 42.1345 21.014C35.6594 24.546 27.8332 24.546 21.358 21.014C24.89 27.4892 24.89 35.3154 21.358 41.7905Z" fill="#4A4A4A"/>
<path d="M21.358 0.237549C9.8835 0.237549 0.581543 9.5395 0.581543 21.014C7.05673 17.4821 14.8829 17.4821 21.358 21.014C17.8261 14.5389 17.8261 6.71274 21.358 0.237549Z" fill="#4A4A4A"/>
<path d="M0.773918 21.014C0.773918 9.64575 9.98974 0.429924 21.358 0.429924V0.0451738C9.77725 0.0451738 0.389168 9.43326 0.389168 21.014H0.773918ZM21.358 0.429924C32.7263 0.429924 41.9422 9.64575 41.9422 21.014H42.3269C42.3269 9.43326 32.9388 0.0451738 21.358 0.0451738V0.429924ZM41.9422 21.014C41.9422 32.3823 32.7263 41.5982 21.358 41.5982V41.9829C32.9388 41.9829 42.3269 32.5948 42.3269 21.014H41.9422ZM21.358 41.5982C9.98974 41.5982 0.773918 32.3823 0.773918 21.014H0.389168C0.389168 32.5948 9.77725 41.9829 21.358 41.9829V41.5982ZM0.673662 21.1829C7.09143 17.6823 14.8482 17.6823 21.2659 21.1829L21.4502 20.8452C14.9176 17.2819 7.02203 17.2819 0.489424 20.8452L0.673662 21.1829ZM21.1892 21.1062C24.6898 27.5239 24.6898 35.2807 21.1892 41.6984L21.5269 41.8827C25.0902 35.3501 25.0902 27.4545 21.5269 20.9219L21.1892 21.1062ZM21.2659 21.1829C27.7985 24.7462 35.694 24.7462 42.2267 21.1829L42.0424 20.8452C35.6246 24.3458 27.8679 24.3458 21.4502 20.8452L21.2659 21.1829ZM21.5269 20.9219C18.0263 14.5042 18.0263 6.74744 21.5269 0.329668L21.1892 0.14543C17.6259 6.67804 17.6259 14.5736 21.1892 21.1062L21.5269 20.9219Z" fill="#4A4A4A"/>
</svg>
