<svg width="14" height="20" viewBox="0 0 14 20" fill="none" xmlns="http://www.w3.org/2000/svg">
<path d="M7.04486 19.0038C4.35251 19.0038 2.68524 18.6962 1.72444 18.4157C1.01264 18.2079 0.672719 17.5024 0.772731 16.7677L1.56983 10.9117C1.64179 10.383 1.93094 9.90938 2.42935 9.71904C3.2134 9.41962 4.66873 9.04531 7.04486 9.04531C9.421 9.04531 10.8763 9.41962 11.6604 9.71904C12.1588 9.90938 12.4479 10.383 12.5199 10.9117L13.317 16.7677C13.417 17.5024 13.0771 18.2079 12.3653 18.4157C11.4045 18.6962 9.73721 19.0038 7.04486 19.0038Z" stroke="#4A4A4A" stroke-width="0.99"/>
<path d="M3.82736 3.8472C3.82736 5.5697 5.26789 6.96607 7.04486 6.96607C8.82184 6.96607 10.2624 5.5697 10.2624 3.8472C10.2624 2.1247 8.82184 0.728333 7.04486 0.728333C5.26789 0.728333 3.82736 2.1247 3.82736 3.8472Z" stroke="#4A4A4A" stroke-width="0.99"/>
</svg>
