<svg width="864" height="1001" viewBox="0 0 864 1001" fill="none" xmlns="http://www.w3.org/2000/svg">
<g filter="url(#filter0_d_78_32)">
<path d="M337.833 202.161C339.107 192.793 347.107 185.806 356.561 185.806H598.647C610.097 185.806 618.917 195.906 617.375 207.252L544.198 745.645C542.925 755.014 534.925 762 525.471 762H283.384C271.935 762 263.114 751.9 264.656 740.555L337.833 202.161Z" fill="#FFDD9B"/>
<g filter="url(#filter1_d_78_32)">
<path d="M332.802 196.355C334.075 186.986 342.075 180 351.529 180H593.616C605.066 180 613.886 190.1 612.344 201.445L539.167 739.839C537.893 749.207 529.893 756.194 520.439 756.194H278.353C266.903 756.194 258.083 746.094 259.625 734.748L332.802 196.355Z" fill="#FFB82E"/>
</g>
<g filter="url(#filter2_d_78_32)">
<path d="M297.958 574.889C298.836 569.181 303.747 564.968 309.522 564.968H539.139C544.104 564.968 547.9 569.393 547.145 574.299L527.462 702.24C526.584 707.948 521.673 712.161 515.898 712.161H286.28C281.316 712.161 277.52 707.736 278.275 702.83L297.958 574.889Z" fill="white"/>
</g>
<g filter="url(#filter3_d_78_32)">
<path d="M396.425 403.792C397.303 398.084 402.214 393.871 407.989 393.871H637.607C642.571 393.871 646.367 398.296 645.612 403.203L625.929 531.144C625.051 536.851 620.14 541.065 614.365 541.065H384.748C379.783 541.065 375.987 536.64 376.742 531.733L396.425 403.792Z" fill="white"/>
</g>
<g filter="url(#filter4_d_78_32)">
<path fill-rule="evenodd" clip-rule="evenodd" d="M407.956 415.112C408.835 409.406 413.745 405.194 419.519 405.194H621.25C626.215 405.194 630.012 409.62 629.256 414.527L622.457 458.661C617.444 455.516 600.5 448.597 572.822 446.081C554.894 444.451 544.398 448.058 533.193 452.699C498.974 445.352 451.839 455.761 432.548 461.884C419.935 459.645 408.907 456.949 401.829 454.887L407.956 415.112Z" fill="#FFE9BD"/>
<path d="M398.131 478.893C397.375 483.8 401.172 488.226 406.137 488.226H607.867C613.641 488.226 618.552 484.014 619.431 478.307L622.457 458.661C617.444 455.516 600.5 448.597 572.822 446.081C554.894 444.451 544.398 448.058 533.193 452.699C532.111 453.148 531.022 453.606 529.919 454.07C520.407 458.07 509.858 462.508 493.564 464.952C475.244 467.7 452.01 465.338 432.548 461.884C419.935 459.645 408.907 456.949 401.829 454.887L398.131 478.893Z" fill="#FFC557"/>
<path d="M432.548 461.884C452.01 465.338 475.244 467.7 493.564 464.952C509.858 462.508 520.407 458.07 529.919 454.07C531.022 453.606 532.111 453.148 533.193 452.699C498.974 445.352 451.839 455.761 432.548 461.884Z" fill="#FFDD9B"/>
</g>
<g filter="url(#filter5_d_78_32)">
<path fill-rule="evenodd" clip-rule="evenodd" d="M613.817 312.097C619.59 312.097 624.501 307.885 625.38 302.178L634.568 242.546C635.66 235.458 630.176 229.065 623.004 229.065H550.022C544.248 229.065 539.337 233.276 538.458 238.983L528.631 302.763C527.875 307.671 531.672 312.097 536.637 312.097H613.817Z" fill="white"/>
</g>
<g filter="url(#filter6_d_78_32)">
<path fill-rule="evenodd" clip-rule="evenodd" d="M346.583 553.645C352.364 553.645 357.279 549.422 358.149 543.706L369.144 471.493C370.223 464.412 364.741 458.032 357.578 458.032H278.805C273.023 458.032 268.108 462.255 267.238 467.971L255.613 544.326C254.866 549.229 258.661 553.645 263.62 553.645H346.583Z" fill="white"/>
</g>
<g filter="url(#filter7_d_78_32)">
<path d="M245.119 238.985C245.997 233.278 250.908 229.065 256.683 229.065H511.462C516.426 229.065 520.222 233.49 519.468 238.396L499.784 366.337C498.906 372.045 493.995 376.258 488.22 376.258H233.441C228.477 376.258 224.681 371.833 225.436 366.926L245.119 238.985Z" fill="white"/>
</g>
<g filter="url(#filter8_d_78_32)">
<path d="M308.42 579.605C308.828 576.973 311.094 575.032 313.757 575.032H528.44C531.753 575.032 534.284 577.987 533.777 581.26L527.064 624.556C526.656 627.188 524.391 629.129 521.728 629.129H307.044C303.732 629.129 301.2 626.175 301.708 622.902L308.42 579.605Z" fill="#FFC557"/>
</g>
<g filter="url(#filter9_d_78_32)">
<path d="M298.766 648.175C298.94 647.34 299.676 646.742 300.528 646.742H522.464C523.606 646.742 524.459 647.791 524.226 648.909L522.879 655.374C522.705 656.208 521.97 656.807 521.117 656.807H299.181C298.04 656.807 297.186 655.757 297.419 654.639L298.766 648.175Z" fill="#FFDD9B"/>
</g>
<g filter="url(#filter10_d_78_32)">
<path d="M294.992 667.046C295.166 666.211 295.902 665.613 296.754 665.613H518.69C519.832 665.613 520.685 666.662 520.452 667.78L519.105 674.245C518.931 675.079 518.196 675.677 517.343 675.677H295.408C294.266 675.677 293.412 674.628 293.645 673.51L294.992 667.046Z" fill="#FFDD9B"/>
</g>
<path d="M413.396 198.929C413.613 198.151 414.322 197.613 415.13 197.613H524.822C526.013 197.613 526.876 198.75 526.555 199.897L526.507 200.071C526.289 200.849 525.581 201.387 524.773 201.387H415.081C413.89 201.387 413.027 200.25 413.347 199.103L413.396 198.929Z" fill="#FFC557"/>
<g filter="url(#filter11_d_78_32)">
<path d="M291.218 685.917C291.392 685.082 292.127 684.484 292.98 684.484H414.27C415.412 684.484 416.265 685.533 416.032 686.651L414.686 693.116C414.512 693.95 413.776 694.548 412.924 694.548H291.633C290.491 694.548 289.638 693.499 289.871 692.381L291.218 685.917Z" fill="#FFDD9B"/>
</g>
<g filter="url(#filter12_d_78_32)">
<path d="M252.218 304.723C252.392 303.889 253.127 303.29 253.98 303.29H488.496C489.638 303.29 490.491 304.34 490.258 305.457L488.911 311.922C488.738 312.757 488.002 313.355 487.149 313.355H252.633C251.491 313.355 250.638 312.306 250.871 311.188L252.218 304.723Z" fill="#FFDD9B"/>
</g>
<g filter="url(#filter13_d_78_32)">
<path d="M308.83 283.336C309.004 282.501 309.74 281.903 310.593 281.903H494.786C495.928 281.903 496.781 282.953 496.548 284.07L495.202 290.535C495.028 291.37 494.292 291.968 493.44 291.968H309.246C308.104 291.968 307.251 290.918 307.484 289.801L308.83 283.336Z" fill="#FFDD9B"/>
</g>
<g filter="url(#filter14_d_78_32)">
<path d="M313.863 263.207C314.037 262.372 314.772 261.774 315.625 261.774H399.173C400.315 261.774 401.168 262.824 400.936 263.941L399.589 270.406C399.415 271.241 398.679 271.839 397.827 271.839H314.278C313.136 271.839 312.283 270.789 312.516 269.672L313.863 263.207Z" fill="#FFDD9B"/>
</g>
<g filter="url(#filter15_d_78_32)">
<path d="M248.443 323.594C248.617 322.759 249.353 322.161 250.205 322.161H484.722C485.863 322.161 486.717 323.211 486.484 324.328L485.137 330.793C484.963 331.628 484.228 332.226 483.375 332.226H248.859C247.717 332.226 246.864 331.176 247.097 330.059L248.443 323.594Z" fill="#FFDD9B"/>
</g>
<g filter="url(#filter16_d_78_32)">
<path d="M394.718 498.465C394.892 497.63 395.627 497.032 396.48 497.032H614.641C615.783 497.032 616.636 498.082 616.403 499.199L615.057 505.664C614.883 506.499 614.147 507.097 613.294 507.097H395.133C393.991 507.097 393.138 506.047 393.371 504.93L394.718 498.465Z" fill="#FFDD9B"/>
</g>
<g filter="url(#filter17_d_78_32)">
<path d="M390.944 517.336C391.118 516.501 391.853 515.903 392.706 515.903H547.964C549.106 515.903 549.959 516.953 549.726 518.07L548.38 524.535C548.206 525.37 547.47 525.968 546.617 525.968H391.359C390.217 525.968 389.364 524.918 389.597 523.801L390.944 517.336Z" fill="#FFDD9B"/>
</g>
<g filter="url(#filter18_d_78_32)">
<path d="M244.669 342.465C244.843 341.63 245.579 341.032 246.432 341.032H380.303C381.444 341.032 382.298 342.082 382.065 343.199L380.718 349.664C380.544 350.499 379.808 351.097 378.956 351.097H245.085C243.943 351.097 243.09 350.047 243.323 348.93L244.669 342.465Z" fill="#FFDD9B"/>
</g>
<g filter="url(#filter19_d_78_32)">
<circle r="26.7149" transform="matrix(1 0 -0.148327 0.988938 346.854 420.29)" fill="white"/>
</g>
<g filter="url(#filter20_d_78_32)">
<circle r="26.7149" transform="matrix(1 0 -0.148327 0.988938 547.806 349.839)" fill="white"/>
</g>
<g filter="url(#filter21_d_78_32)">
<path d="M346.787 407.022C347.052 406.446 347.873 406.446 347.985 407.022L349.661 415.628C349.711 415.886 349.93 416.06 350.203 416.06H359.332C359.942 416.06 360.093 416.834 359.552 417.19L351.458 422.509C351.216 422.668 351.086 422.95 351.137 423.207L352.812 431.814C352.924 432.389 352.196 432.868 351.75 432.512L345.072 427.193C344.872 427.034 344.573 427.034 344.331 427.193L336.237 432.512C335.696 432.868 335.096 432.389 335.361 431.814L339.327 423.207C339.446 422.95 339.391 422.668 339.191 422.509L332.513 417.19C332.067 416.834 332.424 416.06 333.034 416.06H342.164C342.436 416.06 342.702 415.886 342.82 415.628L346.787 407.022Z" fill="#FFC557"/>
</g>
<g filter="url(#filter22_d_78_32)">
<path d="M534.742 350.468L542.747 359.759C542.814 359.837 542.934 359.843 543.008 359.771L561.162 342.29" stroke="#FFC557" stroke-width="2.7" stroke-linecap="round"/>
</g>
<g filter="url(#filter23_d_78_32)">
<path d="M272.586 253.606H270.192C269.558 253.606 268.99 253.357 268.615 252.914C268.24 252.472 268.088 251.871 268.192 251.245C268.297 250.619 268.649 250.018 269.172 249.575C269.695 249.132 270.345 248.884 270.98 248.884H297.312L297.706 246.522C297.81 245.896 297.658 245.296 297.283 244.853C296.908 244.41 296.341 244.161 295.706 244.161H269.374C268.104 244.161 266.804 244.659 265.758 245.544C264.712 246.43 264.008 247.631 263.799 248.884L257.497 286.662C257.064 289.26 258.864 291.385 261.497 291.385H290.223C291.492 291.385 292.793 290.887 293.839 290.002C294.884 289.116 295.589 287.915 295.798 286.662L300.918 255.967C301.022 255.341 300.87 254.74 300.495 254.298C300.12 253.855 299.553 253.606 298.918 253.606H282.161L279.011 272.495L275.011 267.773L269.435 272.495L272.586 253.606Z" fill="#FFC557"/>
</g>
<g filter="url(#filter24_d_78_32)">
<path d="M336.061 531.716L318.929 511.656M318.929 511.656C322.774 508.372 325.549 503.836 326.342 498.825C327.93 488.802 320.991 480.677 310.843 480.677C300.696 480.677 291.183 488.802 289.596 498.825C288.009 508.847 294.948 516.972 305.095 516.972C310.169 516.972 315.084 514.94 318.929 511.656Z" stroke="#FFC557" stroke-width="3.6" stroke-linecap="round" shape-rendering="crispEdges"/>
</g>
<g filter="url(#filter25_d_78_32)">
<path d="M601.766 254.314C601.766 254.314 592.35 270.824 585.287 283.206C578.224 295.589 578.224 295.589 578.224 295.589C578.224 295.589 573.516 303.844 564.409 301.136C555.302 298.428 560.01 290.173 560.01 290.173L585.907 244.771C585.907 244.771 590.077 237.46 598.045 239.83C606.014 242.199 601.844 249.51 601.844 249.51L593.604 263.956L583.01 282.529C583.01 282.529 579.479 288.721 572.649 286.69C565.818 284.659 569.35 278.468 569.35 278.468L579.944 259.894C579.944 259.894 582.87 254.763 588.562 256.456C594.254 258.148 591.327 263.279 591.327 263.279L583.088 277.725" stroke="#FFC557" stroke-width="1.575" stroke-linecap="round"/>
</g>
</g>
<defs>
<filter id="filter0_d_78_32" x="0.339844" y="-31.5" width="870.369" height="1032" filterUnits="userSpaceOnUse" color-interpolation-filters="sRGB">
<feFlood flood-opacity="0" result="BackgroundImageFix"/>
<feColorMatrix in="SourceAlpha" type="matrix" values="0 0 0 0 0 0 0 0 0 0 0 0 0 0 0 0 0 0 127 0" result="hardAlpha"/>
<feOffset dy="13.5"/>
<feGaussianBlur stdDeviation="112.5"/>
<feComposite in2="hardAlpha" operator="out"/>
<feColorMatrix type="matrix" values="0 0 0 0 1 0 0 0 0 1 0 0 0 0 1 0 0 0 0.1 0"/>
<feBlend mode="normal" in2="BackgroundImageFix" result="effect1_dropShadow_78_32"/>
<feBlend mode="normal" in="SourceGraphic" in2="effect1_dropShadow_78_32" result="shape"/>
</filter>
<filter id="filter1_d_78_32" x="250.449" y="175.5" width="367.47" height="590.594" filterUnits="userSpaceOnUse" color-interpolation-filters="sRGB">
<feFlood flood-opacity="0" result="BackgroundImageFix"/>
<feColorMatrix in="SourceAlpha" type="matrix" values="0 0 0 0 0 0 0 0 0 0 0 0 0 0 0 0 0 0 127 0" result="hardAlpha"/>
<feOffset dx="-1.8" dy="2.7"/>
<feGaussianBlur stdDeviation="3.6"/>
<feComposite in2="hardAlpha" operator="out"/>
<feColorMatrix type="matrix" values="0 0 0 0 0 0 0 0 0 0 0 0 0 0 0 0 0 0 0.1 0"/>
<feBlend mode="normal" in2="BackgroundImageFix" result="effect1_dropShadow_78_32"/>
<feBlend mode="normal" in="SourceGraphic" in2="effect1_dropShadow_78_32" result="shape"/>
</filter>
<filter id="filter2_d_78_32" x="269.179" y="560.468" width="283.462" height="161.594" filterUnits="userSpaceOnUse" color-interpolation-filters="sRGB">
<feFlood flood-opacity="0" result="BackgroundImageFix"/>
<feColorMatrix in="SourceAlpha" type="matrix" values="0 0 0 0 0 0 0 0 0 0 0 0 0 0 0 0 0 0 127 0" result="hardAlpha"/>
<feOffset dx="-1.8" dy="2.7"/>
<feGaussianBlur stdDeviation="3.6"/>
<feComposite in2="hardAlpha" operator="out"/>
<feColorMatrix type="matrix" values="0 0 0 0 0 0 0 0 0 0 0 0 0 0 0 0 0 0 0.1 0"/>
<feBlend mode="normal" in2="BackgroundImageFix" result="effect1_dropShadow_78_32"/>
<feBlend mode="normal" in="SourceGraphic" in2="effect1_dropShadow_78_32" result="shape"/>
</filter>
<filter id="filter3_d_78_32" x="367.646" y="389.371" width="283.462" height="161.594" filterUnits="userSpaceOnUse" color-interpolation-filters="sRGB">
<feFlood flood-opacity="0" result="BackgroundImageFix"/>
<feColorMatrix in="SourceAlpha" type="matrix" values="0 0 0 0 0 0 0 0 0 0 0 0 0 0 0 0 0 0 127 0" result="hardAlpha"/>
<feOffset dx="-1.8" dy="2.7"/>
<feGaussianBlur stdDeviation="3.6"/>
<feComposite in2="hardAlpha" operator="out"/>
<feColorMatrix type="matrix" values="0 0 0 0 0 0 0 0 0 0 0 0 0 0 0 0 0 0 0.1 0"/>
<feBlend mode="normal" in2="BackgroundImageFix" result="effect1_dropShadow_78_32"/>
<feBlend mode="normal" in="SourceGraphic" in2="effect1_dropShadow_78_32" result="shape"/>
</filter>
<filter id="filter4_d_78_32" x="389.035" y="400.694" width="245.717" height="97.4323" filterUnits="userSpaceOnUse" color-interpolation-filters="sRGB">
<feFlood flood-opacity="0" result="BackgroundImageFix"/>
<feColorMatrix in="SourceAlpha" type="matrix" values="0 0 0 0 0 0 0 0 0 0 0 0 0 0 0 0 0 0 127 0" result="hardAlpha"/>
<feOffset dx="-1.8" dy="2.7"/>
<feGaussianBlur stdDeviation="3.6"/>
<feComposite in2="hardAlpha" operator="out"/>
<feColorMatrix type="matrix" values="0 0 0 0 0 0 0 0 0 0 0 0 0 0 0 0 0 0 0.1 0"/>
<feBlend mode="normal" in2="BackgroundImageFix" result="effect1_dropShadow_78_32"/>
<feBlend mode="normal" in="SourceGraphic" in2="effect1_dropShadow_78_32" result="shape"/>
</filter>
<filter id="filter5_d_78_32" x="519.535" y="224.565" width="120.571" height="97.4323" filterUnits="userSpaceOnUse" color-interpolation-filters="sRGB">
<feFlood flood-opacity="0" result="BackgroundImageFix"/>
<feColorMatrix in="SourceAlpha" type="matrix" values="0 0 0 0 0 0 0 0 0 0 0 0 0 0 0 0 0 0 127 0" result="hardAlpha"/>
<feOffset dx="-1.8" dy="2.7"/>
<feGaussianBlur stdDeviation="3.6"/>
<feComposite in2="hardAlpha" operator="out"/>
<feColorMatrix type="matrix" values="0 0 0 0 0 0 0 0 0 0 0 0 0 0 0 0 0 0 0.1 0"/>
<feBlend mode="normal" in2="BackgroundImageFix" result="effect1_dropShadow_78_32"/>
<feBlend mode="normal" in="SourceGraphic" in2="effect1_dropShadow_78_32" result="shape"/>
</filter>
<filter id="filter6_d_78_32" x="246.519" y="453.532" width="128.162" height="110.013" filterUnits="userSpaceOnUse" color-interpolation-filters="sRGB">
<feFlood flood-opacity="0" result="BackgroundImageFix"/>
<feColorMatrix in="SourceAlpha" type="matrix" values="0 0 0 0 0 0 0 0 0 0 0 0 0 0 0 0 0 0 127 0" result="hardAlpha"/>
<feOffset dx="-1.8" dy="2.7"/>
<feGaussianBlur stdDeviation="3.6"/>
<feComposite in2="hardAlpha" operator="out"/>
<feColorMatrix type="matrix" values="0 0 0 0 0 0 0 0 0 0 0 0 0 0 0 0 0 0 0.1 0"/>
<feBlend mode="normal" in2="BackgroundImageFix" result="effect1_dropShadow_78_32"/>
<feBlend mode="normal" in="SourceGraphic" in2="effect1_dropShadow_78_32" result="shape"/>
</filter>
<filter id="filter7_d_78_32" x="216.34" y="224.565" width="308.624" height="161.594" filterUnits="userSpaceOnUse" color-interpolation-filters="sRGB">
<feFlood flood-opacity="0" result="BackgroundImageFix"/>
<feColorMatrix in="SourceAlpha" type="matrix" values="0 0 0 0 0 0 0 0 0 0 0 0 0 0 0 0 0 0 127 0" result="hardAlpha"/>
<feOffset dx="-1.8" dy="2.7"/>
<feGaussianBlur stdDeviation="3.6"/>
<feComposite in2="hardAlpha" operator="out"/>
<feColorMatrix type="matrix" values="0 0 0 0 0 0 0 0 0 0 0 0 0 0 0 0 0 0 0.1 0"/>
<feBlend mode="normal" in2="BackgroundImageFix" result="effect1_dropShadow_78_32"/>
<feBlend mode="normal" in="SourceGraphic" in2="effect1_dropShadow_78_32" result="shape"/>
</filter>
<filter id="filter8_d_78_32" x="292.643" y="570.532" width="246.599" height="68.4968" filterUnits="userSpaceOnUse" color-interpolation-filters="sRGB">
<feFlood flood-opacity="0" result="BackgroundImageFix"/>
<feColorMatrix in="SourceAlpha" type="matrix" values="0 0 0 0 0 0 0 0 0 0 0 0 0 0 0 0 0 0 127 0" result="hardAlpha"/>
<feOffset dx="-1.8" dy="2.7"/>
<feGaussianBlur stdDeviation="3.6"/>
<feComposite in2="hardAlpha" operator="out"/>
<feColorMatrix type="matrix" values="0 0 0 0 0 0 0 0 0 0 0 0 0 0 0 0 0 0 0.1 0"/>
<feBlend mode="normal" in2="BackgroundImageFix" result="effect1_dropShadow_78_32"/>
<feBlend mode="normal" in="SourceGraphic" in2="effect1_dropShadow_78_32" result="shape"/>
</filter>
<filter id="filter9_d_78_32" x="288.381" y="642.242" width="241.284" height="24.4645" filterUnits="userSpaceOnUse" color-interpolation-filters="sRGB">
<feFlood flood-opacity="0" result="BackgroundImageFix"/>
<feColorMatrix in="SourceAlpha" type="matrix" values="0 0 0 0 0 0 0 0 0 0 0 0 0 0 0 0 0 0 127 0" result="hardAlpha"/>
<feOffset dx="-1.8" dy="2.7"/>
<feGaussianBlur stdDeviation="3.6"/>
<feComposite in2="hardAlpha" operator="out"/>
<feColorMatrix type="matrix" values="0 0 0 0 0 0 0 0 0 0 0 0 0 0 0 0 0 0 0.1 0"/>
<feBlend mode="normal" in2="BackgroundImageFix" result="effect1_dropShadow_78_32"/>
<feBlend mode="normal" in="SourceGraphic" in2="effect1_dropShadow_78_32" result="shape"/>
</filter>
<filter id="filter10_d_78_32" x="284.607" y="661.113" width="241.284" height="24.4645" filterUnits="userSpaceOnUse" color-interpolation-filters="sRGB">
<feFlood flood-opacity="0" result="BackgroundImageFix"/>
<feColorMatrix in="SourceAlpha" type="matrix" values="0 0 0 0 0 0 0 0 0 0 0 0 0 0 0 0 0 0 127 0" result="hardAlpha"/>
<feOffset dx="-1.8" dy="2.7"/>
<feGaussianBlur stdDeviation="3.6"/>
<feComposite in2="hardAlpha" operator="out"/>
<feColorMatrix type="matrix" values="0 0 0 0 0 0 0 0 0 0 0 0 0 0 0 0 0 0 0.1 0"/>
<feBlend mode="normal" in2="BackgroundImageFix" result="effect1_dropShadow_78_32"/>
<feBlend mode="normal" in="SourceGraphic" in2="effect1_dropShadow_78_32" result="shape"/>
</filter>
<filter id="filter11_d_78_32" x="280.833" y="679.984" width="140.638" height="24.4646" filterUnits="userSpaceOnUse" color-interpolation-filters="sRGB">
<feFlood flood-opacity="0" result="BackgroundImageFix"/>
<feColorMatrix in="SourceAlpha" type="matrix" values="0 0 0 0 0 0 0 0 0 0 0 0 0 0 0 0 0 0 127 0" result="hardAlpha"/>
<feOffset dx="-1.8" dy="2.7"/>
<feGaussianBlur stdDeviation="3.6"/>
<feComposite in2="hardAlpha" operator="out"/>
<feColorMatrix type="matrix" values="0 0 0 0 0 0 0 0 0 0 0 0 0 0 0 0 0 0 0.1 0"/>
<feBlend mode="normal" in2="BackgroundImageFix" result="effect1_dropShadow_78_32"/>
<feBlend mode="normal" in="SourceGraphic" in2="effect1_dropShadow_78_32" result="shape"/>
</filter>
<filter id="filter12_d_78_32" x="241.833" y="298.79" width="253.864" height="24.4645" filterUnits="userSpaceOnUse" color-interpolation-filters="sRGB">
<feFlood flood-opacity="0" result="BackgroundImageFix"/>
<feColorMatrix in="SourceAlpha" type="matrix" values="0 0 0 0 0 0 0 0 0 0 0 0 0 0 0 0 0 0 127 0" result="hardAlpha"/>
<feOffset dx="-1.8" dy="2.7"/>
<feGaussianBlur stdDeviation="3.6"/>
<feComposite in2="hardAlpha" operator="out"/>
<feColorMatrix type="matrix" values="0 0 0 0 0 0 0 0 0 0 0 0 0 0 0 0 0 0 0.1 0"/>
<feBlend mode="normal" in2="BackgroundImageFix" result="effect1_dropShadow_78_32"/>
<feBlend mode="normal" in="SourceGraphic" in2="effect1_dropShadow_78_32" result="shape"/>
</filter>
<filter id="filter13_d_78_32" x="298.445" y="277.403" width="203.542" height="24.4645" filterUnits="userSpaceOnUse" color-interpolation-filters="sRGB">
<feFlood flood-opacity="0" result="BackgroundImageFix"/>
<feColorMatrix in="SourceAlpha" type="matrix" values="0 0 0 0 0 0 0 0 0 0 0 0 0 0 0 0 0 0 127 0" result="hardAlpha"/>
<feOffset dx="-1.8" dy="2.7"/>
<feGaussianBlur stdDeviation="3.6"/>
<feComposite in2="hardAlpha" operator="out"/>
<feColorMatrix type="matrix" values="0 0 0 0 0 0 0 0 0 0 0 0 0 0 0 0 0 0 0.1 0"/>
<feBlend mode="normal" in2="BackgroundImageFix" result="effect1_dropShadow_78_32"/>
<feBlend mode="normal" in="SourceGraphic" in2="effect1_dropShadow_78_32" result="shape"/>
</filter>
<filter id="filter14_d_78_32" x="303.478" y="257.274" width="102.897" height="24.4645" filterUnits="userSpaceOnUse" color-interpolation-filters="sRGB">
<feFlood flood-opacity="0" result="BackgroundImageFix"/>
<feColorMatrix in="SourceAlpha" type="matrix" values="0 0 0 0 0 0 0 0 0 0 0 0 0 0 0 0 0 0 127 0" result="hardAlpha"/>
<feOffset dx="-1.8" dy="2.7"/>
<feGaussianBlur stdDeviation="3.6"/>
<feComposite in2="hardAlpha" operator="out"/>
<feColorMatrix type="matrix" values="0 0 0 0 0 0 0 0 0 0 0 0 0 0 0 0 0 0 0.1 0"/>
<feBlend mode="normal" in2="BackgroundImageFix" result="effect1_dropShadow_78_32"/>
<feBlend mode="normal" in="SourceGraphic" in2="effect1_dropShadow_78_32" result="shape"/>
</filter>
<filter id="filter15_d_78_32" x="238.058" y="317.661" width="253.864" height="24.4645" filterUnits="userSpaceOnUse" color-interpolation-filters="sRGB">
<feFlood flood-opacity="0" result="BackgroundImageFix"/>
<feColorMatrix in="SourceAlpha" type="matrix" values="0 0 0 0 0 0 0 0 0 0 0 0 0 0 0 0 0 0 127 0" result="hardAlpha"/>
<feOffset dx="-1.8" dy="2.7"/>
<feGaussianBlur stdDeviation="3.6"/>
<feComposite in2="hardAlpha" operator="out"/>
<feColorMatrix type="matrix" values="0 0 0 0 0 0 0 0 0 0 0 0 0 0 0 0 0 0 0.1 0"/>
<feBlend mode="normal" in2="BackgroundImageFix" result="effect1_dropShadow_78_32"/>
<feBlend mode="normal" in="SourceGraphic" in2="effect1_dropShadow_78_32" result="shape"/>
</filter>
<filter id="filter16_d_78_32" x="384.333" y="492.532" width="237.509" height="24.4645" filterUnits="userSpaceOnUse" color-interpolation-filters="sRGB">
<feFlood flood-opacity="0" result="BackgroundImageFix"/>
<feColorMatrix in="SourceAlpha" type="matrix" values="0 0 0 0 0 0 0 0 0 0 0 0 0 0 0 0 0 0 127 0" result="hardAlpha"/>
<feOffset dx="-1.8" dy="2.7"/>
<feGaussianBlur stdDeviation="3.6"/>
<feComposite in2="hardAlpha" operator="out"/>
<feColorMatrix type="matrix" values="0 0 0 0 0 0 0 0 0 0 0 0 0 0 0 0 0 0 0.1 0"/>
<feBlend mode="normal" in2="BackgroundImageFix" result="effect1_dropShadow_78_32"/>
<feBlend mode="normal" in="SourceGraphic" in2="effect1_dropShadow_78_32" result="shape"/>
</filter>
<filter id="filter17_d_78_32" x="380.559" y="511.403" width="174.606" height="24.4645" filterUnits="userSpaceOnUse" color-interpolation-filters="sRGB">
<feFlood flood-opacity="0" result="BackgroundImageFix"/>
<feColorMatrix in="SourceAlpha" type="matrix" values="0 0 0 0 0 0 0 0 0 0 0 0 0 0 0 0 0 0 127 0" result="hardAlpha"/>
<feOffset dx="-1.8" dy="2.7"/>
<feGaussianBlur stdDeviation="3.6"/>
<feComposite in2="hardAlpha" operator="out"/>
<feColorMatrix type="matrix" values="0 0 0 0 0 0 0 0 0 0 0 0 0 0 0 0 0 0 0.1 0"/>
<feBlend mode="normal" in2="BackgroundImageFix" result="effect1_dropShadow_78_32"/>
<feBlend mode="normal" in="SourceGraphic" in2="effect1_dropShadow_78_32" result="shape"/>
</filter>
<filter id="filter18_d_78_32" x="234.284" y="336.532" width="153.219" height="24.4645" filterUnits="userSpaceOnUse" color-interpolation-filters="sRGB">
<feFlood flood-opacity="0" result="BackgroundImageFix"/>
<feColorMatrix in="SourceAlpha" type="matrix" values="0 0 0 0 0 0 0 0 0 0 0 0 0 0 0 0 0 0 127 0" result="hardAlpha"/>
<feOffset dx="-1.8" dy="2.7"/>
<feGaussianBlur stdDeviation="3.6"/>
<feComposite in2="hardAlpha" operator="out"/>
<feColorMatrix type="matrix" values="0 0 0 0 0 0 0 0 0 0 0 0 0 0 0 0 0 0 0.1 0"/>
<feBlend mode="normal" in2="BackgroundImageFix" result="effect1_dropShadow_78_32"/>
<feBlend mode="normal" in="SourceGraphic" in2="effect1_dropShadow_78_32" result="shape"/>
</filter>
<filter id="filter19_d_78_32" x="310.844" y="389.371" width="68.4215" height="67.2387" filterUnits="userSpaceOnUse" color-interpolation-filters="sRGB">
<feFlood flood-opacity="0" result="BackgroundImageFix"/>
<feColorMatrix in="SourceAlpha" type="matrix" values="0 0 0 0 0 0 0 0 0 0 0 0 0 0 0 0 0 0 127 0" result="hardAlpha"/>
<feOffset dx="-1.8" dy="2.7"/>
<feGaussianBlur stdDeviation="3.6"/>
<feComposite in2="hardAlpha" operator="out"/>
<feColorMatrix type="matrix" values="0 0 0 0 0 0 0 0 0 0 0 0 0 0 0 0 0 0 0.1 0"/>
<feBlend mode="normal" in2="BackgroundImageFix" result="effect1_dropShadow_78_32"/>
<feBlend mode="normal" in="SourceGraphic" in2="effect1_dropShadow_78_32" result="shape"/>
</filter>
<filter id="filter20_d_78_32" x="511.795" y="318.919" width="68.4215" height="67.2387" filterUnits="userSpaceOnUse" color-interpolation-filters="sRGB">
<feFlood flood-opacity="0" result="BackgroundImageFix"/>
<feColorMatrix in="SourceAlpha" type="matrix" values="0 0 0 0 0 0 0 0 0 0 0 0 0 0 0 0 0 0 127 0" result="hardAlpha"/>
<feOffset dx="-1.8" dy="2.7"/>
<feGaussianBlur stdDeviation="3.6"/>
<feComposite in2="hardAlpha" operator="out"/>
<feColorMatrix type="matrix" values="0 0 0 0 0 0 0 0 0 0 0 0 0 0 0 0 0 0 0.1 0"/>
<feBlend mode="normal" in2="BackgroundImageFix" result="effect1_dropShadow_78_32"/>
<feBlend mode="normal" in="SourceGraphic" in2="effect1_dropShadow_78_32" result="shape"/>
</filter>
<filter id="filter21_d_78_32" x="323.313" y="402.09" width="41.9713" height="40.4442" filterUnits="userSpaceOnUse" color-interpolation-filters="sRGB">
<feFlood flood-opacity="0" result="BackgroundImageFix"/>
<feColorMatrix in="SourceAlpha" type="matrix" values="0 0 0 0 0 0 0 0 0 0 0 0 0 0 0 0 0 0 127 0" result="hardAlpha"/>
<feOffset dx="-1.8" dy="2.7"/>
<feGaussianBlur stdDeviation="3.6"/>
<feComposite in2="hardAlpha" operator="out"/>
<feColorMatrix type="matrix" values="0 0 0 0 0 0 0 0 0 0 0 0 0 0 0 0 0 0 0.1 0"/>
<feBlend mode="normal" in2="BackgroundImageFix" result="effect1_dropShadow_78_32"/>
<feBlend mode="normal" in="SourceGraphic" in2="effect1_dropShadow_78_32" result="shape"/>
</filter>
<filter id="filter22_d_78_32" x="524.392" y="336.44" width="43.5196" height="34.6313" filterUnits="userSpaceOnUse" color-interpolation-filters="sRGB">
<feFlood flood-opacity="0" result="BackgroundImageFix"/>
<feColorMatrix in="SourceAlpha" type="matrix" values="0 0 0 0 0 0 0 0 0 0 0 0 0 0 0 0 0 0 127 0" result="hardAlpha"/>
<feOffset dx="-1.8" dy="2.7"/>
<feGaussianBlur stdDeviation="3.6"/>
<feComposite in2="hardAlpha" operator="out"/>
<feColorMatrix type="matrix" values="0 0 0 0 0 0 0 0 0 0 0 0 0 0 0 0 0 0 0.1 0"/>
<feBlend mode="normal" in2="BackgroundImageFix" result="effect1_dropShadow_78_32"/>
<feBlend mode="normal" in="SourceGraphic" in2="effect1_dropShadow_78_32" result="shape"/>
</filter>
<filter id="filter23_d_78_32" x="248.433" y="239.661" width="57.9176" height="61.6235" filterUnits="userSpaceOnUse" color-interpolation-filters="sRGB">
<feFlood flood-opacity="0" result="BackgroundImageFix"/>
<feColorMatrix in="SourceAlpha" type="matrix" values="0 0 0 0 0 0 0 0 0 0 0 0 0 0 0 0 0 0 127 0" result="hardAlpha"/>
<feOffset dx="-1.8" dy="2.7"/>
<feGaussianBlur stdDeviation="3.6"/>
<feComposite in2="hardAlpha" operator="out"/>
<feColorMatrix type="matrix" values="0 0 0 0 0 0 0 0 0 0 0 0 0 0 0 0 0 0 0.1 0"/>
<feBlend mode="normal" in2="BackgroundImageFix" result="effect1_dropShadow_78_32"/>
<feBlend mode="normal" in="SourceGraphic" in2="effect1_dropShadow_78_32" result="shape"/>
</filter>
<filter id="filter24_d_78_32" x="278.548" y="474.4" width="64.7354" height="68.9942" filterUnits="userSpaceOnUse" color-interpolation-filters="sRGB">
<feFlood flood-opacity="0" result="BackgroundImageFix"/>
<feColorMatrix in="SourceAlpha" type="matrix" values="0 0 0 0 0 0 0 0 0 0 0 0 0 0 0 0 0 0 127 0" result="hardAlpha"/>
<feOffset dx="-1.8" dy="2.7"/>
<feGaussianBlur stdDeviation="3.6"/>
<feComposite in2="hardAlpha" operator="out"/>
<feColorMatrix type="matrix" values="0 0 0 0 0 0 0 0 0 0 0 0 0 0 0 0 0 0 0.1 0"/>
<feBlend mode="normal" in2="BackgroundImageFix" result="effect1_dropShadow_78_32"/>
<feBlend mode="normal" in="SourceGraphic" in2="effect1_dropShadow_78_32" result="shape"/>
</filter>
<filter id="filter25_d_78_32" x="548.941" y="234.137" width="60.2447" height="78.1645" filterUnits="userSpaceOnUse" color-interpolation-filters="sRGB">
<feFlood flood-opacity="0" result="BackgroundImageFix"/>
<feColorMatrix in="SourceAlpha" type="matrix" values="0 0 0 0 0 0 0 0 0 0 0 0 0 0 0 0 0 0 127 0" result="hardAlpha"/>
<feOffset dx="-1.8" dy="2.7"/>
<feGaussianBlur stdDeviation="3.6"/>
<feComposite in2="hardAlpha" operator="out"/>
<feColorMatrix type="matrix" values="0 0 0 0 0 0 0 0 0 0 0 0 0 0 0 0 0 0 0.1 0"/>
<feBlend mode="normal" in2="BackgroundImageFix" result="effect1_dropShadow_78_32"/>
<feBlend mode="normal" in="SourceGraphic" in2="effect1_dropShadow_78_32" result="shape"/>
</filter>
</defs>
</svg>
