<svg width="172" height="194" viewBox="0 0 172 194" fill="none" xmlns="http://www.w3.org/2000/svg">
<g filter="url(#filter0_i_908_218)">
<path fill-rule="evenodd" clip-rule="evenodd" d="M126.713 30.2543C114.563 23.6447 100.624 19.8877 85.8042 19.8877C74.9411 19.8877 64.5515 21.9062 54.9931 25.5871L57.1737 37.2113C57.5206 39.0603 56.1021 40.7695 54.2209 40.7695C51.1912 40.7695 50.0664 44.7457 52.6472 46.3329L56.8752 48.933C59.1611 50.3389 59.6712 53.4438 57.9552 55.5071L53.1469 61.2882C49.846 65.2571 44.2177 66.3743 39.6511 63.9671L32.8069 60.3593C30.8674 59.3369 28.7746 58.6365 26.6103 58.2855L15.5736 56.4953C5.98292 70.2473 0.361816 86.9509 0.361816 104.962C0.361816 113.099 1.50922 120.97 3.65174 128.422L15.1196 121.601C18.6602 119.496 21.4739 116.359 23.1846 112.612L24.9833 108.672C27.1293 103.971 30.9921 100.27 35.7798 98.3257L47.1043 93.7279C52.1493 91.6795 57.807 91.7507 62.799 93.9253L69.4071 96.8039C79.0238 100.993 82.2971 113.004 76.1355 121.493L73.2193 125.511C69.2361 130.999 61.4477 131.986 56.2211 127.666C53.6289 125.523 50.2429 124.594 46.9201 125.113L35.5032 126.896C30.6743 127.65 27.9788 132.889 30.1721 137.256C31.8939 140.685 30.6291 144.862 27.2941 146.759L15.5736 153.428C20.9672 161.162 27.6162 167.962 35.227 173.537H38.8982C41.9399 173.537 44.8885 172.488 47.2467 170.566C50.3444 168.043 54.4174 167.056 58.3267 167.882L90.1842 174.61C93.0735 175.22 96.0663 174.214 98.0004 171.983L100.353 169.269C104.284 164.733 100.695 157.718 94.7158 158.253C91.0707 158.579 87.843 155.908 87.4813 152.267L87.0604 148.03C86.4688 142.073 92.221 137.483 97.9098 139.345C101.801 140.619 106.053 138.845 107.868 135.175C110.448 129.959 117.476 128.991 121.37 133.315L123.678 135.879C125.616 138.031 126.587 140.883 126.364 143.771L126.069 147.585C125.382 156.48 130.82 164.707 139.273 167.56L142.467 168.638C160.12 153.053 171.246 130.301 171.246 104.962C171.246 97.2921 170.227 89.8595 168.316 82.7909C166.704 82.1894 162.081 81.3473 156.488 82.7909C153.912 83.4561 151.757 85.6973 149.415 88.1332C145.403 92.3063 140.842 97.0509 132.668 95.4231C119.722 92.8451 115.838 89.7515 115.062 77.3771C114.733 72.139 108.837 71.1045 102.715 70.0305C94.3752 68.5672 85.6166 67.0305 89.9468 54.6907C95.9537 37.5728 116.96 31.2673 126.713 30.2543ZM140.319 140.304C136.624 141.039 133.963 144.283 133.963 148.051V148.731C133.963 151.565 135.696 154.111 138.332 155.15C140.85 156.142 143.716 155.571 145.66 153.689L148.144 151.285C150.864 148.653 150.857 144.29 148.128 141.667C146.553 140.152 144.336 139.504 142.193 139.93L140.319 140.304Z" fill="#755CFF"/>
<path d="M85.8042 190.036C107.544 190.036 127.387 181.952 142.467 168.638L139.273 167.56C130.82 164.707 125.382 156.48 126.069 147.585L126.364 143.771C126.587 140.883 125.616 138.031 123.678 135.879L121.37 133.315C117.476 128.991 110.448 129.959 107.868 135.175C106.053 138.845 101.801 140.619 97.9098 139.345C92.221 137.483 86.4688 142.073 87.0604 148.03L87.4813 152.267C87.843 155.908 91.0707 158.579 94.7158 158.253C100.695 157.718 104.284 164.733 100.353 169.269L98.0004 171.983C96.0663 174.214 93.0735 175.22 90.1842 174.61L58.3267 167.882C54.4174 167.056 50.3444 168.043 47.2467 170.566C44.8885 172.488 41.9399 173.537 38.8982 173.537H35.227C49.3874 183.908 66.8771 190.036 85.8042 190.036Z" fill="#6FA367"/>
<path d="M15.5736 153.428L27.2941 146.759C30.6291 144.862 31.8939 140.685 30.1721 137.256C27.9788 132.889 30.6743 127.65 35.5032 126.896L46.9201 125.113C50.2429 124.594 53.6289 125.523 56.2211 127.666C61.4477 131.986 69.2361 130.999 73.2193 125.511L76.1355 121.493C82.2971 113.004 79.0238 100.993 69.4071 96.8039L62.799 93.9253C57.807 91.7507 52.1493 91.6795 47.1043 93.7279L35.7798 98.3257C30.9921 100.27 27.1293 103.971 24.9833 108.672L23.1846 112.612C21.4739 116.359 18.6602 119.496 15.1196 121.601L3.65174 128.422C6.25137 137.464 10.316 145.889 15.5736 153.428Z" fill="#6FA367"/>
<path d="M138.332 155.15C135.696 154.111 133.963 151.565 133.963 148.731V148.051C133.963 144.283 136.624 141.039 140.319 140.304L142.193 139.93C144.336 139.504 146.553 140.152 148.128 141.667C150.857 144.29 150.864 148.653 148.144 151.285L145.66 153.689C143.716 155.571 140.85 156.142 138.332 155.15Z" fill="#6FA367"/>
<path d="M126.713 30.2543C116.96 31.2673 95.9537 37.5728 89.9468 54.6907C85.6166 67.0305 94.3752 68.5672 102.715 70.0305C108.837 71.1045 114.733 72.139 115.062 77.3771C115.838 89.7515 119.722 92.8451 132.668 95.4231C140.842 97.0509 145.403 92.3063 149.415 88.1332C151.757 85.6973 153.912 83.4561 156.488 82.7909C162.081 81.3473 166.704 82.1894 168.316 82.7909C162.197 60.1566 146.933 41.2547 126.713 30.2543Z" fill="#6FA367"/>
<path d="M54.2209 40.7695C56.1021 40.7695 57.5206 39.0603 57.1737 37.2113L54.9931 25.5871C38.9467 31.7665 25.2428 42.6309 15.5736 56.4953L26.6103 58.2855C28.7746 58.6365 30.8674 59.3369 32.8069 60.3593L39.6511 63.9671C44.2177 66.3743 49.846 65.2571 53.1469 61.2882L57.9552 55.5071C59.6712 53.4438 59.1611 50.3389 56.8752 48.933L52.6472 46.3329C50.0664 44.7457 51.1912 40.7695 54.2209 40.7695Z" fill="#6FA367"/>
<path d="M11.3271 13.2205C11.3271 7.14532 16.252 2.22046 22.3271 2.22046H88.3366C94.4118 2.22046 99.3366 7.14533 99.3366 13.2205V180.779C99.3366 186.855 94.4118 191.779 88.3366 191.779H22.3271C16.252 191.779 11.3271 186.855 11.3271 180.779V13.2205Z" fill="#5685FF" fill-opacity="0.3"/>
<path fill-rule="evenodd" clip-rule="evenodd" d="M9.29909 12.389C9.29909 5.54673 14.7836 0 21.549 0H88.645C95.4104 0 100.895 5.54673 100.895 12.389V52.09V75.3193V181.329C100.895 188.172 95.4104 193.718 88.645 193.718H21.549C14.7835 193.718 9.29909 188.172 9.29909 181.329V79.2612V64.0566V61.5225V47.1625V43.6429V34.3512V12.389ZM87.8098 190.34C93.1913 190.34 97.554 185.927 97.554 180.485V13.3745C97.554 7.93176 93.1913 3.51959 87.8098 3.51959H73.6958C72.927 3.51959 72.3038 4.1499 72.3038 4.92743V6.4349C72.3038 8.30096 70.808 9.81371 68.9629 9.81371H41.0918C39.2467 9.81371 37.7509 8.30096 37.7509 6.4349V4.92743C37.7509 4.1499 37.1277 3.51959 36.3589 3.51959H22.245C16.8634 3.51959 12.5008 7.93177 12.5008 13.3745V180.485C12.5008 185.927 16.8634 190.34 22.245 190.34H87.8098Z" fill="#A4A4A4"/>
<path d="M8.46387 41.2889C8.46387 41.726 8.5645 42.1571 8.75779 42.5481L9.29909 43.6429V34.3512L8.75779 35.4461C8.5645 35.8371 8.46387 36.2682 8.46387 36.7053V41.2889Z" fill="#8E8E8E"/>
<path d="M8.46387 59.1684C8.46387 59.6055 8.5645 60.0366 8.75779 60.4276L9.29909 61.5225V47.1625L8.75779 48.2574C8.5645 48.6484 8.46387 49.0795 8.46387 49.5166V59.1684Z" fill="#8E8E8E"/>
<path d="M8.46387 76.9071C8.46387 77.3442 8.5645 77.7754 8.75779 78.1663L9.29909 79.2612V64.0566L8.75779 65.1515C8.5645 65.5424 8.46387 65.9736 8.46387 66.4107V76.9071Z" fill="#8E8E8E"/>
<path d="M100.895 75.3193L101.642 73.9975C101.882 73.5721 102.008 73.0906 102.008 72.6006V54.3825C102.008 53.6358 101.715 52.9196 101.193 52.3915L100.895 52.09V75.3193Z" fill="#8E8E8E"/>
</g>
<defs>
<filter id="filter0_i_908_218" x="0.361816" y="0" width="170.885" height="193.718" filterUnits="userSpaceOnUse" color-interpolation-filters="sRGB">
<feFlood flood-opacity="0" result="BackgroundImageFix"/>
<feBlend mode="normal" in="SourceGraphic" in2="BackgroundImageFix" result="shape"/>
<feColorMatrix in="SourceAlpha" type="matrix" values="0 0 0 0 0 0 0 0 0 0 0 0 0 0 0 0 0 0 127 0" result="hardAlpha"/>
<feOffset/>
<feGaussianBlur stdDeviation="34.5"/>
<feComposite in2="hardAlpha" operator="arithmetic" k2="-1" k3="1"/>
<feColorMatrix type="matrix" values="0 0 0 0 0 0 0 0 0 0 0 0 0 0 0 0 0 0 0.25 0"/>
<feBlend mode="normal" in2="shape" result="effect1_innerShadow_908_218"/>
</filter>
</defs>
</svg>
