<svg width="3361" height="437" viewBox="0 0 3361 437" fill="none" xmlns="http://www.w3.org/2000/svg">
<path fill-rule="evenodd" clip-rule="evenodd" d="M0.0390625 342.251V39.9505H128.452C146.349 39.9505 162.542 44.2818 177.004 52.957C191.74 61.3383 203.305 72.9038 211.686 87.6399C220.361 102.39 224.69 119.011 224.69 137.476C224.69 156.223 220.362 173.127 211.69 188.161C203.312 203.182 191.751 215.176 177.019 224.13L177.015 224.133C162.549 232.812 146.353 237.146 128.452 237.146H66.3891V342.251H0.0390625ZM65.3891 236.146H128.452C146.184 236.146 162.2 231.856 176.5 223.276C191.086 214.41 202.526 202.541 210.82 187.669C219.4 172.797 223.69 156.066 223.69 137.476C223.69 119.172 219.4 102.727 210.82 88.1405C202.526 73.5545 191.086 62.1145 176.5 53.8205C162.2 45.2405 146.184 40.9505 128.452 40.9505H1.03906V341.251H65.3891V236.146ZM151.599 158.016L151.608 158C154.944 152.162 156.624 145.473 156.624 137.905C156.624 130.335 154.943 123.797 151.619 118.256L151.604 118.231L151.59 118.206C148.525 112.353 144.362 107.923 139.105 104.879L139.088 104.869L139.072 104.859C133.809 101.535 127.847 99.8655 121.159 99.8655H65.5311V177.231H121.159C127.841 177.231 133.797 175.564 139.057 172.247C144.344 168.625 148.521 163.892 151.59 158.033L151.599 158.016ZM139.606 173.083C134.172 176.515 128.023 178.231 121.159 178.231H64.5311V98.8655H121.159C128.023 98.8655 134.172 100.582 139.606 104.014C145.04 107.16 149.33 111.736 152.476 117.742C155.908 123.462 157.624 130.183 157.624 137.905C157.624 145.627 155.908 152.491 152.476 158.497C149.33 164.503 145.04 169.365 139.606 173.083ZM311.385 331.398L311.377 331.394C293.21 321.013 278.785 306.877 268.114 288.996L268.108 288.986C257.714 271.084 252.529 250.601 252.529 227.566C252.529 204.53 257.714 184.187 268.112 166.568L268.114 166.564C278.785 148.683 293.21 134.547 311.377 124.166L311.383 124.163C329.851 113.774 350.758 108.591 374.078 108.591C397.112 108.591 417.734 113.774 435.917 124.164C454.37 134.544 468.8 148.682 479.187 166.57C489.585 184.189 494.769 204.531 494.769 227.566C494.769 250.601 489.584 271.084 479.19 288.986C468.802 306.876 454.371 321.016 435.915 331.397L435.911 331.4C417.728 341.501 397.109 346.541 374.078 346.541C350.763 346.541 329.86 341.502 311.393 331.403L311.385 331.398ZM478.325 167.077C468.029 149.345 453.729 135.331 435.425 125.035C417.407 114.739 396.958 109.591 374.078 109.591C350.912 109.591 330.177 114.739 311.873 125.035C293.855 135.331 279.555 149.345 268.973 167.077C258.677 184.523 253.529 204.686 253.529 227.566C253.529 250.446 258.677 270.752 268.973 288.484C279.555 306.216 293.855 320.23 311.873 330.526C330.177 340.536 350.912 345.541 374.078 345.541C396.958 345.541 417.407 340.536 435.425 330.526C453.729 320.23 468.029 306.216 478.325 288.484C488.621 270.752 493.769 250.446 493.769 227.566C493.769 204.686 488.621 184.523 478.325 167.077ZM423.806 260.58L423.811 260.57C428.879 250.714 431.422 239.719 431.422 227.566C431.422 215.121 428.878 204.132 423.816 194.571L423.808 194.556L423.801 194.54C419.016 184.69 412.277 177.117 403.585 171.79L403.576 171.784L403.566 171.778C394.871 166.168 385.051 163.358 374.078 163.358C362.813 163.358 352.852 166.171 344.161 171.778C335.445 177.401 328.553 184.992 323.482 194.571C318.425 204.124 316.022 215.105 316.305 227.543L316.305 227.566L316.305 227.589C316.022 239.734 318.422 250.718 323.485 260.565C328.554 270.138 335.442 277.726 344.151 283.347C352.842 288.671 362.808 291.345 374.078 291.345C385.057 291.345 394.881 288.674 403.575 283.347C412.282 277.728 419.023 270.146 423.806 260.58ZM404.108 284.194C395.242 289.628 385.232 292.345 374.078 292.345C362.638 292.345 352.485 289.628 343.619 284.194C334.753 278.474 327.746 270.752 322.598 261.028C317.45 251.018 315.019 239.864 315.305 227.566C315.019 214.982 317.45 203.828 322.598 194.104C327.746 184.38 334.753 176.658 343.619 170.938C352.485 165.218 362.638 162.358 374.078 162.358C385.232 162.358 395.242 165.218 404.108 170.938C412.974 176.372 419.838 184.094 424.7 194.104C429.848 203.828 432.422 214.982 432.422 227.566C432.422 239.864 429.848 251.018 424.7 261.028C419.838 270.752 412.974 278.474 404.108 284.194ZM538.602 436.631V113.31H599.342L600.18 138.266C601.02 137.327 601.898 136.399 602.816 135.481L602.822 135.475L602.828 135.469C610.938 127.649 620.915 121.292 632.741 116.389C644.59 111.476 657.018 109.02 670.018 109.02C689.932 109.02 707.574 114.217 722.909 124.631C738.507 134.743 750.773 148.749 759.71 166.619C768.946 184.229 773.549 204.553 773.549 227.566C773.549 250.293 769.089 270.613 760.144 288.502C751.206 306.378 738.938 320.529 723.339 330.929L723.329 330.936C707.711 341.058 689.93 346.112 670.018 346.112C656.735 346.112 644.023 343.656 631.89 338.745L631.877 338.74L631.864 338.734C620.231 333.627 610.255 326.978 601.949 318.78V436.631H538.602ZM600.949 316.337C601.277 316.682 601.61 317.025 601.949 317.367C602.044 317.463 602.14 317.559 602.236 317.656C610.53 325.95 620.54 332.671 632.266 337.819C644.278 342.681 656.862 345.112 670.018 345.112C689.752 345.112 707.341 340.107 722.785 330.097C738.229 319.801 750.384 305.787 759.25 288.055C768.116 270.323 772.549 250.16 772.549 227.566C772.549 204.686 767.973 184.523 758.821 167.077C749.955 149.345 737.8 135.474 722.356 125.464C707.198 115.168 689.752 110.02 670.018 110.02C657.148 110.02 644.85 112.451 633.124 117.313C621.398 122.175 611.531 128.467 603.523 136.189C602.36 137.351 601.262 138.53 600.229 139.725C599.902 140.103 599.581 140.484 599.267 140.865L598.375 114.31H539.602V435.631H600.949V316.337ZM685.349 171.778L685.343 171.774C677.235 166.462 667.566 163.787 656.29 163.787C645.014 163.787 635.195 166.462 626.795 171.782L626.784 171.789L626.774 171.795C618.379 176.832 611.783 184.256 606.996 194.111L606.991 194.122C602.21 203.684 599.804 214.822 599.804 227.566C599.804 240.307 602.21 251.593 606.995 261.446C611.781 271.016 618.382 278.449 626.795 283.778C635.195 289.098 645.014 291.774 656.29 291.774C667.273 291.774 676.951 289.1 685.356 283.778C693.769 278.449 700.369 271.016 705.155 261.446C709.941 251.593 712.347 240.307 712.347 227.566C712.347 214.822 709.94 203.684 705.159 194.122C700.373 184.549 693.771 177.112 685.356 171.782L685.349 171.778ZM706.054 261.886C701.192 271.61 694.471 279.189 685.891 284.623C677.311 290.057 667.444 292.774 656.29 292.774C644.85 292.774 634.84 290.057 626.26 284.623C617.68 279.189 610.959 271.61 606.097 261.886C601.235 251.876 598.804 240.436 598.804 227.566C598.804 214.696 601.235 203.399 606.097 193.675C610.959 183.665 617.68 176.086 626.26 170.938C634.84 165.504 644.85 162.787 656.29 162.787C667.73 162.787 677.597 165.504 685.891 170.938C694.471 176.372 701.192 183.951 706.054 193.675C710.916 203.399 713.347 214.696 713.347 227.566C713.347 240.436 710.916 251.876 706.054 261.886ZM853.274 335.668L853.262 335.66C841.368 328.117 832.096 317.533 825.443 303.938L825.437 303.927L825.432 303.915C819.066 290.026 815.903 273.432 815.903 254.164V113.31H878.821V244.297C878.821 254.48 880.518 263.343 883.88 270.912C887.24 278.188 891.98 283.75 898.092 287.64C904.191 291.521 911.716 293.49 920.721 293.49C927.188 293.49 933.218 292.507 938.817 290.55C944.414 288.309 949.152 285.237 953.047 281.341C956.956 277.433 960.031 272.823 962.271 267.503C964.503 262.2 965.624 256.47 965.624 250.303V113.31H1028.54V342.251H968.672L967.319 312.76C965.732 314.814 964.028 316.816 962.207 318.767C954.102 327.451 944.407 334.25 933.133 339.164C921.846 344.084 909.697 346.541 896.697 346.541C879.963 346.541 865.479 342.933 853.286 335.675L853.274 335.668ZM967.248 311.203C967.567 310.778 967.881 310.35 968.19 309.92L969.627 341.251H1027.54V114.31H966.624V250.303C966.624 256.595 965.48 262.458 963.192 267.892C960.904 273.326 957.758 278.045 953.754 282.049C949.75 286.053 944.888 289.199 939.168 291.487C933.448 293.489 927.299 294.49 920.721 294.49C911.569 294.49 903.847 292.488 897.555 288.484C891.263 284.48 886.401 278.76 882.969 271.324C879.537 263.602 877.821 254.593 877.821 244.297V114.31H816.903V254.164C816.903 273.326 820.049 289.771 826.341 303.499C832.919 316.941 842.071 327.38 853.797 334.816C865.809 341.966 880.109 345.541 896.697 345.541C909.567 345.541 921.579 343.11 932.733 338.248C943.887 333.386 953.468 326.665 961.476 318.085C963.554 315.858 965.478 313.564 967.248 311.203ZM1088.27 342.251V22.7905H1151.19V342.251H1088.27ZM1204.78 166.194L1204.79 166.189C1214.01 148.317 1226.42 134.31 1242.02 124.197C1257.64 113.788 1275.42 108.591 1295.34 108.591C1306.59 108.591 1316.85 110.32 1326.13 113.795C1335.66 116.975 1343.92 121.461 1350.88 127.263C1356.08 131.424 1360.68 136.037 1364.69 141.1V113.31H1427.18V342.251H1363.83V314.367C1359.49 319.417 1354.44 324.07 1348.7 328.326L1348.69 328.33C1341.17 333.824 1332.65 338.3 1323.13 341.761L1323.12 341.766L1323.11 341.77C1313.56 344.952 1303.44 346.541 1292.76 346.541C1273.69 346.541 1256.48 341.336 1241.15 330.924C1225.84 320.524 1213.72 306.374 1204.78 288.502C1195.83 270.611 1191.38 250.148 1191.38 227.137C1191.38 204.126 1195.83 183.803 1204.78 166.194ZM1363.83 312.82C1364.17 312.416 1364.5 312.009 1364.83 311.6V341.251H1426.18V114.31H1365.69V144.06C1365.36 143.613 1365.03 143.168 1364.69 142.728C1360.55 137.325 1355.74 132.429 1350.25 128.038C1343.38 122.318 1335.23 117.885 1325.79 114.739C1316.64 111.307 1306.49 109.591 1295.34 109.591C1275.6 109.591 1258.01 114.739 1242.57 125.035C1227.12 135.045 1214.83 148.916 1205.67 166.648C1196.81 184.094 1192.38 204.257 1192.38 227.137C1192.38 250.017 1196.81 270.323 1205.67 288.055C1214.54 305.787 1226.55 319.801 1241.71 330.097C1256.87 340.393 1273.89 345.541 1292.76 345.541C1303.34 345.541 1313.35 343.968 1322.79 340.822C1332.23 337.39 1340.67 332.957 1348.1 327.523C1354.13 323.057 1359.37 318.157 1363.83 312.82ZM1358.35 261.46L1358.36 261.449C1363.14 251.597 1365.55 240.169 1365.55 227.137C1365.55 214.393 1363.14 203.255 1358.36 193.693L1358.36 193.682L1358.35 193.671C1353.85 184.109 1347.4 176.68 1338.99 171.353L1338.98 171.347L1338.97 171.341C1330.57 165.742 1320.76 162.929 1309.49 162.929C1298.52 162.929 1288.85 165.739 1280.45 171.341L1280.44 171.345C1272.31 176.673 1265.84 184.111 1261.05 193.693C1256.27 203.255 1253.86 214.393 1253.86 227.137C1253.86 240.168 1256.27 251.596 1261.06 261.446C1265.84 271.021 1272.31 278.455 1280.43 283.781C1288.83 289.102 1298.51 291.774 1309.49 291.774C1320.77 291.774 1330.59 289.098 1338.99 283.778C1347.4 278.451 1353.85 271.022 1358.35 261.46ZM1279.89 284.623C1271.6 279.189 1265.02 271.61 1260.16 261.886C1255.3 251.876 1252.86 240.293 1252.86 227.137C1252.86 214.267 1255.3 202.97 1260.16 193.246C1265.02 183.522 1271.6 175.943 1279.89 170.509C1288.47 164.789 1298.34 161.929 1309.49 161.929C1320.93 161.929 1330.94 164.789 1339.52 170.509C1348.1 175.943 1354.68 183.522 1359.26 193.246C1364.12 202.97 1366.55 214.267 1366.55 227.137C1366.55 240.293 1364.12 251.876 1359.26 261.886C1354.68 271.61 1348.1 279.189 1339.52 284.623C1330.94 290.057 1320.93 292.774 1309.49 292.774C1298.34 292.774 1288.47 290.057 1279.89 284.623ZM1486.26 342.251V113.31H1547L1548.01 147.784C1549.8 145.056 1551.74 142.412 1553.83 139.851C1561.63 130.028 1570.74 122.359 1581.17 116.857L1581.18 116.852C1591.9 111.348 1603.06 108.591 1614.67 108.591C1619.59 108.591 1624.37 109.025 1629.01 109.895C1633.62 110.759 1637.54 111.772 1640.75 112.941L1641.59 113.247L1624.78 182.26L1623.66 181.699C1620.31 180.026 1616.24 178.619 1611.44 177.488L1611.41 177.482L1611.38 177.474C1606.61 176.071 1601.7 175.37 1596.65 175.37C1589.92 175.37 1583.62 176.632 1577.74 179.15L1577.73 179.154L1577.72 179.159C1572.14 181.392 1567.25 184.739 1563.06 189.21L1563.05 189.222L1563.04 189.234C1558.85 193.423 1555.49 198.457 1552.96 204.347C1550.73 210.222 1549.6 216.671 1549.6 223.705V342.251H1486.26ZM1552.03 203.971C1554.61 197.965 1558.04 192.817 1562.33 188.527C1566.62 183.951 1571.63 180.519 1577.35 178.231C1583.35 175.657 1589.79 174.37 1596.65 174.37C1601.8 174.37 1606.8 175.085 1611.67 176.515C1616.1 177.558 1619.94 178.84 1623.19 180.359C1623.5 180.505 1623.81 180.654 1624.11 180.805L1640.41 113.881C1637.26 112.737 1633.4 111.736 1628.83 110.878C1624.25 110.02 1619.53 109.591 1614.67 109.591C1603.23 109.591 1592.22 112.308 1581.64 117.742C1571.34 123.176 1562.33 130.755 1554.61 140.479C1552.22 143.394 1550.04 146.42 1548.07 149.554C1547.74 150.067 1547.42 150.584 1547.11 151.103L1546.03 114.31H1487.26V341.251H1548.6V223.705C1548.6 216.555 1549.75 209.977 1552.03 203.971ZM1089.27 341.251H1150.19V23.7905H1089.27V341.251Z" fill="#FFE7B7"/>
<path fill-rule="evenodd" clip-rule="evenodd" d="M1805.61 288.546L1805.61 288.535C1795.79 270.639 1790.9 250.307 1790.9 227.565C1790.9 205.107 1795.79 184.919 1805.61 167.025L1805.61 167.02C1815.7 148.853 1829.41 134.566 1846.72 124.177C1864.05 113.78 1883.68 108.59 1905.58 108.59C1926.01 108.59 1944.74 112.332 1961.75 119.829C1978.77 127.327 1992.08 137.729 2001.63 151.05L2002.08 151.677L1967.31 193.581L1966.55 192.552C1962.62 187.21 1957.69 182.421 1951.76 178.186L1951.75 178.177L1951.74 178.168C1945.81 173.654 1939.32 170.128 1932.27 167.588L1932.26 167.584C1925.51 165.052 1918.48 163.786 1911.16 163.786C1899.6 163.786 1889.35 166.602 1880.37 172.214L1880.36 172.219C1871.66 177.554 1864.77 184.996 1859.7 194.571C1854.64 204.132 1852.1 215.121 1852.1 227.565C1852.1 239.713 1854.64 250.555 1859.7 260.115C1865.05 269.406 1872.23 277.006 1881.24 282.923C1890.22 288.533 1900.33 291.344 1911.59 291.344C1918.93 291.344 1925.83 290.358 1932.3 288.39C1938.77 286.138 1944.82 282.9 1950.46 278.674L1950.46 278.667L1950.47 278.661C1956.4 274.426 1961.77 269.34 1966.58 263.401L1967.35 262.447L2001.67 304.345L2001.17 304.977C1991.33 317.423 1977.75 327.524 1960.47 335.298L1960.46 335.304C1943.17 342.796 1924.88 346.54 1905.58 346.54C1883.68 346.54 1864.05 341.351 1846.72 330.954C1829.41 320.567 1815.7 306.426 1805.61 288.546ZM1932.61 289.341C1926.03 291.343 1919.02 292.344 1911.59 292.344C1900.15 292.344 1889.85 289.484 1880.7 283.764C1871.55 277.758 1864.25 270.036 1858.82 260.598C1853.67 250.874 1851.1 239.863 1851.1 227.565C1851.1 214.981 1853.67 203.827 1858.82 194.103C1863.97 184.379 1870.98 176.8 1879.84 171.366C1888.99 165.646 1899.43 162.786 1911.16 162.786C1918.59 162.786 1925.74 164.073 1932.61 166.647C1939.76 169.221 1946.34 172.796 1952.34 177.372C1958.04 181.445 1962.84 186.033 1966.74 191.136C1966.95 191.409 1967.15 191.683 1967.36 191.958L2000.82 151.632C1991.38 138.476 1978.23 128.18 1961.35 120.744C1944.48 113.308 1925.89 109.59 1905.58 109.59C1883.85 109.59 1864.4 114.738 1847.24 125.034C1830.08 135.33 1816.49 149.487 1806.48 167.505C1796.76 185.237 1791.9 205.257 1791.9 227.565C1791.9 250.159 1796.76 270.322 1806.48 288.054C1816.49 305.786 1830.08 319.8 1847.24 330.096C1864.4 340.392 1883.85 345.54 1905.58 345.54C1924.74 345.54 1942.9 341.822 1960.06 334.386C1977.22 326.664 1990.67 316.654 2000.39 304.356L1967.36 264.03C1967.14 264.295 1966.93 264.558 1966.71 264.82C1962.02 270.489 1956.8 275.374 1951.06 279.474C1945.34 283.764 1939.19 287.053 1932.61 289.341ZM2038.43 342.25V22.7904H2100.49V140.493C2101.45 139.381 2102.45 138.287 2103.49 137.21C2111.87 128.534 2121.85 121.598 2133.4 116.401C2144.96 111.194 2157.12 108.59 2169.84 108.59C2187.13 108.59 2201.62 112.048 2213.25 119.026C2225.18 126.012 2234.04 136.628 2239.83 150.814C2245.91 164.702 2248.92 181.862 2248.92 202.254V342.25H2186V206.973C2186 196.762 2184.58 188.323 2181.79 181.618C2179.01 174.947 2174.73 170.131 2168.95 167.104L2168.92 167.091L2168.9 167.076C2163.4 163.775 2156.46 162.364 2148.03 162.926L2148 162.928H2147.96C2141.21 162.928 2134.9 164.053 2129.01 166.295L2129 166.3L2128.99 166.304C2123.4 168.26 2118.52 171.188 2114.34 175.089C2110.42 179.007 2107.2 183.484 2104.68 188.524C2102.46 193.53 2101.34 198.961 2101.34 204.828V342.25H2038.43ZM2103.78 188.097C2106.35 182.949 2109.64 178.373 2113.64 174.369C2117.93 170.365 2122.94 167.362 2128.66 165.36C2134.66 163.072 2141.1 161.928 2147.96 161.928C2156.54 161.356 2163.69 162.786 2169.41 166.218C2175.42 169.364 2179.85 174.369 2182.71 181.233C2185.57 188.097 2187 196.677 2187 206.973V341.25H2247.92V202.254C2247.92 181.948 2244.92 164.931 2238.91 151.203C2233.19 137.189 2224.47 126.75 2212.74 119.886C2201.3 113.022 2187 109.59 2169.84 109.59C2157.26 109.59 2145.25 112.164 2133.81 117.312C2122.37 122.46 2112.5 129.324 2104.2 137.904C2102.9 139.255 2101.66 140.632 2100.49 142.036C2100.15 142.441 2099.81 142.848 2099.49 143.257V23.7904H2039.43V341.25H2100.34V204.828C2100.34 198.822 2101.49 193.245 2103.78 188.097ZM2349.14 331.398L2349.13 331.394C2330.96 321.013 2316.54 306.876 2305.86 288.996L2305.86 288.986C2295.46 271.084 2290.28 250.601 2290.28 227.565C2290.28 204.53 2295.46 184.187 2305.86 166.568L2305.86 166.564C2316.54 148.683 2330.96 134.547 2349.13 124.166L2349.13 124.163C2367.6 113.774 2388.51 108.59 2411.83 108.59C2434.86 108.59 2455.49 113.775 2473.67 124.166C2492.12 134.547 2506.55 148.685 2516.94 166.573C2527.34 184.191 2532.52 204.533 2532.52 227.565C2532.52 250.601 2527.33 271.084 2516.94 288.986C2506.55 306.876 2492.12 321.016 2473.67 331.397L2473.66 331.4C2455.48 341.501 2434.86 346.54 2411.83 346.54C2388.51 346.54 2367.61 341.502 2349.14 331.403L2349.14 331.398ZM2516.07 167.076C2505.78 149.344 2491.48 135.33 2473.18 125.034C2455.16 114.738 2434.71 109.59 2411.83 109.59C2388.66 109.59 2367.93 114.738 2349.62 125.034C2331.61 135.33 2317.31 149.344 2306.72 167.076C2296.43 184.522 2291.28 204.685 2291.28 227.565C2291.28 250.445 2296.43 270.751 2306.72 288.483C2317.31 306.215 2331.61 320.229 2349.62 330.525C2367.93 340.535 2388.66 345.54 2411.83 345.54C2434.71 345.54 2455.16 340.535 2473.18 330.525C2491.48 320.229 2505.78 306.215 2516.07 288.483C2526.37 270.751 2531.52 250.445 2531.52 227.565C2531.52 204.685 2526.37 184.522 2516.07 167.076ZM2461.56 260.58L2461.56 260.57C2466.63 250.714 2469.17 239.719 2469.17 227.565C2469.17 215.121 2466.63 204.132 2461.57 194.571L2461.56 194.556L2461.55 194.54C2456.77 184.689 2450.03 177.117 2441.34 171.79L2441.33 171.784L2441.32 171.778C2432.62 166.168 2422.8 163.357 2411.83 163.357C2400.56 163.357 2390.6 166.171 2381.91 171.778C2373.2 177.401 2366.3 184.992 2361.23 194.571C2356.17 204.124 2353.77 215.105 2354.05 227.543L2354.06 227.566L2354.05 227.589C2353.77 239.733 2356.17 250.717 2361.23 260.564C2366.3 270.137 2373.19 277.725 2381.9 283.347C2390.59 288.671 2400.56 291.344 2411.83 291.344C2422.81 291.344 2432.63 288.673 2441.33 283.347C2450.03 277.727 2456.77 270.145 2461.56 260.58ZM2441.86 284.193C2432.99 289.627 2422.98 292.344 2411.83 292.344C2400.39 292.344 2390.24 289.627 2381.37 284.193C2372.5 278.473 2365.5 270.751 2360.35 261.027C2355.2 251.017 2352.77 239.863 2353.05 227.565C2352.77 214.981 2355.2 203.827 2360.35 194.103C2365.5 184.379 2372.5 176.657 2381.37 170.937C2390.24 165.217 2400.39 162.357 2411.83 162.357C2422.98 162.357 2432.99 165.217 2441.86 170.937C2450.72 176.371 2457.59 184.093 2462.45 194.103C2467.6 203.827 2470.17 214.981 2470.17 227.565C2470.17 239.863 2467.6 251.017 2462.45 261.027C2457.59 270.751 2450.72 278.473 2441.86 284.193ZM2581.5 342.25V113.309H2644.42V342.25H2581.5ZM2707.18 288.546L2707.18 288.535C2697.36 270.639 2692.47 250.307 2692.47 227.565C2692.47 205.107 2697.36 184.919 2707.18 167.025L2707.18 167.02C2717.27 148.853 2730.98 134.566 2748.29 124.177C2765.62 113.78 2785.25 108.59 2807.15 108.59C2827.58 108.59 2846.31 112.332 2863.32 119.829C2880.34 127.327 2893.65 137.729 2903.2 151.05L2903.65 151.677L2868.88 193.581L2868.12 192.552C2864.19 187.21 2859.26 182.421 2853.33 178.186L2853.32 178.177L2853.31 178.168C2847.38 173.654 2840.89 170.128 2833.84 167.588L2833.83 167.584C2827.08 165.052 2820.05 163.786 2812.73 163.786C2801.17 163.786 2790.92 166.602 2781.94 172.214L2781.93 172.219C2773.23 177.554 2766.34 184.996 2761.27 194.571C2756.21 204.132 2753.67 215.121 2753.67 227.565C2753.67 239.713 2756.21 250.555 2761.27 260.115C2766.62 269.406 2773.8 277.006 2782.81 282.922C2791.79 288.533 2801.9 291.344 2813.16 291.344C2820.5 291.344 2827.4 290.358 2833.87 288.39C2840.34 286.138 2846.39 282.9 2852.03 278.674L2852.03 278.667L2852.04 278.661C2857.97 274.426 2863.34 269.34 2868.15 263.401L2868.92 262.447L2903.24 304.345L2902.74 304.977C2892.9 317.423 2879.32 327.524 2862.04 335.298L2862.03 335.304C2844.74 342.796 2826.45 346.54 2807.15 346.54C2785.25 346.54 2765.62 341.351 2748.29 330.954C2730.98 320.567 2717.28 306.426 2707.18 288.546ZM2834.18 289.341C2827.6 291.343 2820.59 292.344 2813.16 292.344C2801.72 292.344 2791.42 289.484 2782.27 283.764C2773.12 277.758 2765.82 270.036 2760.39 260.598C2755.24 250.874 2752.67 239.863 2752.67 227.565C2752.67 214.981 2755.24 203.827 2760.39 194.103C2765.54 184.379 2772.55 176.8 2781.41 171.366C2790.56 165.646 2801 162.786 2812.73 162.786C2820.16 162.786 2827.31 164.073 2834.18 166.647C2841.33 169.221 2847.91 172.796 2853.91 177.372C2859.61 181.445 2864.41 186.033 2868.31 191.136C2868.52 191.409 2868.72 191.683 2868.93 191.958L2902.39 151.632C2892.95 138.476 2879.8 128.18 2862.92 120.744C2846.05 113.308 2827.46 109.59 2807.15 109.59C2785.42 109.59 2765.97 114.738 2748.81 125.034C2731.65 135.33 2718.06 149.487 2708.05 167.505C2698.33 185.237 2693.47 205.257 2693.47 227.565C2693.47 250.159 2698.33 270.322 2708.05 288.054C2718.06 305.786 2731.65 319.8 2748.81 330.096C2765.97 340.392 2785.42 345.54 2807.15 345.54C2826.31 345.54 2844.47 341.822 2861.63 334.386C2878.79 326.664 2892.24 316.654 2901.96 304.356L2868.93 264.03C2868.71 264.295 2868.5 264.558 2868.28 264.82C2863.59 270.489 2858.37 275.374 2852.63 279.474C2846.91 283.764 2840.76 287.053 2834.18 289.341ZM3138.34 311.649C3130.04 319.085 3120.89 325.377 3110.88 330.525C3100.87 335.387 3090.57 339.105 3079.99 341.679C3069.41 344.253 3058.97 345.54 3048.68 345.54C3024.08 345.54 3002.63 340.535 2984.33 330.525C2966.02 320.515 2951.72 306.787 2941.43 289.341C2931.13 271.895 2925.98 251.875 2925.98 229.281C2925.98 211.835 2928.84 195.819 2934.56 181.233C2940.28 166.647 2948.29 154.063 2958.59 143.481C2968.88 132.613 2981.04 124.319 2995.05 118.599C3009.35 112.593 3024.79 109.59 3041.38 109.59C3056.83 109.59 3071.13 112.45 3084.28 118.17C3097.44 123.604 3108.74 131.469 3118.17 141.765C3127.9 151.775 3135.33 163.644 3140.48 177.372C3145.63 191.1 3147.92 206.115 3147.35 222.417L3146.92 241.293H2985.06C2985.13 241.628 2985.2 241.962 2985.28 242.293C2986.7 248.796 2988.95 254.755 2992.05 260.169C2998.05 270.179 3006.35 278.044 3016.93 283.764C3027.8 289.198 3040.52 291.915 3055.11 291.915C3065.12 291.915 3074.27 290.342 3082.57 287.196C3090.63 284.137 3099.24 278.914 3108.39 271.526C3108.65 271.317 3108.9 271.107 3109.16 270.894L3138.34 311.649ZM3017.39 282.876C3028.09 288.224 3040.65 290.915 3055.11 290.915C3065.01 290.915 3074.04 289.359 3082.21 286.261C3090.37 283.165 3099.15 277.798 3108.53 270.12L3109.36 269.445L3139.67 311.796L3139 312.394C3130.65 319.888 3121.42 326.228 3111.34 331.415L3111.33 331.42L3111.32 331.425C3101.24 336.317 3090.88 340.06 3080.23 342.651C3069.57 345.243 3059.06 346.54 3048.68 346.54C3023.94 346.54 3002.32 341.507 2983.85 331.403C2965.39 321.309 2950.95 307.456 2940.56 289.85C2930.17 272.232 2924.98 252.033 2924.98 229.281C2924.98 211.725 2927.86 195.583 2933.63 180.868C2939.39 166.169 2947.47 153.473 2957.86 142.791C2968.26 131.82 2980.53 123.447 2994.67 117.675C3009.1 111.615 3024.67 108.59 3041.38 108.59C3056.95 108.59 3071.38 111.473 3084.67 117.25C3097.95 122.736 3109.37 130.681 3118.9 141.079C3128.72 151.191 3136.23 163.176 3141.42 177.021C3146.62 190.884 3148.92 206.029 3148.34 222.446C3148.34 222.448 3148.34 222.45 3148.34 222.452L3147.89 242.293H2986.3C2987.7 248.618 2989.91 254.407 2992.91 259.663C2998.82 269.506 3006.97 277.241 3017.39 282.876ZM3089.86 203.97V202.254C3089.29 194.532 3086.71 187.525 3082.14 181.233C3077.85 174.941 3072.27 170.079 3065.41 166.647C3058.54 163.215 3050.82 161.499 3042.24 161.499C3029.66 161.499 3018.93 163.93 3010.07 168.792C3001.49 173.654 2994.91 180.804 2990.33 190.242C2988.44 194.143 2986.94 198.386 2985.83 202.97C2985.75 203.302 2985.67 203.635 2985.6 203.97H3089.86ZM2986.86 202.97H3088.86V202.292C3088.3 194.771 3085.79 187.954 3081.33 181.822L3081.32 181.809L3081.31 181.797C3077.12 175.647 3071.67 170.898 3064.96 167.542C3058.25 164.187 3050.68 162.499 3042.24 162.499C3029.79 162.499 3019.24 164.904 3010.55 169.665C3002.16 174.421 2995.72 181.413 2991.23 190.679C2989.41 194.443 2987.95 198.54 2986.86 202.97ZM3211.71 336.164L3211.7 336.16C3195.27 328.954 3181.98 319.139 3171.85 306.704L3171.24 305.95L3210.45 272.085L3211.11 272.784C3219.88 282.123 3229.63 288.895 3240.34 293.126C3251.1 297.089 3261.85 299.066 3272.59 299.066C3276.8 299.066 3280.57 298.646 3283.9 297.816C3287.52 296.699 3290.56 295.315 3293.02 293.677C3295.47 291.766 3297.21 289.611 3298.27 287.219L3298.28 287.199L3298.29 287.178C3299.65 284.455 3300.33 281.605 3300.33 278.616C3300.33 272.676 3297.93 267.986 3293.09 264.46C3290.29 263.069 3285.94 261.383 3279.99 259.402L3279.97 259.395L3279.95 259.388C3273.99 257.116 3266.3 254.696 3256.89 252.127C3242.26 248.399 3229.76 244.09 3219.39 239.195L3219.38 239.187L3219.36 239.18C3209.28 233.995 3201.17 228.213 3195.07 221.821L3195.05 221.802L3195.04 221.781C3189.82 215.701 3185.76 209.177 3182.86 202.21L3182.85 202.187L3182.84 202.164C3180.22 194.892 3178.92 186.911 3178.92 178.23C3178.92 167.782 3181.25 158.319 3185.91 149.865C3190.56 141.156 3196.94 133.755 3205.06 127.666L3205.07 127.661L3205.08 127.656C3213.46 121.582 3223 116.959 3233.68 113.784C3244.36 110.32 3255.62 108.59 3267.44 108.59C3279.25 108.59 3290.77 110.031 3302.01 112.912C3313.24 115.791 3323.61 119.969 3333.13 125.446C3342.93 130.635 3351.44 136.839 3358.66 144.061L3359.34 144.734L3325.41 182.233L3324.67 181.531C3319.57 176.722 3313.77 172.33 3307.24 168.36L3307.24 168.354L3307.23 168.349C3301 164.388 3294.5 161.277 3287.71 159.016C3280.92 156.752 3274.88 155.635 3269.58 155.635C3264.78 155.635 3260.42 156.059 3256.5 156.898C3252.88 157.735 3249.85 158.981 3247.4 160.615C3244.98 162.228 3243.1 164.374 3241.75 167.074C3240.67 169.501 3240.12 172.213 3240.12 175.227C3240.12 178.203 3240.8 181.041 3242.15 183.754C3243.78 186.459 3245.94 188.767 3248.66 190.678C3251.75 192.356 3256.25 194.329 3262.21 196.598C3268.46 198.871 3276.87 201.436 3287.43 204.292L3287.17 205.257C3276.59 202.397 3268.15 199.823 3261.86 197.535C3255.86 195.247 3251.28 193.245 3248.13 191.529C3245.27 189.527 3242.99 187.096 3241.27 184.236C3239.84 181.376 3239.12 178.373 3239.12 175.227C3239.12 172.081 3239.7 169.221 3240.84 166.647C3242.27 163.787 3244.27 161.499 3246.85 159.783C3249.42 158.067 3252.57 156.78 3256.28 155.922C3260.29 155.064 3264.72 154.635 3269.58 154.635C3275.02 154.635 3281.17 155.779 3288.03 158.067C3294.89 160.355 3301.47 163.501 3307.76 167.505C3314.03 171.321 3319.65 175.527 3324.62 180.122C3324.87 180.348 3325.11 180.576 3325.35 180.804L3357.96 144.768C3350.81 137.618 3342.37 131.469 3332.65 126.321C3323.21 120.887 3312.91 116.74 3301.76 113.88C3290.6 111.02 3279.16 109.59 3267.44 109.59C3255.71 109.59 3244.56 111.306 3233.98 114.738C3223.39 117.884 3213.96 122.46 3205.66 128.466C3197.65 134.472 3191.36 141.765 3186.79 150.345C3182.21 158.639 3179.92 167.934 3179.92 178.23C3179.92 186.81 3181.21 194.675 3183.78 201.825C3186.64 208.689 3190.65 215.124 3195.8 221.13C3201.8 227.422 3209.81 233.142 3219.82 238.29C3230.12 243.152 3242.56 247.442 3257.14 251.16C3266.58 253.734 3274.3 256.165 3280.31 258.453C3286.31 260.455 3290.75 262.171 3293.61 263.601C3298.76 267.319 3301.33 272.324 3301.33 278.616C3301.33 281.762 3300.61 284.765 3299.18 287.625C3298.04 290.199 3296.18 292.487 3293.61 294.489C3291.03 296.205 3287.89 297.635 3284.17 298.779C3280.74 299.637 3276.88 300.066 3272.59 300.066C3261.72 300.066 3250.85 298.064 3239.98 294.06C3229.11 289.77 3219.25 282.906 3210.38 273.468L3172.63 306.072C3182.64 318.37 3195.8 328.094 3212.1 335.244C3228.69 342.108 3247.56 345.54 3268.73 345.54C3285.89 345.54 3301.33 342.537 3315.06 336.531C3328.79 330.239 3339.51 321.659 3347.23 310.791C3355.24 299.637 3359.24 287.053 3359.24 273.039C3359.24 265.031 3358.1 257.738 3355.81 251.16C3353.52 244.582 3349.95 238.719 3345.09 233.571C3339.37 227.565 3331.65 222.274 3321.92 217.698C3312.48 213.122 3300.9 208.975 3287.17 205.257L3287.43 204.292C3301.2 208.02 3312.84 212.186 3322.35 216.796C3332.15 221.41 3339.99 226.765 3345.81 232.882L3345.81 232.885C3350.77 238.134 3354.42 244.118 3356.76 250.832C3359.09 257.53 3360.24 264.936 3360.24 273.039C3360.24 287.258 3356.18 300.047 3348.04 311.375C3340.21 322.402 3329.34 331.086 3315.47 337.44L3315.47 337.444L3315.46 337.448C3301.59 343.516 3286 346.54 3268.73 346.54C3247.45 346.54 3228.44 343.091 3211.72 336.168L3211.71 336.164ZM2612.53 68.5484C2600.65 68.5484 2591.23 65.6488 2584.42 59.723C2577.57 53.7729 2574.21 45.3193 2574.21 34.5154C2574.21 24.5399 2577.59 16.3971 2584.4 10.1833C2591.49 3.68565 2600.9 0.482422 2612.53 0.482422C2624.42 0.482422 2633.84 3.52837 2640.65 9.74439C2647.48 15.6886 2650.85 23.9921 2650.85 34.5154C2650.85 44.7787 2647.32 53.0706 2640.22 59.2856C2633.41 65.4984 2624.14 68.5484 2612.53 68.5484ZM2639.56 58.5394C2646.42 52.5334 2649.85 44.5254 2649.85 34.5154C2649.85 24.2194 2646.56 16.2114 2639.99 10.4914C2633.41 4.48543 2624.26 1.48242 2612.53 1.48242C2601.09 1.48242 2591.94 4.62842 2585.07 10.9204C2578.5 16.9264 2575.21 24.7914 2575.21 34.5154C2575.21 45.0974 2578.5 53.2484 2585.07 58.9684C2591.65 64.6884 2600.8 67.5484 2612.53 67.5484C2623.97 67.5484 2632.98 64.5454 2639.56 58.5394ZM2582.5 341.25H2643.42V114.309H2582.5V341.25Z" fill="#FFE7B7"/>
</svg>
