<svg width="50" height="50" viewBox="0 0 50 50" fill="none" xmlns="http://www.w3.org/2000/svg">
<path fill-rule="evenodd" clip-rule="evenodd" d="M13.7009 13.7009C14.4819 12.9199 15.7483 12.9199 16.5293 13.7009L24.6151 21.7867L32.7009 13.7009C33.4819 12.9199 34.7483 12.9199 35.5293 13.7009C36.3104 14.4819 36.3104 15.7483 35.5293 16.5293L27.4435 24.6151L35.5293 32.7009C36.3104 33.4819 36.3104 34.7483 35.5293 35.5293C34.7483 36.3104 33.4819 36.3104 32.7009 35.5293L24.6151 27.4435L16.5293 35.5293C15.7483 36.3104 14.4819 36.3104 13.7009 35.5293C12.9199 34.7483 12.9199 33.4819 13.7009 32.7009L21.7867 24.6151L13.7009 16.5293C12.9199 15.7483 12.9199 14.4819 13.7009 13.7009ZM24.6151 0C11.0206 0 0 11.0206 0 24.6151C0 38.2097 11.0206 49.2302 24.6151 49.2302C38.2097 49.2302 49.2302 38.2097 49.2302 24.6151C49.2302 11.0206 38.2097 0 24.6151 0Z" fill="#F0574D"/>
</svg>
