<svg width="50" height="50" viewBox="0 0 50 50" fill="none" xmlns="http://www.w3.org/2000/svg">
<path fill-rule="evenodd" clip-rule="evenodd" d="M0 24.6151C0 11.0206 11.0206 0 24.6151 0C38.2097 0 49.2302 11.0206 49.2302 24.6151C49.2302 38.2097 38.2097 49.2302 24.6151 49.2302C11.0206 49.2302 0 38.2097 0 24.6151ZM38.6293 15.8479C39.4426 16.603 39.4897 17.8744 38.7345 18.6877L23.9333 34.5372C22.7744 35.7853 20.8124 35.8259 19.6028 34.627L11.8848 26.9666C11.0966 26.1853 11.091 24.9131 11.8722 24.1249C12.6535 23.3367 13.9257 23.3311 14.7139 24.1123L21.6947 31.042L35.7896 15.9531C36.5447 15.1398 37.8161 15.0927 38.6293 15.8479Z" fill="#2EFF5C"/>
</svg>
