<svg width="50" height="50" viewBox="0 0 50 50" fill="none" xmlns="http://www.w3.org/2000/svg">
<path d="M21.6142 12.8711L22.9879 27.9658C23.0218 28.3382 23.1855 28.6872 23.4508 28.9521C23.7712 29.2722 24.1936 29.4294 24.6142 29.4238C25.0202 29.4183 25.4245 29.2612 25.7338 28.9523C25.9992 28.6872 26.163 28.3382 26.1969 27.9656L27.5706 12.8713C27.6504 11.9944 27.3356 11.1273 26.711 10.5035C26.1322 9.92538 25.374 9.63357 24.6142 9.62807C23.8397 9.62246 23.0635 9.91429 22.4735 10.5036C21.8491 11.1274 21.5344 11.9943 21.6142 12.8711Z" fill="#292929"/>
<path d="M26.7355 38.8133C27.9189 37.636 27.9189 35.7271 26.7355 34.5498C26.1492 33.9666 25.3826 33.6723 24.6142 33.6669C23.8315 33.6614 23.0471 33.9557 22.4499 34.5498C21.2665 35.7271 21.2665 37.636 22.4499 38.8133C23.0471 39.4074 23.8315 39.7017 24.6142 39.6962C25.3826 39.6908 26.1492 39.3965 26.7355 38.8133Z" fill="#292929"/>
<path fill-rule="evenodd" clip-rule="evenodd" d="M24.6151 0.000132561C11.0206 0.000132561 0 11.0207 0 24.6153C0 38.2098 11.0206 49.2304 24.6151 49.2304C38.2097 49.2304 49.2303 38.2098 49.2303 24.6153C49.2303 11.0207 38.2097 0.000132561 24.6151 0.000132561ZM24.6151 3.00015C12.6774 3.00015 3.00025 12.6776 3 24.6153C2.99975 36.553 12.6765 46.2308 24.6142 46.2313C36.5524 46.2318 46.2305 36.5535 46.2302 24.6153C46.23 12.6776 36.5528 3.00015 24.6151 3.00015Z" fill="#292929"/>
</svg>
