<svg width="72" height="78" viewBox="0 0 72 78" fill="none" xmlns="http://www.w3.org/2000/svg">
<path fill-rule="evenodd" clip-rule="evenodd" d="M20.1951 14.5116C18.0564 14.5116 16.2721 14.5843 14.7374 14.8108C14.7095 14.8149 14.6816 14.8186 14.6536 14.8217C10.384 15.308 8.39043 16.5049 7.23557 18.3164C5.9246 20.3727 5.26829 23.826 5.26829 29.9302V48.0698C5.26829 54.174 5.9246 57.6273 7.23557 59.6836C8.39043 61.4951 10.384 62.692 14.6536 63.1783C14.6816 63.1814 14.7095 63.1851 14.7374 63.1892C16.2721 63.4157 18.0564 63.4884 20.1951 63.4884H32.5581C34.0128 63.4884 35.1922 64.7066 35.1922 66.2093C35.1922 67.712 34.0128 68.9302 32.5581 68.9302H20.1951C17.9951 68.9302 15.9302 68.8589 14.0345 68.5826C9.08699 68.0127 5.23017 66.4325 2.83565 62.6766C0.590517 59.155 0 54.2278 0 48.0698V29.9302C0 23.7722 0.590517 18.845 2.83565 15.3234C5.23018 11.5675 9.087 9.98731 14.0345 9.41744C15.9303 9.14112 17.9951 9.06977 20.1951 9.06977H32.3473C33.8021 9.06977 34.9815 10.288 34.9815 11.7907C34.9815 13.2934 33.8021 14.5116 32.3473 14.5116H20.1951Z" fill="#FFB82E"/>
<path fill-rule="evenodd" clip-rule="evenodd" d="M43.9727 11.7907C43.9727 10.288 45.152 9.06977 46.6068 9.06977H51.8049C54.0049 9.06977 56.0697 9.14112 57.9655 9.41744C62.913 9.98731 66.7698 11.5675 69.1643 15.3234C71.4095 18.845 72 23.7722 72 29.9302V48.0698C72 54.2278 71.4095 59.155 69.1643 62.6766C66.7698 66.4325 62.913 68.0127 57.9655 68.5826C56.0698 68.8589 54.0049 68.9302 51.8049 68.9302H46.6068C45.152 68.9302 43.9727 67.712 43.9727 66.2093C43.9727 64.7066 45.152 63.4884 46.6068 63.4884H51.8049C53.9436 63.4884 55.7279 63.4157 57.2626 63.1892C57.2905 63.1851 57.3184 63.1814 57.3464 63.1783C61.616 62.692 63.6096 61.4951 64.7644 59.6836C66.0754 57.6273 66.7317 54.174 66.7317 48.0698V29.9302C66.7317 23.826 66.0754 20.3727 64.7644 18.3164C63.6096 16.5049 61.616 15.308 57.3464 14.8217C57.3184 14.8186 57.2905 14.8149 57.2626 14.8108C55.7279 14.5843 53.9436 14.5116 51.8049 14.5116H46.6068C45.152 14.5116 43.9727 13.2934 43.9727 11.7907Z" fill="#FFB82E"/>
<path fill-rule="evenodd" clip-rule="evenodd" d="M46.5366 0C47.9914 0 49.1707 1.2182 49.1707 2.72093V75.2791C49.1707 76.7818 47.9914 78 46.5366 78C45.0818 78 43.9024 76.7818 43.9024 75.2791V2.72093C43.9024 1.2182 45.0818 0 46.5366 0Z" fill="#FFB82E"/>
<path fill-rule="evenodd" clip-rule="evenodd" d="M29.3075 39C29.3075 36.9964 30.8799 35.3721 32.8196 35.3721H32.8512C34.7909 35.3721 36.3634 36.9964 36.3634 39C36.3634 41.0036 34.7909 42.6279 32.8512 42.6279H32.8196C30.8799 42.6279 29.3075 41.0036 29.3075 39Z" fill="#FFB82E"/>
<path fill-rule="evenodd" clip-rule="evenodd" d="M15.2587 39C15.2587 36.9964 16.8311 35.3721 18.7709 35.3721H18.8024C20.7421 35.3721 22.3146 36.9964 22.3146 39C22.3146 41.0036 20.7421 42.6279 18.8024 42.6279H18.7709C16.8311 42.6279 15.2587 41.0036 15.2587 39Z" fill="#FFB82E"/>
</svg>
