<svg width="20" height="20" viewBox="0 0 20 20" fill="none" xmlns="http://www.w3.org/2000/svg">
<path d="M9.92031 0.959859L11.8473 7.01613C11.8896 7.14913 12.0132 7.23946 12.1527 7.23946H18.2805C18.5873 7.23946 18.7187 7.62893 18.4748 7.81486L13.5249 11.5871C13.4172 11.6692 13.3727 11.8102 13.4137 11.9392L15.4256 18.2623C15.5206 18.5608 15.1751 18.8043 14.926 18.6144L9.80917 14.7149C9.69442 14.6275 9.53539 14.6275 9.42064 14.7149L4.30384 18.6144C4.05472 18.8043 3.70919 18.5608 3.80416 18.2623L5.81606 11.9392C5.85713 11.8102 5.81264 11.6692 5.70492 11.5871L0.755037 7.81486C0.511057 7.62893 0.642548 7.23946 0.949302 7.23946H7.07709C7.21666 7.23946 7.34018 7.14913 7.3825 7.01613L9.30949 0.959859C9.40423 0.662098 9.82557 0.662098 9.92031 0.959859Z" stroke="#FFB82E" stroke-width="1.25"/>
</svg>
