<svg width="2885" height="424" viewBox="0 0 2885 424" fill="none" xmlns="http://www.w3.org/2000/svg">
<path fill-rule="evenodd" clip-rule="evenodd" d="M87.673 325V82.6148H0.156982V22.6998H244.113V82.6148H154.023V325H87.673ZM153.023 81.6148H243.113V23.6998H1.15698V81.6148H88.673V324H153.023V81.6148ZM287.787 314.148L287.779 314.143C269.612 303.762 255.187 289.626 244.517 271.745L244.51 271.735C234.116 253.833 228.931 233.35 228.931 210.315C228.931 187.28 234.116 166.937 244.514 149.318L244.517 149.313C255.187 131.433 269.612 117.297 287.779 106.916L287.785 106.912C306.254 96.5236 327.161 91.3398 350.48 91.3398C373.514 91.3398 394.136 96.5238 412.319 106.913C430.773 117.294 445.202 131.432 455.59 149.319C465.987 166.938 471.171 187.28 471.171 210.315C471.171 233.35 465.987 253.833 455.592 271.735C445.204 289.625 430.773 303.765 412.318 314.146L412.313 314.149C394.131 324.25 373.511 329.29 350.48 329.29C327.165 329.29 306.262 324.251 287.796 314.152L287.787 314.148ZM454.727 149.826C444.431 132.094 430.131 118.08 411.827 107.784C393.809 97.4878 373.36 92.3398 350.48 92.3398C327.314 92.3398 306.579 97.4878 288.275 107.784C270.257 118.08 255.957 132.094 245.375 149.826C235.079 167.272 229.931 187.435 229.931 210.315C229.931 233.195 235.079 253.501 245.375 271.233C255.957 288.965 270.257 302.979 288.275 313.275C306.579 323.285 327.314 328.29 350.48 328.29C373.36 328.29 393.809 323.285 411.827 313.275C430.131 302.979 444.431 288.965 454.727 271.233C465.023 253.501 470.171 233.195 470.171 210.315C470.171 187.435 465.023 167.272 454.727 149.826ZM400.208 243.33L400.213 243.319C405.282 233.464 407.824 222.469 407.824 210.315C407.824 197.87 405.28 186.881 400.219 177.321L400.21 177.305L400.203 177.29C395.418 167.439 388.679 159.867 379.988 154.539L379.978 154.533L379.968 154.527C371.273 148.917 361.454 146.107 350.48 146.107C339.216 146.107 329.254 148.92 320.563 154.527C311.848 160.15 304.956 167.741 299.884 177.321C294.827 186.873 292.424 197.854 292.707 210.292L292.708 210.315L292.707 210.338C292.425 222.483 294.824 233.467 299.887 243.314C304.956 252.887 311.844 260.475 320.554 266.096C329.245 271.42 339.21 274.094 350.48 274.094C361.46 274.094 371.283 271.423 379.978 266.096C388.684 260.477 395.425 252.895 400.208 243.33ZM380.51 266.943C371.644 272.377 361.634 275.094 350.48 275.094C339.04 275.094 328.887 272.377 320.021 266.943C311.155 261.223 304.148 253.501 299 243.777C293.852 233.767 291.421 222.613 291.707 210.315C291.421 197.731 293.852 186.577 299 176.853C304.148 167.129 311.155 159.407 320.021 153.687C328.887 147.967 339.04 145.107 350.48 145.107C361.634 145.107 371.644 147.967 380.51 153.687C389.376 159.121 396.24 166.843 401.102 176.853C406.25 186.577 408.824 197.731 408.824 210.315C408.824 222.613 406.25 233.767 401.102 243.777C396.24 253.501 389.376 261.223 380.51 266.943ZM551.074 314.118L551.063 314.112C535.184 303.718 522.63 289.716 513.402 272.126L513.398 272.118L513.393 272.109C504.447 254.217 499.989 233.61 499.989 210.315C499.989 187.587 504.449 167.268 513.393 149.379L513.399 149.367C522.623 131.496 535.031 117.349 550.627 106.952L550.634 106.947C566.538 96.5375 584.606 91.3398 604.807 91.3398C615.493 91.3398 625.754 93.0722 635.583 96.5391C645.679 99.7141 654.639 104.192 662.452 109.978C666.278 112.711 669.753 115.61 672.876 118.674V5.53982H735.794V325H676.356L675.13 300.081C671.229 304.469 666.567 308.566 661.152 312.377L661.146 312.381C653.62 317.591 644.95 321.779 635.145 324.951L635.136 324.954L635.127 324.957C625.588 327.847 615.48 329.29 604.807 329.29C584.894 329.29 566.974 324.237 551.074 314.118ZM675.06 298.644C675.381 298.272 675.696 297.897 676.006 297.521L677.308 324H734.794V6.53982H673.876V121.109C673.547 120.765 673.214 120.423 672.876 120.083C669.613 116.799 665.943 113.7 661.864 110.787C654.142 105.067 645.276 100.634 635.266 97.4878C625.542 94.0558 615.389 92.3398 604.807 92.3398C584.787 92.3398 566.912 97.4878 551.182 107.784C535.738 118.08 523.44 132.094 514.288 149.826C505.422 167.558 500.989 187.721 500.989 210.315C500.989 233.481 505.422 253.93 514.288 271.662C523.44 289.108 535.881 302.979 551.611 313.275C567.341 323.285 585.073 328.29 604.807 328.29C615.389 328.29 625.399 326.86 634.837 324C644.561 320.854 653.141 316.707 660.577 311.559C666.255 307.563 671.083 303.258 675.06 298.644ZM667.828 176.003L667.824 175.993C663.033 165.847 656.431 158.136 648.03 152.816L648.02 152.809L648.01 152.803C639.612 147.204 629.8 144.391 618.535 144.391C607.27 144.391 597.458 147.204 589.06 152.803L589.053 152.807C580.937 158.125 574.473 165.835 569.679 175.986C565.174 185.841 562.907 197.277 562.907 210.315C562.907 223.639 565.174 235.214 569.675 245.066C574.468 254.93 580.935 262.65 589.066 268.26C597.463 273.856 607.273 276.668 618.535 276.668C629.8 276.668 639.612 273.854 648.01 268.256C656.431 262.642 663.038 254.919 667.828 245.056C672.612 235.207 675.021 223.636 675.021 210.315C675.021 197.283 672.613 185.854 667.828 176.003ZM588.505 269.088C580.211 263.368 573.633 255.503 568.771 245.493C564.195 235.483 561.907 223.757 561.907 210.315C561.907 197.159 564.195 185.576 568.771 175.566C573.633 165.27 580.211 157.405 588.505 151.971C597.085 146.251 607.095 143.391 618.535 143.391C629.975 143.391 639.985 146.251 648.565 151.971C657.145 157.405 663.866 165.27 668.728 175.566C673.59 185.576 676.021 197.159 676.021 210.315C676.021 223.757 673.59 235.483 668.728 245.493C663.866 255.503 657.145 263.368 648.565 269.088C639.985 274.808 629.975 277.668 618.535 277.668C607.095 277.668 597.085 274.808 588.505 269.088ZM791.147 148.944L791.15 148.938C800.374 131.067 812.784 117.06 828.383 106.948C844.001 96.5379 861.784 91.3398 881.7 91.3398C892.95 91.3398 903.218 93.0697 912.493 96.5451C922.025 99.7246 930.28 104.211 937.244 110.012C942.445 114.174 947.049 118.786 951.056 123.849V96.0588H1013.54V325H950.198V297.116C945.854 302.167 940.807 306.82 935.062 311.075L935.057 311.079C927.538 316.574 919.016 321.049 909.497 324.511L909.485 324.515L909.472 324.52C899.926 327.702 889.808 329.29 879.126 329.29C860.056 329.29 842.842 324.085 827.513 313.673C812.202 303.273 800.08 289.123 791.144 271.251C782.199 253.36 777.74 232.897 777.74 209.886C777.74 186.875 782.199 166.552 791.147 148.944ZM950.198 295.569C950.535 295.165 950.869 294.758 951.198 294.349V324H1012.54V97.0588H952.056V126.809C951.727 126.362 951.393 125.918 951.056 125.477C946.915 120.075 942.101 115.178 936.612 110.787C929.748 105.067 921.597 100.634 912.159 97.4878C903.007 94.0558 892.854 92.3398 881.7 92.3398C861.966 92.3398 844.377 97.4878 828.933 107.784C813.489 117.794 801.191 131.665 792.039 149.397C783.173 166.843 778.74 187.006 778.74 209.886C778.74 232.766 783.173 253.072 792.039 270.804C800.905 288.536 812.917 302.55 828.075 312.846C843.233 323.142 860.25 328.29 879.126 328.29C889.708 328.29 899.718 326.717 909.156 323.571C918.594 320.139 927.031 315.706 934.467 310.272C940.495 305.807 945.738 300.906 950.198 295.569ZM944.716 244.209L944.721 244.198C949.506 234.347 951.914 222.918 951.914 209.886C951.914 197.143 949.507 186.004 944.726 176.442L944.721 176.431L944.716 176.421C940.216 166.858 933.761 159.429 925.352 154.103L925.342 154.096L925.332 154.09C916.934 148.491 907.122 145.678 895.857 145.678C884.883 145.678 875.213 148.488 866.81 154.09L866.804 154.094C858.672 159.422 852.207 166.86 847.416 176.442C842.635 186.004 840.229 197.143 840.229 209.886C840.229 222.917 842.636 234.345 847.42 244.196C852.209 253.771 858.671 261.205 866.798 266.531C875.2 271.851 884.876 274.523 895.857 274.523C907.132 274.523 916.951 271.847 925.352 266.527C933.761 261.201 940.216 253.772 944.716 244.209ZM866.256 267.372C857.962 261.938 851.384 254.359 846.522 244.635C841.66 234.625 839.229 223.042 839.229 209.886C839.229 197.016 841.66 185.719 846.522 175.995C851.384 166.271 857.962 158.692 866.256 153.258C874.836 147.538 884.703 144.678 895.857 144.678C907.297 144.678 917.307 147.538 925.887 153.258C934.467 158.692 941.045 166.271 945.621 175.995C950.483 185.719 952.914 197.016 952.914 209.886C952.914 223.042 950.483 234.625 945.621 244.635C941.045 254.359 934.467 261.938 925.887 267.372C917.307 272.806 907.297 275.523 895.857 275.523C884.703 275.523 874.836 272.806 866.256 267.372ZM1098.83 423.67L1141.7 323.147L1038.73 96.0588H1110.01L1165.59 227.478C1165.6 227.484 1165.6 227.491 1165.6 227.497C1167.91 232.402 1170.07 238.154 1172.07 244.747C1172.33 245.468 1172.59 246.187 1172.84 246.905C1174.67 241.746 1176.5 236.312 1178.32 230.602L1178.33 230.587L1226.19 96.0588H1297.9L1202.08 324.368L1202.08 324.387L1162.79 423.67H1098.83ZM1201.15 324L1296.39 97.0588H1226.89L1179.27 230.907C1177.3 237.063 1175.33 242.901 1173.36 248.421C1173.18 248.93 1173 249.436 1172.82 249.939C1172.65 249.431 1172.48 248.923 1172.31 248.413C1171.93 247.301 1171.53 246.185 1171.12 245.064C1169.12 238.486 1166.98 232.766 1164.69 227.904L1109.35 97.0588H1040.28L1142.79 323.135L1100.34 422.67H1162.11L1201.15 324ZM1327.1 134.671L1307.41 110.398L1308.61 109.871C1320.25 104.76 1329.58 98.6749 1336.62 91.6327L1336.63 91.6258L1336.63 91.619C1344.05 84.4925 1347.48 78.5986 1347.48 73.8928C1347.48 70.7383 1346.31 67.8241 1343.88 65.1238L1343.84 65.0851L1343.81 65.043C1341.61 62.0147 1338.71 59.3834 1335.09 57.1555L1335.04 57.126L1335 57.0913C1328.39 51.9182 1323.71 47.2603 1321.04 43.1166L1321.02 43.0823L1321 43.0464C1318.64 38.6116 1317.45 33.874 1317.45 28.8478C1317.45 20.2951 1320.42 13.4252 1326.38 8.35187L1326.39 8.34411L1326.4 8.33656C1332.62 3.30062 1340.58 0.820801 1350.2 0.820801C1358.96 0.820801 1366.73 3.15812 1373.49 7.84954C1380.51 12.2459 1386.06 18.5357 1390.13 26.6804C1394.22 34.5666 1396.24 43.7358 1396.24 54.1588C1396.24 62.876 1394.5 71.4426 1391.02 79.8521L1391.01 79.8637C1387.54 87.9742 1382.62 95.6389 1376.27 102.858C1370.2 110.082 1362.98 116.433 1354.62 121.913C1346.52 127.407 1337.56 131.596 1327.74 134.483L1327.1 134.671ZM1354.06 121.083C1362.35 115.649 1369.5 109.357 1375.51 102.207C1381.8 95.0568 1386.66 87.4778 1390.09 79.4698C1393.53 71.1758 1395.24 62.7388 1395.24 54.1588C1395.24 43.8628 1393.24 34.8538 1389.24 27.1318C1385.23 19.1238 1379.8 12.9748 1372.93 8.68481C1366.36 4.10881 1358.78 1.8208 1350.2 1.8208C1340.76 1.8208 1333.04 4.2518 1327.03 9.11381C1321.31 13.9758 1318.45 20.5538 1318.45 28.8478C1318.45 33.7098 1319.6 38.2858 1321.88 42.5758C1324.46 46.5798 1329.03 51.1558 1335.61 56.3038C1339.33 58.5918 1342.33 61.3088 1344.62 64.4548C1347.19 67.3148 1348.48 70.4608 1348.48 73.8928C1348.48 79.0408 1344.76 85.1898 1337.33 92.3398C1330.37 99.2963 1321.25 105.305 1309.96 110.367C1309.65 110.507 1309.33 110.648 1309.01 110.787L1327.46 133.524C1337.18 130.664 1346.05 126.517 1354.06 121.083ZM1462.05 318.914L1462.04 318.91C1445.61 311.704 1432.32 301.889 1422.2 289.453L1421.59 288.7L1460.8 254.834L1461.46 255.533C1470.23 264.872 1479.97 271.645 1490.69 275.875C1501.45 279.839 1512.19 281.816 1522.93 281.816C1527.15 281.816 1530.92 281.395 1534.25 280.565C1537.87 279.448 1540.91 278.065 1543.37 276.427C1545.82 274.515 1547.56 272.361 1548.62 269.969L1548.63 269.948L1548.64 269.928C1550 267.204 1550.68 264.354 1550.68 261.366C1550.68 255.425 1548.28 250.736 1543.44 247.209C1540.64 245.819 1536.28 244.133 1530.34 242.152L1530.32 242.145L1530.3 242.137C1524.34 239.866 1516.65 237.445 1507.23 234.877C1492.61 231.148 1480.11 226.839 1469.74 221.944L1469.72 221.937L1469.71 221.929C1459.63 216.744 1451.52 210.963 1445.42 204.57L1445.4 204.551L1445.38 204.531C1440.17 198.45 1436.11 191.926 1433.21 184.959L1433.2 184.937L1433.19 184.914C1430.57 177.642 1429.27 169.661 1429.27 160.98C1429.27 150.531 1431.59 141.068 1436.26 132.614C1440.9 123.906 1447.29 116.505 1455.41 110.416L1455.42 110.411L1455.42 110.406C1463.81 104.331 1473.35 99.7085 1484.03 96.5329C1494.71 93.0693 1505.96 91.3398 1517.79 91.3398C1529.59 91.3398 1541.12 92.78 1552.35 95.6611C1563.59 98.5409 1573.96 102.718 1583.48 108.196C1593.28 113.384 1601.79 119.588 1609.01 126.811L1609.68 127.483L1575.76 164.982L1575.01 164.281C1569.92 159.471 1564.12 155.08 1557.59 151.109L1557.58 151.104L1557.58 151.098C1551.35 147.137 1544.85 144.027 1538.06 141.766C1531.27 139.501 1525.23 138.385 1519.93 138.385C1515.13 138.385 1510.77 138.808 1506.85 139.648C1503.23 140.485 1500.2 141.73 1497.75 143.365C1495.33 144.977 1493.45 147.123 1492.09 149.823C1491.02 152.25 1490.47 154.963 1490.47 157.977C1490.47 160.952 1491.14 163.791 1492.49 166.504C1494.12 169.209 1496.29 171.516 1499.01 173.428C1502.09 175.105 1506.6 177.078 1512.56 179.347C1518.81 181.621 1527.21 184.186 1537.78 187.041L1537.52 188.007C1526.94 185.147 1518.5 182.573 1512.21 180.285C1506.2 177.997 1501.63 175.995 1498.48 174.279C1495.62 172.277 1493.33 169.846 1491.62 166.986C1490.19 164.126 1489.47 161.123 1489.47 157.977C1489.47 154.831 1490.04 151.971 1491.19 149.397C1492.62 146.537 1494.62 144.249 1497.19 142.533C1499.77 140.817 1502.91 139.53 1506.63 138.672C1510.64 137.814 1515.07 137.385 1519.93 137.385C1525.36 137.385 1531.51 138.529 1538.38 140.817C1545.24 143.105 1551.82 146.251 1558.11 150.255C1564.38 154.071 1570 158.276 1574.97 162.871C1575.22 163.098 1575.46 163.325 1575.7 163.554L1608.3 127.518C1601.15 120.368 1592.72 114.219 1582.99 109.071C1573.56 103.637 1563.26 99.4898 1552.11 96.6298C1540.95 93.7698 1529.51 92.3398 1517.79 92.3398C1506.06 92.3398 1494.91 94.0558 1484.32 97.4878C1473.74 100.634 1464.3 105.21 1456.01 111.216C1448 117.222 1441.71 124.515 1437.13 133.095C1432.56 141.389 1430.27 150.684 1430.27 160.98C1430.27 169.56 1431.56 177.425 1434.13 184.575C1436.99 191.439 1440.99 197.874 1446.14 203.88C1452.15 210.172 1460.16 215.892 1470.17 221.04C1480.46 225.902 1492.9 230.192 1507.49 233.91C1516.93 236.484 1524.65 238.915 1530.66 241.203C1536.66 243.205 1541.09 244.921 1543.95 246.351C1549.1 250.069 1551.68 255.074 1551.68 261.366C1551.68 264.512 1550.96 267.515 1549.53 270.375C1548.39 272.949 1546.53 275.237 1543.95 277.239C1541.38 278.955 1538.23 280.385 1534.52 281.529C1531.08 282.387 1527.22 282.816 1522.93 282.816C1512.07 282.816 1501.2 280.814 1490.33 276.81C1479.46 272.52 1469.59 265.656 1460.73 256.218L1422.98 288.822C1432.99 301.12 1446.14 310.844 1462.44 317.994C1479.03 324.858 1497.91 328.29 1519.07 328.29C1536.23 328.29 1551.68 325.287 1565.4 319.281C1579.13 312.989 1589.86 304.409 1597.58 293.541C1605.59 282.387 1609.59 269.803 1609.59 255.789C1609.59 247.781 1608.45 240.488 1606.16 233.91C1603.87 227.332 1600.3 221.469 1595.43 216.321C1589.71 210.315 1581.99 205.024 1572.27 200.448C1562.83 195.872 1551.25 191.725 1537.52 188.007L1537.78 187.041C1551.55 190.77 1563.19 194.936 1572.7 199.546C1582.5 204.159 1590.33 209.515 1596.16 215.631L1596.16 215.634C1601.12 220.883 1604.77 226.868 1607.1 233.581C1609.43 240.279 1610.59 247.685 1610.59 255.789C1610.59 270.007 1606.53 282.796 1598.39 294.124C1590.56 305.151 1579.69 313.835 1565.82 320.19L1565.81 320.194L1565.81 320.197C1551.93 326.266 1536.35 329.29 1519.07 329.29C1497.8 329.29 1478.79 325.84 1462.06 318.918L1462.05 318.914ZM1819.64 314.118L1819.63 314.112C1803.75 303.718 1791.2 289.716 1781.97 272.126L1781.96 272.118L1781.96 272.109C1773.01 254.217 1768.56 233.61 1768.56 210.315C1768.56 187.587 1773.02 167.268 1781.96 149.379L1781.97 149.367C1791.19 131.496 1803.6 117.349 1819.19 106.952L1819.2 106.947C1835.1 96.5375 1853.17 91.3398 1873.37 91.3398C1884.06 91.3398 1894.32 93.0722 1904.15 96.539C1914.24 99.7138 1923.2 104.191 1931.02 109.977C1934.84 112.71 1938.32 115.609 1941.44 118.674V5.53982H2004.36V325H1944.92L1943.7 300.081C1939.8 304.469 1935.13 308.566 1929.72 312.377L1929.71 312.381C1922.19 317.591 1913.52 321.779 1903.71 324.951L1903.7 324.954L1903.69 324.957C1894.15 327.847 1884.05 329.29 1873.37 329.29C1853.46 329.29 1835.54 324.237 1819.64 314.118ZM1943.63 298.644C1943.95 298.272 1944.26 297.897 1944.57 297.521L1945.87 324H2003.36V6.53982H1942.44V121.109C1942.11 120.765 1941.78 120.423 1941.44 120.083C1938.18 116.799 1934.51 113.7 1930.43 110.787C1922.71 105.067 1913.84 100.634 1903.83 97.4878C1894.11 94.0558 1883.96 92.3398 1873.37 92.3398C1853.35 92.3398 1835.48 97.4878 1819.75 107.784C1804.3 118.08 1792.01 132.094 1782.85 149.826C1773.99 167.558 1769.56 187.721 1769.56 210.315C1769.56 233.481 1773.99 253.93 1782.85 271.662C1792.01 289.108 1804.45 302.979 1820.18 313.275C1835.91 323.285 1853.64 328.29 1873.37 328.29C1883.96 328.29 1893.97 326.86 1903.4 324C1913.13 320.854 1921.71 316.707 1929.14 311.559C1934.82 307.563 1939.65 303.258 1943.63 298.644ZM1936.39 176.003L1936.39 175.993C1931.6 165.847 1925 158.136 1916.6 152.816L1916.59 152.809L1916.58 152.803C1908.18 147.204 1898.37 144.391 1887.1 144.391C1875.84 144.391 1866.02 147.204 1857.63 152.803L1857.62 152.807C1849.5 158.126 1843.04 165.838 1838.24 175.993C1833.74 185.847 1831.47 197.28 1831.47 210.315C1831.47 223.638 1833.74 235.213 1838.24 245.064C1843.03 254.929 1849.5 262.65 1857.63 268.26C1866.03 273.856 1875.84 276.668 1887.1 276.668C1898.37 276.668 1908.18 273.854 1916.58 268.256C1925 262.642 1931.6 254.919 1936.39 245.056C1941.18 235.207 1943.59 223.636 1943.59 210.315C1943.59 197.283 1941.18 185.854 1936.39 176.003ZM1857.07 269.088C1848.78 263.368 1842.2 255.503 1837.34 245.493C1832.76 235.483 1830.47 223.757 1830.47 210.315C1830.47 197.159 1832.76 185.576 1837.34 175.566C1842.2 165.27 1848.78 157.405 1857.07 151.971C1865.65 146.251 1875.66 143.391 1887.1 143.391C1898.54 143.391 1908.55 146.251 1917.13 151.971C1925.71 157.405 1932.43 165.27 1937.29 175.566C1942.16 185.576 1944.59 197.159 1944.59 210.315C1944.59 223.757 1942.16 235.483 1937.29 245.493C1932.43 255.503 1925.71 263.368 1917.13 269.088C1908.55 274.808 1898.54 277.668 1887.1 277.668C1875.66 277.668 1865.65 274.808 1857.07 269.088ZM2260.09 294.399C2251.8 301.835 2242.64 308.127 2232.63 313.275C2222.62 318.137 2212.33 321.855 2201.75 324.429C2191.16 327.003 2180.72 328.29 2170.43 328.29C2145.83 328.29 2124.38 323.285 2106.08 313.275C2087.78 303.265 2073.47 289.537 2063.18 272.091C2052.88 254.645 2047.73 234.625 2047.73 212.031C2047.73 194.585 2050.59 178.569 2056.31 163.983C2062.03 149.397 2070.04 136.813 2080.34 126.231C2090.64 115.363 2102.79 107.069 2116.8 101.349C2131.1 95.3428 2146.55 92.3398 2163.14 92.3398C2178.58 92.3398 2192.88 95.1998 2206.04 100.92C2219.19 106.354 2230.49 114.219 2239.93 124.515C2249.65 134.525 2257.09 146.394 2262.24 160.122C2267.38 173.85 2269.67 188.865 2269.1 205.167L2268.67 224.043H2106.82C2106.89 224.378 2106.96 224.711 2107.03 225.043C2108.45 231.545 2110.71 237.504 2113.8 242.919C2119.81 252.929 2128.1 260.794 2138.68 266.514C2149.55 271.948 2162.28 274.665 2176.86 274.665C2186.87 274.665 2196.03 273.092 2204.32 269.946C2212.39 266.886 2220.99 261.663 2230.14 254.276C2230.4 254.067 2230.66 253.856 2230.92 253.644L2260.09 294.399ZM2139.14 265.626C2149.84 270.974 2162.41 273.665 2176.86 273.665C2186.77 273.665 2195.8 272.109 2203.97 269.011C2212.13 265.914 2220.9 260.547 2230.28 252.87L2231.11 252.194L2261.42 294.545L2260.76 295.143C2252.4 302.637 2243.18 308.977 2233.09 314.164L2233.08 314.169L2233.07 314.174C2223 319.067 2212.64 322.809 2201.98 325.401C2191.33 327.992 2180.81 329.29 2170.43 329.29C2145.7 329.29 2124.07 324.256 2105.6 314.152C2087.14 304.058 2072.71 290.205 2062.32 272.599C2051.92 254.982 2046.73 234.782 2046.73 212.031C2046.73 194.474 2049.61 178.333 2055.38 163.618C2061.15 148.919 2069.22 136.222 2079.62 125.54C2090.01 114.57 2102.28 106.197 2116.42 100.424C2130.85 94.3649 2146.43 91.3398 2163.14 91.3398C2178.7 91.3398 2193.14 94.2224 2206.42 99.998C2219.7 105.484 2231.12 113.428 2240.65 123.827C2250.47 133.939 2257.98 145.924 2263.17 159.771C2268.37 173.632 2270.67 188.775 2270.1 205.19L2270.1 205.202L2269.65 225.043H2108.05C2109.46 231.368 2111.66 237.156 2114.66 242.413C2120.57 252.256 2128.72 259.991 2139.14 265.626ZM2211.61 186.72V185.004C2211.04 177.282 2208.47 170.275 2203.89 163.983C2199.6 157.691 2194.02 152.829 2187.16 149.397C2180.3 145.965 2172.57 144.249 2163.99 144.249C2151.41 144.249 2140.69 146.68 2131.82 151.542C2123.24 156.404 2116.66 163.554 2112.08 172.992C2110.19 176.893 2108.69 181.135 2107.58 185.72C2107.5 186.051 2107.43 186.385 2107.35 186.72H2211.61ZM2108.61 185.72H2210.61V185.042C2210.05 177.52 2207.54 170.703 2203.08 164.571L2203.07 164.559L2203.06 164.546C2198.87 158.396 2193.43 153.648 2186.71 150.291C2180 146.937 2172.44 145.249 2163.99 145.249C2151.54 145.249 2140.99 147.654 2132.31 152.415C2123.92 157.17 2117.48 164.162 2112.98 173.428C2111.16 177.192 2109.7 181.289 2108.61 185.72ZM2311.08 148.944L2311.08 148.938C2320.31 131.066 2332.72 117.059 2348.32 106.947C2363.94 96.5375 2381.72 91.3398 2401.63 91.3398C2412.88 91.3398 2423.15 93.0697 2432.43 96.5451C2441.96 99.7241 2450.21 104.209 2457.18 110.01C2462.38 114.172 2466.98 118.785 2470.99 123.85V96.0588H2533.48V325H2470.13V297.116C2465.79 302.167 2460.74 306.82 2455 311.075L2454.99 311.079C2447.47 316.574 2438.95 321.049 2429.43 324.511L2429.42 324.515L2429.41 324.52C2419.86 327.702 2409.74 329.29 2399.06 329.29C2379.99 329.29 2362.78 324.085 2347.45 313.673C2332.14 303.273 2320.01 289.123 2311.08 271.251C2302.13 253.36 2297.67 232.897 2297.67 209.886C2297.67 186.875 2302.13 166.552 2311.08 148.944ZM2470.13 295.569C2470.47 295.165 2470.8 294.758 2471.13 294.349V324H2532.48V97.0588H2471.99V126.809C2471.66 126.362 2471.33 125.918 2470.99 125.477C2466.85 120.075 2462.03 115.178 2456.55 110.787C2449.68 105.067 2441.53 100.634 2432.09 97.4878C2422.94 94.0558 2412.79 92.3398 2401.63 92.3398C2381.9 92.3398 2364.31 97.4878 2348.87 107.784C2333.42 117.794 2321.12 131.665 2311.97 149.397C2303.11 166.843 2298.67 187.006 2298.67 209.886C2298.67 232.766 2303.11 253.072 2311.97 270.804C2320.84 288.536 2332.85 302.55 2348.01 312.846C2363.17 323.142 2380.18 328.29 2399.06 328.29C2409.64 328.29 2419.65 326.717 2429.09 323.571C2438.53 320.139 2446.96 315.706 2454.4 310.272C2460.43 305.807 2465.67 300.906 2470.13 295.569ZM2464.65 244.209L2464.65 244.198C2469.44 234.347 2471.85 222.918 2471.85 209.886C2471.85 197.143 2469.44 186.004 2464.66 176.442L2464.65 176.431L2464.65 176.421C2460.15 166.858 2453.7 159.429 2445.29 154.103L2445.28 154.096L2445.27 154.09C2436.87 148.491 2427.06 145.678 2415.79 145.678C2404.82 145.678 2395.15 148.488 2386.74 154.09L2386.74 154.094C2378.6 159.422 2372.14 166.86 2367.35 176.442C2362.57 186.004 2360.16 197.143 2360.16 209.886C2360.16 222.913 2362.57 234.339 2367.35 244.188C2372.14 253.766 2378.6 261.203 2386.73 266.53C2395.13 271.851 2404.81 274.523 2415.79 274.523C2427.07 274.523 2436.89 271.847 2445.29 266.527C2453.7 261.201 2460.15 253.772 2464.65 244.209ZM2386.19 267.372C2377.9 261.938 2371.32 254.359 2366.46 244.635C2361.59 234.625 2359.16 223.042 2359.16 209.886C2359.16 197.016 2361.59 185.719 2366.46 175.995C2371.32 166.271 2377.9 158.692 2386.19 153.258C2394.77 147.538 2404.64 144.678 2415.79 144.678C2427.23 144.678 2437.24 147.538 2445.82 153.258C2454.4 158.692 2460.98 166.271 2465.55 175.995C2470.42 185.719 2472.85 197.016 2472.85 209.886C2472.85 223.042 2470.42 234.625 2465.55 244.635C2460.98 254.359 2454.4 261.938 2445.82 267.372C2437.24 272.806 2427.23 275.523 2415.79 275.523C2404.64 275.523 2394.77 272.806 2386.19 267.372ZM2592.98 325V5.53982H2655.9V325H2592.98ZM2736.07 318.914L2736.06 318.91C2719.63 311.704 2706.34 301.889 2696.21 289.453L2695.6 288.7L2734.81 254.834L2735.47 255.533C2744.24 264.872 2753.99 271.645 2764.7 275.875C2775.46 279.839 2786.21 281.816 2796.95 281.816C2801.16 281.816 2804.93 281.395 2808.26 280.565C2811.88 279.449 2814.92 278.065 2817.38 276.427C2819.83 274.516 2821.57 272.361 2822.63 269.969L2822.64 269.948L2822.65 269.928C2824.01 267.204 2824.69 264.354 2824.69 261.366C2824.69 255.425 2822.29 250.736 2817.45 247.209C2814.65 245.819 2810.3 244.133 2804.35 242.152L2804.33 242.145L2804.31 242.137C2798.35 239.866 2790.66 237.445 2781.25 234.877C2766.62 231.148 2754.12 226.839 2743.75 221.944L2743.74 221.937L2743.72 221.929C2733.64 216.744 2725.53 210.963 2719.43 204.57L2719.41 204.551L2719.4 204.531C2714.18 198.45 2710.12 191.926 2707.22 184.959L2707.21 184.937L2707.2 184.914C2704.58 177.642 2703.28 169.661 2703.28 160.98C2703.28 150.534 2705.6 141.073 2710.27 132.621C2714.91 123.909 2721.3 116.506 2729.42 110.416L2729.43 110.411L2729.44 110.406C2737.82 104.331 2747.36 99.7089 2758.04 96.5334C2768.72 93.0695 2779.98 91.3398 2791.8 91.3398C2803.61 91.3398 2815.13 92.78 2826.37 95.6611C2837.6 98.541 2847.97 102.719 2857.49 108.196C2867.29 113.385 2875.8 119.589 2883.02 126.811L2883.7 127.483L2849.77 164.982L2849.03 164.281C2843.93 159.471 2838.13 155.08 2831.6 151.109L2831.6 151.104L2831.59 151.098C2825.36 147.137 2818.86 144.027 2812.07 141.766C2805.28 139.501 2799.24 138.385 2793.94 138.385C2789.14 138.385 2784.78 138.808 2780.86 139.648C2777.24 140.485 2774.21 141.73 2771.76 143.365C2769.34 144.977 2767.46 147.124 2766.1 149.825C2765.03 152.252 2764.48 154.964 2764.48 157.977C2764.48 160.953 2765.16 163.792 2766.51 166.506C2768.14 169.21 2770.3 171.517 2773.02 173.428C2776.11 175.105 2780.61 177.078 2786.57 179.347C2792.82 181.621 2801.23 184.186 2811.79 187.041L2811.53 188.007C2800.95 185.147 2792.51 182.573 2786.22 180.285C2780.22 177.997 2775.64 175.995 2772.49 174.279C2769.63 172.277 2767.35 169.846 2765.63 166.986C2764.2 164.126 2763.48 161.123 2763.48 157.977C2763.48 154.831 2764.06 151.971 2765.2 149.397C2766.63 146.537 2768.63 144.249 2771.21 142.533C2773.78 140.817 2776.93 139.53 2780.64 138.672C2784.65 137.814 2789.08 137.385 2793.94 137.385C2799.38 137.385 2805.53 138.529 2812.39 140.817C2819.25 143.105 2825.83 146.251 2832.12 150.255C2838.39 154.071 2844.01 158.276 2848.98 162.871C2849.23 163.098 2849.47 163.325 2849.71 163.554L2882.32 127.518C2875.17 120.368 2866.73 114.219 2857.01 109.071C2847.57 103.637 2837.27 99.4898 2826.12 96.6298C2814.96 93.7698 2803.52 92.3398 2791.8 92.3398C2780.07 92.3398 2768.92 94.0558 2758.34 97.4878C2747.75 100.634 2738.32 105.21 2730.02 111.216C2722.01 117.222 2715.72 124.515 2711.15 133.095C2706.57 141.389 2704.28 150.684 2704.28 160.98C2704.28 169.56 2705.57 177.425 2708.14 184.575C2711 191.439 2715.01 197.874 2720.16 203.88C2726.16 210.172 2734.17 215.892 2744.18 221.04C2754.48 225.902 2766.92 230.192 2781.5 233.91C2790.94 236.484 2798.66 238.915 2804.67 241.203C2810.67 243.205 2815.11 244.921 2817.97 246.351C2823.12 250.069 2825.69 255.074 2825.69 261.366C2825.69 264.512 2824.97 267.515 2823.54 270.375C2822.4 272.949 2820.54 275.237 2817.97 277.239C2815.39 278.955 2812.25 280.385 2808.53 281.529C2805.1 282.387 2801.24 282.816 2796.95 282.816C2786.08 282.816 2775.21 280.814 2764.34 276.81C2753.47 272.52 2743.61 265.656 2734.74 256.218L2696.99 288.822C2707 301.12 2720.16 310.844 2736.46 317.994C2753.05 324.858 2771.92 328.29 2793.09 328.29C2810.25 328.29 2825.69 325.287 2839.42 319.281C2853.15 312.989 2863.87 304.409 2871.59 293.541C2879.6 282.387 2883.6 269.803 2883.6 255.789C2883.6 247.781 2882.46 240.488 2880.17 233.91C2877.88 227.332 2874.31 221.469 2869.45 216.321C2863.73 210.315 2856.01 205.024 2846.28 200.448C2836.84 195.872 2825.26 191.725 2811.53 188.007L2811.79 187.041C2825.56 190.77 2837.2 194.936 2846.71 199.546C2856.52 204.159 2864.35 209.515 2870.17 215.631L2870.17 215.634C2875.13 220.883 2878.78 226.868 2881.12 233.581C2883.45 240.279 2884.6 247.685 2884.6 255.789C2884.6 270.006 2880.54 282.793 2872.41 294.12C2864.57 305.149 2853.7 313.835 2839.83 320.19L2839.83 320.194L2839.82 320.197C2825.95 326.266 2810.36 329.29 2793.09 329.29C2771.81 329.29 2752.8 325.84 2736.08 318.918L2736.07 318.914ZM2593.98 324H2654.9V6.53982H2593.98V324Z" fill="#FFE7B7"/>
</svg>
