<svg width="66" height="75" viewBox="0 0 66 75" fill="none" xmlns="http://www.w3.org/2000/svg">
<path fill-rule="evenodd" clip-rule="evenodd" d="M33.0003 5.85107C24.9774 5.85107 18.4736 12.281 18.4736 20.2128C18.4736 28.1445 24.9774 34.5745 33.0003 34.5745C41.0233 34.5745 47.5271 28.1445 47.5271 20.2128C47.5271 12.281 41.0233 5.85107 33.0003 5.85107ZM12.5552 20.2128C12.5552 9.04957 21.7088 0 33.0003 0C44.2919 0 53.4454 9.04957 53.4454 20.2128C53.4454 31.376 44.2919 40.4256 33.0003 40.4256C21.7088 40.4256 12.5552 31.376 12.5552 20.2128Z" fill="#FFB82E"/>
<path fill-rule="evenodd" clip-rule="evenodd" d="M0 72.0745C0 56.5454 15.3861 44.9468 33 44.9468C50.6139 44.9468 66 56.5454 66 72.0745C66 73.6902 64.6751 75 63.0408 75C61.4065 75 60.0817 73.6902 60.0817 72.0745C60.0817 60.8429 48.5395 50.7979 33 50.7979C17.4605 50.7979 5.91832 60.8429 5.91832 72.0745C5.91832 73.6902 4.59346 75 2.95916 75C1.32486 75 0 73.6902 0 72.0745Z" fill="#FFB82E"/>
</svg>
