<svg width="205" height="187" viewBox="0 0 205 187" fill="none" xmlns="http://www.w3.org/2000/svg">
<path d="M25.6622 83.7905C25.6622 73.287 34.1577 64.7723 44.6374 64.7723H185.713C196.193 64.7723 204.688 73.287 204.688 83.7905V167.03C204.688 177.533 196.193 186.048 185.713 186.048H44.6374C34.1577 186.048 25.6622 177.533 25.6622 167.03V83.7905Z" fill="#FFB45C"/>
<path d="M36.6623 87.9249C36.6623 78.9437 43.9265 71.6629 52.8874 71.6629H177.463C186.424 71.6629 193.688 78.9437 193.688 87.9249V162.895C193.688 171.877 186.424 179.157 177.463 179.157H52.8874C43.9265 179.157 36.6623 171.877 36.6623 162.895V87.9249Z" fill="white"/>
<path d="M125.543 0L194.365 37.6343L127.655 160.184L58.8325 122.55L125.543 0Z" fill="#6FA367"/>
<path d="M84.8377 7.62542L160.219 29.2181L121.943 163.447L46.5624 141.854L84.8377 7.62542Z" fill="#78AB70"/>
<path d="M25.6622 83.7905C25.6622 73.287 34.1577 64.7723 44.6374 64.7723H163.713C174.193 64.7723 182.688 73.287 182.688 83.7905V167.03C182.688 177.533 174.193 186.048 163.713 186.048H44.6374C34.1577 186.048 25.6622 177.533 25.6622 167.03V83.7905Z" fill="#FFCE71"/>
<path d="M160.963 109.975H204.688V140.845H160.963C160.963 140.845 149.688 140.845 149.688 125.41C149.688 109.975 160.963 109.975 160.963 109.975Z" fill="#FFB45C"/>
<path d="M159.313 125.41C159.313 121.757 162.268 118.795 165.913 118.795C169.558 118.795 172.513 121.757 172.513 125.41C172.513 129.064 169.558 132.025 165.913 132.025C162.268 132.025 159.313 129.064 159.313 125.41Z" fill="#F1D091"/>
<path d="M0.637062 176.401V183.567H13.0121V173.92H3.11208C1.74517 173.92 0.637062 175.031 0.637062 176.401Z" fill="#FFC557"/>
<path d="M72.4125 183.567V176.401C72.4125 175.031 71.3044 173.92 69.9375 173.92H20.9872V183.567H72.4125Z" fill="#FFC557"/>
<path fill-rule="evenodd" clip-rule="evenodd" d="M0.637062 183.567C0.637062 184.937 1.74517 186.048 3.11208 186.048H69.9375C71.3044 186.048 72.4125 184.937 72.4125 183.567H20.9872H13.0121H0.637062Z" fill="#FFB82E"/>
<path d="M13.0121 173.92V183.567H20.9872V173.92H13.0121Z" fill="#FFDD9B"/>
<path d="M0.362061 164.273V171.44H12.7371V161.793H2.83708C1.47016 161.793 0.362061 162.903 0.362061 164.273Z" fill="#FFC557"/>
<path d="M72.1375 171.44V164.273C72.1375 162.903 71.0294 161.793 69.6625 161.793H20.7122V171.44H72.1375Z" fill="#FFC557"/>
<path fill-rule="evenodd" clip-rule="evenodd" d="M0.362061 171.44C0.362061 172.81 1.47016 173.92 2.83708 173.92H69.6625C71.0294 173.92 72.1375 172.81 72.1375 171.44H20.7122H12.7371H0.362061Z" fill="#FFB82E"/>
<path d="M12.7371 161.793V171.44H20.7122V161.793H12.7371Z" fill="#FFDD9B"/>
<path d="M0.362061 152.146V159.312H12.7371V149.665H2.83708C1.47016 149.665 0.362061 150.776 0.362061 152.146Z" fill="#FFC557"/>
<path d="M72.1375 159.312V152.146C72.1375 150.776 71.0294 149.665 69.6625 149.665H20.7122V159.312H72.1375Z" fill="#FFC557"/>
<path fill-rule="evenodd" clip-rule="evenodd" d="M0.362061 159.312C0.362061 160.682 1.47016 161.793 2.83708 161.793H69.6625C71.0294 161.793 72.1375 160.682 72.1375 159.312H20.7122H12.7371H0.362061Z" fill="#FFB82E"/>
<path d="M12.7371 149.665V159.312H20.7122V149.665H12.7371Z" fill="#FFDD9B"/>
<path fill-rule="evenodd" clip-rule="evenodd" d="M72.275 186.048C52.4548 186.048 36.3873 169.944 36.3873 150.079C36.3873 130.213 52.4548 114.109 72.275 114.109C92.0953 114.109 108.163 130.213 108.163 150.079C108.163 169.944 92.0953 186.048 72.275 186.048ZM44.0775 150.079C44.0775 165.687 56.702 178.34 72.275 178.34C87.8481 178.34 100.473 165.687 100.473 150.079C100.473 134.47 87.8481 121.817 72.275 121.817C56.702 121.817 44.0775 134.47 44.0775 150.079Z" fill="#FFB82E"/>
<path fill-rule="evenodd" clip-rule="evenodd" d="M72.275 178.34C56.702 178.34 44.0775 165.687 44.0775 150.079C44.0775 134.47 56.702 121.817 72.275 121.817C87.8481 121.817 100.473 134.47 100.473 150.079C100.473 165.687 87.8481 178.34 72.275 178.34ZM49.2044 150.079C49.2044 162.849 59.5335 173.202 72.275 173.202C85.0166 173.202 95.3457 162.849 95.3457 150.079C95.3457 137.308 85.0166 126.956 72.275 126.956C59.5335 126.956 49.2044 137.308 49.2044 150.079Z" fill="#FFDD9B"/>
<path d="M72.275 173.202C59.5335 173.202 49.2044 162.849 49.2044 150.079C49.2044 137.308 59.5335 126.956 72.275 126.956C85.0166 126.956 95.3457 137.308 95.3457 150.079C95.3457 162.849 85.0166 173.202 72.275 173.202Z" fill="#FFC557"/>
</svg>
