<svg width="192" height="66" viewBox="0 0 192 66" fill="none" xmlns="http://www.w3.org/2000/svg">
<path fill-rule="evenodd" clip-rule="evenodd" d="M16.7874 53.9051C31.5732 53.9051 43.5595 44.4717 43.5595 26.9526C43.5595 9.4334 31.5732 0 16.7874 0H0.535443C0.239726 0 0 0.241342 0 0.539051V53.3661C0 53.6638 0.239726 53.9051 0.535443 53.9051H16.7874ZM34.1893 26.9526C34.1893 40.4289 25.1996 44.4717 14.1102 44.4717H9.32513C9.24494 44.4717 9.17993 44.4065 9.17993 44.326V9.57909C9.17993 9.49863 9.24494 9.4334 9.32513 9.4334H14.1102C25.1996 9.4334 34.1893 13.4763 34.1893 26.9526Z" fill="#FFB82E"/>
<path fill-rule="evenodd" clip-rule="evenodd" d="M66.0653 53.9051C56.0415 53.9051 47.9155 45.7517 47.9155 35.6939C47.9155 25.6362 56.0415 17.4827 66.0653 17.4827C76.0892 17.4827 84.2151 25.6362 84.2151 35.6939C84.2151 45.7517 76.0892 53.9051 66.0653 53.9051ZM74.7772 35.6939C74.7772 40.5217 70.8768 44.4353 66.0653 44.4353C61.2539 44.4353 57.3534 40.5217 57.3534 35.6939C57.3534 30.8662 61.2539 26.9526 66.0653 26.9526C70.8768 26.9526 74.7772 30.8662 74.7772 35.6939Z" fill="#FFB82E"/>
<path d="M89.2971 32.0517V53.9051H98.009V33.5086C98.009 29.4855 101.259 26.2241 105.269 26.2241H107.447L110.351 17.4827H103.817C95.7978 17.4827 89.2971 24.0055 89.2971 32.0517Z" fill="#FFB82E"/>
<path d="M115.982 44.7995L112.529 53.9051H127.878C127.878 53.9051 139.391 53.9051 139.391 42.5231C139.391 31.1411 127.878 31.1411 127.878 31.1411H124.041C124.041 31.1411 121.739 31.1411 121.739 28.8647C121.739 26.5883 124.041 26.5883 124.041 26.5883H136.704L139.391 17.4827H124.041C124.041 17.4827 112.529 17.4827 112.529 28.8647C112.529 40.2467 124.041 40.2467 124.041 40.2467H127.878C127.878 40.2467 130.181 40.2467 130.181 42.5231C130.181 44.7995 127.878 44.7995 127.878 44.7995H115.982Z" fill="#FFB82E"/>
<path d="M145.199 9.61312L153.91 7.28448V53.9051H145.199V9.61312Z" fill="#FFB82E"/>
<path d="M164.074 65.1961H172.786L191.299 17.4827H182.587L175.146 36.6616L167.704 17.4827H158.992L170.79 47.8883L164.074 65.1961Z" fill="#FFB82E"/>
</svg>
