<svg width="15" height="17" viewBox="0 0 15 17" fill="none" xmlns="http://www.w3.org/2000/svg">
<path d="M1 15L1.29625 11.8226C1.44005 10.2804 2.73434 9.10112 4.2833 9.10112H6.5M6.5 6.50562C4.98122 6.50562 3.75 5.27314 3.75 3.75281C3.75 2.23248 4.98122 1 6.5 1C8.01878 1 9.25 2.23248 9.25 3.75281C9.25 5.27314 8.01878 6.50562 6.5 6.50562Z" stroke="white" stroke-linecap="round"/>
<path d="M9.82664 9.40709C9.8476 9.17653 10.0409 9 10.2724 9H10.7276C10.9591 9 11.1524 9.17653 11.1734 9.40709C11.1906 9.59637 11.3268 9.7509 11.5048 9.8176C11.5505 9.83475 11.5957 9.85303 11.6404 9.87242C11.8165 9.94895 12.0236 9.93428 12.1711 9.81136C12.3534 9.65947 12.6214 9.67163 12.7891 9.8394L13.1104 10.1607C13.2704 10.3206 13.282 10.5762 13.1371 10.75C13.0165 10.8947 13.0053 11.0991 13.0864 11.2692C13.1215 11.3429 13.1536 11.4182 13.1824 11.4952C13.2491 11.6732 13.4036 11.8094 13.5929 11.8266C13.8235 11.8476 14 12.0409 14 12.2724V12.7276C14 12.9591 13.8235 13.1524 13.5929 13.1734C13.4036 13.1906 13.2491 13.3268 13.1824 13.5048C13.1565 13.5739 13.128 13.6417 13.0971 13.7081C13.0219 13.8696 13.034 14.0623 13.148 14.1991C13.2867 14.3655 13.2756 14.6102 13.1224 14.7633L12.7633 15.1224C12.6102 15.2756 12.3655 15.2867 12.1991 15.148C12.0623 15.034 11.8696 15.0219 11.7081 15.0971C11.6417 15.128 11.5739 15.1565 11.5048 15.1824C11.3268 15.2491 11.1906 15.4036 11.1734 15.5929C11.1524 15.8235 10.9591 16 10.7276 16H10.2724C10.0409 16 9.8476 15.8235 9.82664 15.5929C9.80942 15.4036 9.67318 15.2491 9.49521 15.1824C9.41824 15.1536 9.34285 15.1215 9.2692 15.0864C9.09911 15.0053 8.89472 15.0165 8.74997 15.1371C8.57618 15.282 8.32064 15.2704 8.16068 15.1104L7.8394 14.7891C7.67163 14.6214 7.65947 14.3534 7.81136 14.1711C7.93429 14.0236 7.94895 13.8165 7.87242 13.6404C7.85303 13.5957 7.83475 13.5506 7.8176 13.5048C7.7509 13.3268 7.59637 13.1906 7.40709 13.1734C7.17653 13.1524 7 12.9591 7 12.7276V12.2724C7 12.0409 7.17653 11.8476 7.40709 11.8266C7.59638 11.8094 7.7509 11.6732 7.8176 11.4952C7.83776 11.4414 7.85949 11.3884 7.88273 11.3362C7.96498 11.1515 7.95131 10.9329 7.82187 10.7776C7.66403 10.5882 7.67666 10.3096 7.85101 10.1353L8.13527 9.85101C8.30962 9.67666 8.58815 9.66403 8.77757 9.82188C8.9329 9.95132 9.1515 9.96498 9.33621 9.88273C9.3884 9.85949 9.44142 9.83776 9.49521 9.8176C9.67318 9.7509 9.80942 9.59638 9.82664 9.40709Z" stroke="white" stroke-width="0.75" stroke-linecap="round" stroke-linejoin="round"/>
<path d="M11.55 12.5C11.55 13.0799 11.0799 13.55 10.5 13.55C9.92008 13.55 9.45 13.0799 9.45 12.5C9.45 11.9201 9.92008 11.45 10.5 11.45C11.0799 11.45 11.55 11.9201 11.55 12.5Z" stroke="white" stroke-width="0.75" stroke-linecap="round" stroke-linejoin="round"/>
</svg>
