<svg width="185" height="172" viewBox="0 0 185 172" fill="none" xmlns="http://www.w3.org/2000/svg">
<path d="M0.365887 31.2276C0.365887 17.9007 11.1748 7.09718 24.5082 7.09718H150.901C164.234 7.09718 175.043 17.9007 175.043 31.2276V43.1577C175.043 71.4654 172.302 99.6966 178.134 127.398L180.579 139.01C183.684 153.758 172.653 167.711 157.579 168.101L25.1335 171.678C11.5597 172.03 3.20616 161.127 3.20616 147.556L0.365887 85.7339V31.2276Z" fill="white"/>
<path d="M0.365887 31.2276C0.365887 17.9007 11.1748 7.09718 24.5082 7.09718H150.901C164.234 7.09718 175.043 17.9007 175.043 31.2276V35.0548C175.043 68.7094 173.564 102.232 181.87 134.847C185.648 149.682 174.671 164.186 159.361 164.588L25.1424 168.262C11.5653 168.619 3.20616 157.715 3.20616 144.14L0.365887 85.7339V31.2276Z" fill="#F9F9F9"/>
<path fill-rule="evenodd" clip-rule="evenodd" d="M180.679 123.39C173.175 98.42 175.043 72.4878 175.043 46.4155H0.365887V85.7339L0.129179 134.755C-0.742921 148.649 7.4558 160.396 21.3839 160.396H164.461C178.085 160.396 187.855 147.267 183.935 134.225L180.679 123.39Z" fill="white"/>
<path d="M175.043 31.2276C175.043 17.9007 164.234 7.09718 150.901 7.09718H24.5082C11.1748 7.09718 0.365887 17.9007 0.365887 31.2276V46.4155H175.043V31.2276Z" fill="#FFB82E"/>
<path d="M24.7923 1.70332C24.7923 0.762603 25.5553 0 26.4964 0H31.0409C31.9821 0 32.745 0.762603 32.745 1.70332V23.5626C32.745 24.5033 31.9821 25.2659 31.0409 25.2659H26.4964C25.5553 25.2659 24.7923 24.5033 24.7923 23.5626V1.70332Z" fill="white"/>
<path d="M63.7041 1.70332C63.7041 0.762603 64.467 0 65.4082 0H69.9527C70.8939 0 71.6568 0.762603 71.6568 1.70332V23.5626C71.6568 24.5033 70.8939 25.2659 69.9527 25.2659H65.4082C64.467 25.2659 63.7041 24.5033 63.7041 23.5626V1.70332Z" fill="white"/>
<path d="M102.616 1.70332C102.616 0.762603 103.379 0 104.32 0H108.864C109.806 0 110.569 0.762603 110.569 1.70332V23.5626C110.569 24.5033 109.806 25.2659 108.864 25.2659H104.32C103.379 25.2659 102.616 24.5033 102.616 23.5626V1.70332Z" fill="white"/>
<path d="M141.528 1.70332C141.528 0.762603 142.291 0 143.232 0H147.776C148.717 0 149.48 0.762603 149.48 1.70332V23.5626C149.48 24.5033 148.717 25.2659 147.776 25.2659H143.232C142.291 25.2659 141.528 24.5033 141.528 23.5626V1.70332Z" fill="white"/>
<path d="M21.3839 62.1713C21.3839 60.917 22.4012 59.9002 23.6562 59.9002H43.8221C45.077 59.9002 46.0943 60.917 46.0943 62.1713V75.514C46.0943 76.7683 45.077 77.7851 43.8221 77.7851H23.6562C22.4012 77.7851 21.3839 76.7683 21.3839 75.514V62.1713Z" fill="#F1F1F1"/>
<path d="M94.095 62.1713C94.095 60.917 95.1123 59.9002 96.3672 59.9002H116.533C117.788 59.9002 118.805 60.917 118.805 62.1713V75.514C118.805 76.7683 117.788 77.7851 116.533 77.7851H96.3672C95.1123 77.7851 94.095 76.7683 94.095 75.514V62.1713Z" fill="#F1F1F1"/>
<path d="M130.451 62.1713C130.451 60.917 131.468 59.9002 132.723 59.9002H152.889C154.144 59.9002 155.161 60.917 155.161 62.1713V75.514C155.161 76.7683 154.144 77.7851 152.889 77.7851H132.723C131.468 77.7851 130.451 76.7683 130.451 75.514V62.1713Z" fill="#F1F1F1"/>
<path d="M57.7395 62.1713C57.7395 60.917 58.7568 59.9002 60.0117 59.9002H80.1777C81.4326 59.9002 82.4499 60.917 82.4499 62.1713V75.514C82.4499 76.7683 81.4326 77.7851 80.1777 77.7851H60.0117C58.7568 77.7851 57.7395 76.7683 57.7395 75.514V62.1713Z" fill="#F1F1F1"/>
<path d="M21.3839 89.4244C21.3839 88.1701 22.4012 87.1533 23.6562 87.1533H43.8221C45.077 87.1533 46.0943 88.1701 46.0943 89.4244V102.767C46.0943 104.021 45.077 105.038 43.8221 105.038H23.6562C22.4012 105.038 21.3839 104.021 21.3839 102.767V89.4244Z" fill="#F1F1F1"/>
<path d="M94.095 89.4244C94.095 88.1701 95.1123 87.1533 96.3672 87.1533H116.533C117.788 87.1533 118.805 88.1701 118.805 89.4244V102.767C118.805 104.021 117.788 105.038 116.533 105.038H96.3672C95.1123 105.038 94.095 104.021 94.095 102.767V89.4244Z" fill="#F1F1F1"/>
<path d="M130.451 89.4244C130.451 88.1701 131.468 87.1533 132.723 87.1533H152.889C154.144 87.1533 155.161 88.1701 155.161 89.4244V102.767C155.161 104.021 154.144 105.038 152.889 105.038H132.723C131.468 105.038 130.451 104.021 130.451 102.767V89.4244Z" fill="#F1F1F1"/>
<path d="M57.7395 89.4244C57.7395 88.1701 58.7568 87.1533 60.0117 87.1533H80.1777C81.4326 87.1533 82.4499 88.1701 82.4499 89.4244V102.767C82.4499 104.021 81.4326 105.038 80.1777 105.038H60.0117C58.7568 105.038 57.7395 104.021 57.7395 102.767V89.4244Z" fill="#F1F1F1"/>
<path d="M21.3839 116.678C21.3839 115.423 22.4012 114.406 23.6562 114.406H43.8221C45.077 114.406 46.0943 115.423 46.0943 116.678V130.02C46.0943 131.275 45.077 132.291 43.8221 132.291H23.6562C22.4012 132.291 21.3839 131.275 21.3839 130.02V116.678Z" fill="#F1F1F1"/>
<path d="M94.095 116.678C94.095 115.423 95.1123 114.406 96.3672 114.406H116.533C117.788 114.406 118.805 115.423 118.805 116.678V130.02C118.805 131.275 117.788 132.291 116.533 132.291H96.3672C95.1123 132.291 94.095 131.275 94.095 130.02V116.678Z" fill="#F1F1F1"/>
<path d="M130.451 116.678C130.451 115.423 131.468 114.406 132.723 114.406H152.889C154.144 114.406 155.161 115.423 155.161 116.678V130.02C155.161 131.275 154.144 132.291 152.889 132.291H132.723C131.468 132.291 130.451 131.275 130.451 130.02V116.678Z" fill="#F1F1F1"/>
<path d="M57.7395 116.678C57.7395 115.423 58.7568 114.406 60.0117 114.406H80.1777C81.4326 114.406 82.4499 115.423 82.4499 116.678V130.02C82.4499 131.275 81.4326 132.291 80.1777 132.291H60.0117C58.7568 132.291 57.7395 131.275 57.7395 130.02V116.678Z" fill="#F1F1F1"/>
<path d="M175.121 104.896L142.806 160.396L135.632 129.038C133.2 118.406 140.774 108.092 151.651 107.224L175.121 104.896Z" fill="#F8F8F8"/>
<path d="M113.436 85.2548C110.62 84.0012 107.547 83.3026 104.456 83.4752C94.7263 84.0187 87.5026 94.7793 94.7789 102.966C99.7233 108.53 108.033 108.151 114.221 105.216C116.89 103.95 119.536 102.097 120.775 99.3156C121.81 96.9922 121.583 94.4602 120.937 92.0628C120.116 89.0206 118.478 86.2327 115.84 84.4401C109.768 80.315 96.6893 80.023 91.5974 86.1355C96.6023 78.9141 110.376 78.5235 117.147 82.874C120.309 84.9056 122.283 88.1951 123.291 91.758C124.131 94.7303 124.242 97.8432 122.908 100.689C121.448 103.806 118.572 105.973 115.556 107.459C108.035 111.165 97.6697 111.093 92.3418 103.649C85.6323 94.2734 93.3544 82.8299 104.102 82.846C107.374 82.851 110.539 83.7599 113.436 85.2548Z" fill="#FF6B6B"/>
</svg>
