<svg width="204" height="204" viewBox="0 0 204 204" fill="none" xmlns="http://www.w3.org/2000/svg">
<path fill-rule="evenodd" clip-rule="evenodd" d="M169.199 34.801C132.086 -2.31206 71.914 -2.31206 34.801 34.801C-2.31206 71.914 -2.31206 132.086 34.801 169.199C71.914 206.312 132.086 206.312 169.199 169.199C206.312 132.086 206.312 71.914 169.199 34.801ZM29.8751 29.8751C69.7086 -9.95837 134.291 -9.95837 174.125 29.8751C213.958 69.7086 213.958 134.291 174.125 174.125C134.291 213.958 69.7086 213.958 29.8751 174.125C-9.95837 134.291 -9.95837 69.7086 29.8751 29.8751Z" fill="#FFB82E"/>
<path d="M102 144.897C104.07 144.897 105.749 145.528 107.036 146.789C108.323 148.05 108.966 149.64 108.966 151.56C108.966 153.424 108.323 154.905 107.036 156.002C105.749 157.153 104.07 157.729 102 157.729C99.8177 157.729 98.1111 157.153 96.8802 156.002C95.6492 154.905 95.0337 153.424 95.0337 151.56C95.0337 149.64 95.6492 148.05 96.8802 146.789C98.1111 145.528 99.8177 144.897 102 144.897ZM102.028 46.27C103.959 46.27 105.525 47.8357 105.525 49.7671L105.525 120.918C105.525 122.849 103.959 124.415 102.028 124.415V124.415C100.096 124.415 98.5308 122.849 98.5308 120.918L98.5308 49.7671C98.5308 47.8357 100.096 46.27 102.028 46.27V46.27Z" fill="#FFB82E"/>
</svg>
