<svg width="37" height="37" viewBox="0 0 37 37" fill="none" xmlns="http://www.w3.org/2000/svg">
<path d="M36.6402 14.8768H35.15V14.8H18.5V22.2H28.9553C27.4299 26.5077 23.3313 29.6 18.5 29.6C12.37 29.6 7.4 24.63 7.4 18.5C7.4 12.37 12.37 7.4 18.5 7.4C21.3296 7.4 23.9039 8.46745 25.8639 10.2111L31.0966 4.97835C27.7925 1.89903 23.3729 0 18.5 0C8.28337 0 0 8.28337 0 18.5C0 28.7166 8.28337 37 18.5 37C28.7166 37 37 28.7166 37 18.5C37 17.2596 36.8723 16.0487 36.6402 14.8768Z" fill="#FFC107"/>
<path d="M2.13318 9.88917L8.21136 14.3467C9.85601 10.2749 13.8389 7.4 18.5 7.4C21.3296 7.4 23.9039 8.46745 25.8639 10.2111L31.0966 4.97835C27.7925 1.89903 23.3729 0 18.5 0C11.3942 0 5.23193 4.01172 2.13318 9.88917Z" fill="#FF3D00"/>
<path d="M18.5 37C23.2785 37 27.6203 35.1714 30.9031 32.1975L25.1774 27.3524C23.32 28.7593 21.0114 29.6 18.5 29.6C13.6881 29.6 9.60222 26.5319 8.06302 22.2501L2.03017 26.8982C5.09192 32.8894 11.31 37 18.5 37Z" fill="#4CAF50"/>
<path d="M36.6402 14.8768H35.15V14.8H18.5V22.2H28.9553C28.2227 24.2692 26.8916 26.0535 25.1748 27.3531C25.1757 27.3522 25.1766 27.3522 25.1775 27.3513L30.9033 32.1964C30.4981 32.5646 37 27.75 37 18.5C37 17.2596 36.8723 16.0487 36.6402 14.8768Z" fill="#1976D2"/>
</svg>
