<svg width="12" height="17" viewBox="0 0 12 17" fill="none" xmlns="http://www.w3.org/2000/svg">
<path fill-rule="evenodd" clip-rule="evenodd" d="M9.55915 2.63807C7.59638 0.305391 4.0049 0.305391 2.04213 2.63807C0.873837 4.02655 0.566203 5.94602 1.24207 7.63007L1.35616 7.91435C2.11662 9.80919 3.02775 11.64 4.08079 13.3893L5.60456 15.9204C5.69352 16.0682 5.90776 16.0682 5.99672 15.9204L7.52049 13.3893C8.57353 11.64 9.48466 9.80919 10.2451 7.91435L10.3592 7.63007C11.0351 5.94603 10.7274 4.02655 9.55915 2.63807ZM1.36223 2.06599C3.68005 -0.688663 7.92123 -0.688663 10.239 2.06599C11.6187 3.70564 11.982 5.97234 11.1838 7.96102L11.0698 8.2453C10.2916 10.1842 9.35928 12.0576 8.28175 13.8475L6.75798 16.3787C6.32365 17.1002 5.27763 17.1002 4.8433 16.3787L3.31953 13.8475C2.242 12.0576 1.30968 10.1842 0.531529 8.2453L0.417438 7.96102C-0.380686 5.97234 -0.0174022 3.70564 1.36223 2.06599ZM3.30026 5.85922C3.30026 4.46487 4.412 3.32043 5.80064 3.32043C7.18928 3.32043 8.30102 4.46487 8.30102 5.85922C8.30102 7.25357 7.18928 8.39802 5.80064 8.39802C4.412 8.39802 3.30026 7.25357 3.30026 5.85922ZM5.80064 4.20899C4.91818 4.20899 4.18882 4.94003 4.18882 5.85922C4.18882 6.77841 4.91817 7.50946 5.80064 7.50946C6.68311 7.50946 7.41246 6.77841 7.41246 5.85922C7.41246 4.94003 6.68311 4.20899 5.80064 4.20899Z" fill="#636363"/>
</svg>
