<svg width="20" height="27" viewBox="0 0 20 27" fill="none" xmlns="http://www.w3.org/2000/svg">
<path fill-rule="evenodd" clip-rule="evenodd" d="M2.02191 12.4875C0.781914 9.47724 1.34183 6.02534 3.46976 3.5614V3.5614C6.91133 -0.42361 13.0887 -0.42361 16.5302 3.5614V3.5614C18.6582 6.02534 19.2181 9.47724 17.9781 12.4875L17.8646 12.763C16.6236 15.7757 15.1394 18.6823 13.4267 21.4542L10.8507 25.6232C10.4599 26.2557 9.5401 26.2557 9.14929 25.6232L6.57331 21.4542C4.86061 18.6823 3.37641 15.7757 2.1354 12.763L2.02191 12.4875ZM6.66667 9.2332C6.66667 7.40608 8.15905 5.9249 10 5.9249C11.8409 5.9249 13.3333 7.40608 13.3333 9.2332C13.3333 11.0603 11.8409 12.5415 10 12.5415C8.15905 12.5415 6.66667 11.0603 6.66667 9.2332Z" fill="#FFC85E" stroke="#FFB82E"/>
</svg>
