<svg width="486" height="425" viewBox="0 0 486 425" fill="none" xmlns="http://www.w3.org/2000/svg">
<path d="M241.05 338.019L250.244 333.911L238.729 295.683L225.158 301.745L241.05 338.019Z" fill="#FFB6B6"/>
<path d="M234.464 327.641L248.218 317.943L252.014 324.053L271.411 325.006C272.369 325.053 273.287 325.404 274.03 326.009C274.774 326.614 275.305 327.44 275.545 328.367C275.785 329.294 275.722 330.274 275.365 331.163C275.009 332.052 274.376 332.804 273.561 333.308L256.557 343.841L249.871 339.612L252.482 346.365L246.071 350.336L234.464 327.641Z" fill="#2F2E41"/>
<path d="M476.501 264.738C476.501 260.893 475.208 257.773 473.62 257.766H40.7904C39.1955 257.773 37.9096 260.893 37.9024 264.738L38 425H30V255.693C30 254.631 30.0431 253.563 30.1149 252.508C30.2175 251.06 30.3973 249.619 30.6537 248.19C31.8678 241.526 34.6121 237.014 37.73 237H476.674C477.129 237.003 477.578 237.098 477.995 237.28C478.608 237.55 479.162 237.938 479.626 238.42C480.256 239.074 480.795 239.81 481.228 240.608C482.766 243.312 483.865 247.344 484.253 252.035C484.253 252.078 484.26 252.121 484.26 252.164C484.361 253.326 484.411 254.509 484.404 255.693L484.835 319.21L485.149 425H476.5L476.501 264.738Z" fill="#E6E6E6"/>
<path d="M359.614 182.995H312.976C312.316 182.996 311.684 183.258 311.218 183.725C310.752 184.191 310.491 184.823 310.491 185.482V242.044H362.105V185.482C362.105 185.155 362.041 184.832 361.916 184.53C361.791 184.228 361.607 183.954 361.376 183.723C361.145 183.492 360.87 183.309 360.567 183.184C360.265 183.059 359.941 182.995 359.614 182.995ZM336.452 207.792C334.993 207.785 333.596 207.204 332.565 206.174C331.534 205.144 330.951 203.749 330.945 202.293V193.808C330.946 192.351 331.527 190.954 332.56 189.924C333.592 188.894 334.992 188.316 336.452 188.316C337.911 188.316 339.311 188.894 340.344 189.924C341.376 190.954 341.957 192.351 341.959 193.808V202.293C341.952 203.749 341.37 205.144 340.338 206.174C339.307 207.204 337.91 207.785 336.452 207.792Z" fill="#2F2E41"/>
<path d="M310.331 239.691V246.788C310.332 247.156 310.479 247.508 310.739 247.768C311 248.029 311.353 248.175 311.721 248.176H360.876C361.244 248.174 361.596 248.027 361.856 247.767C362.116 247.507 362.264 247.156 362.265 246.788V239.691H310.331Z" fill="#3F3D56"/>
<path d="M250.41 80.5525C249.873 81.9017 249.046 83.117 247.988 84.1127C246.93 85.1085 245.666 85.8605 244.286 86.3158C242.905 86.7711 241.441 86.9185 239.997 86.7478C238.553 86.5771 237.164 86.0924 235.928 85.3278L170.095 114.12L168.278 95.8711L233.007 70.9978C234.431 69.0097 236.536 67.6123 238.923 67.0703C241.31 66.5284 243.814 66.8795 245.959 68.0573C248.104 69.235 249.742 71.1575 250.562 73.4604C251.383 75.7634 251.328 78.2868 250.41 80.5525Z" fill="#FFB6B6"/>
<path d="M103.014 92.425C103.014 92.425 95.8855 102.942 107.071 112.249C118.257 121.555 163.596 119.704 170.913 119.624C178.229 119.544 211.799 97.8703 211.799 97.8703L211.579 77.845L171.048 88.8574L103.014 92.425Z" fill="#F9A826"/>
<path d="M98.9776 162.249L99.696 175.877C99.696 175.877 97.5757 187.95 99.3195 190.555C101.05 193.147 148.579 197.004 148.579 197.004C148.579 197.004 147.089 176.678 149.777 161.976L98.9776 162.249Z" fill="#FFB6B6"/>
<path d="M244.845 301.013L226.55 317.004L190.692 243.781C155.135 249.887 121.589 251.843 92.5738 244.456C82.7499 241.99 76.7448 231.861 79.1611 221.834C79.2741 221.365 79.4047 220.902 79.5529 220.443C83.0255 209.864 92.1155 202.379 99.2772 190.744L151.589 191.537L145.746 211.666L196.563 205.1C206.783 203.78 216.116 211.166 217.41 221.597C217.478 222.148 217.523 222.701 217.544 223.256L244.845 301.013Z" fill="#2F2E41"/>
<path d="M119.404 70.5324C131.135 70.5324 140.645 61.0368 140.645 49.3233C140.645 37.6099 131.135 28.1143 119.404 28.1143C107.672 28.1143 98.1621 37.6099 98.1621 49.3233C98.1621 61.0368 107.672 70.5324 119.404 70.5324Z" fill="#FFB6B6"/>
<path d="M106.951 78.189L126.427 80.4768C127.249 80.5733 128.019 80.9232 128.632 81.4778C129.245 82.0323 129.669 82.764 129.846 83.5707L132.943 97.7224L152.251 120.425C152.251 120.425 159.185 133.406 156.585 148.117C155.02 156.975 152.313 165.594 148.532 173.759C148.532 173.759 101.048 193.149 99.3147 190.553C97.5813 187.957 97.0188 176.165 97.0188 176.165L90.9099 108.306C90.5602 104.731 91.0073 101.122 92.219 97.7398C93.4307 94.3573 95.377 91.2844 97.9184 88.7415C99.4597 87.2277 100.981 86.1681 102.219 86.1681C105.016 86.074 104.657 79.7891 106.951 78.189Z" fill="#F9A826"/>
<path d="M148.742 366.452L157.781 370.872L179.539 337.391L166.199 330.867L148.742 366.452Z" fill="#FFB6B6"/>
<path d="M170.394 358.885L151.825 351.846L177.31 275.42C142.688 265.285 116.572 248.959 93.7694 229.581C86.0339 223.051 80.2327 214.665 86.8208 206.721C87.1288 206.35 87.4504 205.99 87.7856 205.644C95.5651 197.669 115.309 199.203 126.867 191.9L152.716 219.456L151.096 226.838L199.625 243.263C209.384 246.566 214.511 257.298 211.077 267.234C210.896 267.759 210.692 268.275 210.466 268.783L170.394 358.885Z" fill="#2F2E41"/>
<path d="M148.434 361.117L163.97 367.6L160.802 374.057L170.297 390.972C170.766 391.807 170.955 392.771 170.837 393.721C170.719 394.671 170.3 395.559 169.641 396.255C168.981 396.951 168.117 397.418 167.173 397.588C166.229 397.758 165.255 397.623 164.394 397.202L146.424 388.412L146.46 380.51L142.117 386.305L135.342 382.991L148.434 361.117Z" fill="#2F2E41"/>
<path d="M118.055 244.099C116.837 243.307 115.808 242.257 115.04 241.024C114.272 239.792 113.784 238.406 113.61 236.964C113.437 235.523 113.582 234.061 114.035 232.682C114.489 231.302 115.24 230.039 116.235 228.981L84.3171 155.482L102.592 157.317L130.881 228.959C132.551 230.747 133.506 233.084 133.565 235.527C133.625 237.971 132.784 240.351 131.203 242.217C129.622 244.084 127.411 245.306 124.987 245.653C122.564 246 120.098 245.447 118.055 244.099Z" fill="#FFB6B6"/>
<path d="M118.898 94.1257C118.898 94.1257 109.985 85.0667 98.6338 94.1715C87.2824 103.276 80.1222 148.016 78.7519 155.192C77.3816 162.369 104.773 202.089 104.773 202.089L124.476 205.84L108.928 161.418L118.898 94.1257Z" fill="#F9A826"/>
<path d="M436.843 68.1931H237.483C235.77 68.1958 234.128 68.8764 232.917 70.0857C231.706 71.295 231.024 72.9344 231.021 74.6445V191.968C231.023 193.678 231.704 195.318 232.916 196.528C234.127 197.737 235.769 198.418 237.483 198.419H436.843C438.556 198.418 440.198 197.737 441.41 196.528C442.621 195.318 443.302 193.678 443.304 191.968V74.6446C443.301 72.9344 442.62 71.295 441.408 70.0857C440.197 68.8764 438.555 68.1958 436.843 68.1931Z" fill="#3F3D56"/>
<path d="M435.179 72.8528H239.148C238.231 72.8548 237.352 73.2199 236.705 73.8681C236.057 74.5162 235.693 75.3945 235.693 76.3102V190.304C235.694 191.219 236.059 192.095 236.707 192.742C237.354 193.389 238.232 193.753 239.148 193.754H435.179C436.095 193.753 436.973 193.389 437.62 192.742C438.268 192.095 438.633 191.219 438.634 190.304V76.3102C438.634 75.3945 438.27 74.5162 437.622 73.8681C436.975 73.2199 436.096 72.8548 435.179 72.8528Z" fill="white"/>
<path d="M396.995 250.645H280.368C280.049 250.645 279.733 250.574 279.445 250.437C279.157 250.3 278.903 250.101 278.702 249.853C278.501 249.606 278.357 249.316 278.282 249.006C278.207 248.697 278.203 248.374 278.268 248.062L280.078 239.48C280.181 239 280.445 238.57 280.827 238.26C281.209 237.951 281.685 237.781 282.177 237.78H395.186C395.678 237.781 396.154 237.951 396.536 238.26C396.918 238.57 397.182 239 397.285 239.48L399.095 248.062C399.16 248.374 399.156 248.697 399.081 249.006C399.006 249.316 398.862 249.606 398.661 249.853C398.46 250.101 398.206 250.3 397.918 250.437C397.63 250.574 397.314 250.645 396.995 250.645Z" fill="#2F2E41"/>
<path d="M286.247 239.325H283.356C283.162 239.325 283.005 239.481 283.005 239.675V241.126C283.005 241.32 283.162 241.477 283.356 241.477H286.247C286.44 241.477 286.597 241.32 286.597 241.126V239.675C286.597 239.481 286.44 239.325 286.247 239.325Z" fill="#3F3D56"/>
<path d="M293.431 239.325H290.54C290.346 239.325 290.189 239.481 290.189 239.675V241.126C290.189 241.32 290.346 241.477 290.54 241.477H293.431C293.624 241.477 293.781 241.32 293.781 241.126V239.675C293.781 239.481 293.624 239.325 293.431 239.325Z" fill="#3F3D56"/>
<path d="M300.615 239.325H297.724C297.531 239.325 297.374 239.481 297.374 239.675V241.126C297.374 241.32 297.531 241.477 297.724 241.477H300.615C300.809 241.477 300.966 241.32 300.966 241.126V239.675C300.966 239.481 300.809 239.325 300.615 239.325Z" fill="#3F3D56"/>
<path d="M307.799 239.325H304.908C304.714 239.325 304.557 239.481 304.557 239.675V241.126C304.557 241.32 304.714 241.477 304.908 241.477H307.799C307.992 241.477 308.149 241.32 308.149 241.126V239.675C308.149 239.481 307.992 239.325 307.799 239.325Z" fill="#3F3D56"/>
<path d="M314.983 239.325H312.092C311.898 239.325 311.741 239.481 311.741 239.675V241.126C311.741 241.32 311.898 241.477 312.092 241.477H314.983C315.176 241.477 315.333 241.32 315.333 241.126V239.675C315.333 239.481 315.176 239.325 314.983 239.325Z" fill="#3F3D56"/>
<path d="M322.167 239.325H319.276C319.083 239.325 318.926 239.481 318.926 239.675V241.126C318.926 241.32 319.083 241.477 319.276 241.477H322.167C322.361 241.477 322.518 241.32 322.518 241.126V239.675C322.518 239.481 322.361 239.325 322.167 239.325Z" fill="#3F3D56"/>
<path d="M329.351 239.325H326.46C326.267 239.325 326.11 239.481 326.11 239.675V241.126C326.11 241.32 326.267 241.477 326.46 241.477H329.351C329.545 241.477 329.702 241.32 329.702 241.126V239.675C329.702 239.481 329.545 239.325 329.351 239.325Z" fill="#3F3D56"/>
<path d="M336.535 239.325H333.644C333.45 239.325 333.293 239.481 333.293 239.675V241.126C333.293 241.32 333.45 241.477 333.644 241.477H336.535C336.728 241.477 336.885 241.32 336.885 241.126V239.675C336.885 239.481 336.728 239.325 336.535 239.325Z" fill="#3F3D56"/>
<path d="M343.719 239.325H340.828C340.635 239.325 340.478 239.481 340.478 239.675V241.126C340.478 241.32 340.635 241.477 340.828 241.477H343.719C343.913 241.477 344.07 241.32 344.07 241.126V239.675C344.07 239.481 343.913 239.325 343.719 239.325Z" fill="#3F3D56"/>
<path d="M350.903 239.325H348.012C347.819 239.325 347.662 239.481 347.662 239.675V241.126C347.662 241.32 347.819 241.477 348.012 241.477H350.903C351.097 241.477 351.254 241.32 351.254 241.126V239.675C351.254 239.481 351.097 239.325 350.903 239.325Z" fill="#3F3D56"/>
<path d="M358.087 239.325H355.196C355.003 239.325 354.846 239.481 354.846 239.675V241.126C354.846 241.32 355.003 241.477 355.196 241.477H358.087C358.281 241.477 358.438 241.32 358.438 241.126V239.675C358.438 239.481 358.281 239.325 358.087 239.325Z" fill="#3F3D56"/>
<path d="M365.271 239.325H362.38C362.187 239.325 362.03 239.481 362.03 239.675V241.126C362.03 241.32 362.187 241.477 362.38 241.477H365.271C365.465 241.477 365.622 241.32 365.622 241.126V239.675C365.622 239.481 365.465 239.325 365.271 239.325Z" fill="#3F3D56"/>
<path d="M372.455 239.325H369.564C369.371 239.325 369.214 239.481 369.214 239.675V241.126C369.214 241.32 369.371 241.477 369.564 241.477H372.455C372.649 241.477 372.806 241.32 372.806 241.126V239.675C372.806 239.481 372.649 239.325 372.455 239.325Z" fill="#3F3D56"/>
<path d="M379.639 239.325H376.748C376.555 239.325 376.398 239.481 376.398 239.675V241.126C376.398 241.32 376.555 241.477 376.748 241.477H379.639C379.833 241.477 379.99 241.32 379.99 241.126V239.675C379.99 239.481 379.833 239.325 379.639 239.325Z" fill="#3F3D56"/>
<path d="M386.823 239.325H383.932C383.739 239.325 383.582 239.481 383.582 239.675V241.126C383.582 241.32 383.739 241.477 383.932 241.477H386.823C387.017 241.477 387.174 241.32 387.174 241.126V239.675C387.174 239.481 387.017 239.325 386.823 239.325Z" fill="#3F3D56"/>
<path d="M394.007 239.325H391.116C390.923 239.325 390.766 239.481 390.766 239.675V241.126C390.766 241.32 390.923 241.477 391.116 241.477H394.007C394.201 241.477 394.358 241.32 394.358 241.126V239.675C394.358 239.481 394.201 239.325 394.007 239.325Z" fill="#3F3D56"/>
<path d="M286.162 242.911H283.271C283.077 242.911 282.92 243.068 282.92 243.262V244.713C282.92 244.907 283.077 245.063 283.271 245.063H286.162C286.355 245.063 286.512 244.907 286.512 244.713V243.262C286.512 243.068 286.355 242.911 286.162 242.911Z" fill="#3F3D56"/>
<path d="M293.346 242.911H290.455C290.262 242.911 290.104 243.068 290.104 243.262V244.713C290.104 244.907 290.262 245.063 290.455 245.063H293.346C293.539 245.063 293.697 244.907 293.697 244.713V243.262C293.697 243.068 293.539 242.911 293.346 242.911Z" fill="#3F3D56"/>
<path d="M300.53 242.911H297.639C297.446 242.911 297.289 243.068 297.289 243.262V244.713C297.289 244.907 297.446 245.063 297.639 245.063H300.53C300.724 245.063 300.881 244.907 300.881 244.713V243.262C300.881 243.068 300.724 242.911 300.53 242.911Z" fill="#3F3D56"/>
<path d="M307.714 242.911H304.823C304.63 242.911 304.473 243.068 304.473 243.262V244.713C304.473 244.907 304.63 245.063 304.823 245.063H307.714C307.908 245.063 308.065 244.907 308.065 244.713V243.262C308.065 243.068 307.908 242.911 307.714 242.911Z" fill="#3F3D56"/>
<path d="M314.898 242.911H312.007C311.814 242.911 311.657 243.068 311.657 243.262V244.713C311.657 244.907 311.814 245.063 312.007 245.063H314.898C315.092 245.063 315.249 244.907 315.249 244.713V243.262C315.249 243.068 315.092 242.911 314.898 242.911Z" fill="#3F3D56"/>
<path d="M322.082 242.911H319.191C318.998 242.911 318.841 243.068 318.841 243.262V244.713C318.841 244.907 318.998 245.063 319.191 245.063H322.082C322.276 245.063 322.433 244.907 322.433 244.713V243.262C322.433 243.068 322.276 242.911 322.082 242.911Z" fill="#3F3D56"/>
<path d="M329.266 242.911H326.375C326.182 242.911 326.025 243.068 326.025 243.262V244.713C326.025 244.907 326.182 245.063 326.375 245.063H329.266C329.46 245.063 329.617 244.907 329.617 244.713V243.262C329.617 243.068 329.46 242.911 329.266 242.911Z" fill="#3F3D56"/>
<path d="M336.45 242.911H333.559C333.366 242.911 333.209 243.068 333.209 243.262V244.713C333.209 244.907 333.366 245.063 333.559 245.063H336.45C336.644 245.063 336.801 244.907 336.801 244.713V243.262C336.801 243.068 336.644 242.911 336.45 242.911Z" fill="#3F3D56"/>
<path d="M343.634 242.911H340.743C340.55 242.911 340.393 243.068 340.393 243.262V244.713C340.393 244.907 340.55 245.063 340.743 245.063H343.634C343.828 245.063 343.985 244.907 343.985 244.713V243.262C343.985 243.068 343.828 242.911 343.634 242.911Z" fill="#3F3D56"/>
<path d="M350.818 242.911H347.927C347.734 242.911 347.577 243.068 347.577 243.262V244.713C347.577 244.907 347.734 245.063 347.927 245.063H350.818C351.012 245.063 351.169 244.907 351.169 244.713V243.262C351.169 243.068 351.012 242.911 350.818 242.911Z" fill="#3F3D56"/>
<path d="M358.002 242.911H355.111C354.918 242.911 354.761 243.068 354.761 243.262V244.713C354.761 244.907 354.918 245.063 355.111 245.063H358.002C358.196 245.063 358.353 244.907 358.353 244.713V243.262C358.353 243.068 358.196 242.911 358.002 242.911Z" fill="#3F3D56"/>
<path d="M365.186 242.911H362.296C362.102 242.911 361.945 243.068 361.945 243.262V244.713C361.945 244.907 362.102 245.063 362.296 245.063H365.186C365.38 245.063 365.537 244.907 365.537 244.713V243.262C365.537 243.068 365.38 242.911 365.186 242.911Z" fill="#3F3D56"/>
<path d="M372.37 242.911H369.48C369.286 242.911 369.129 243.068 369.129 243.262V244.713C369.129 244.907 369.286 245.063 369.48 245.063H372.37C372.564 245.063 372.721 244.907 372.721 244.713V243.262C372.721 243.068 372.564 242.911 372.37 242.911Z" fill="#3F3D56"/>
<path d="M379.554 242.911H376.663C376.47 242.911 376.313 243.068 376.313 243.262V244.713C376.313 244.907 376.47 245.063 376.663 245.063H379.554C379.748 245.063 379.905 244.907 379.905 244.713V243.262C379.905 243.068 379.748 242.911 379.554 242.911Z" fill="#3F3D56"/>
<path d="M386.738 242.911H383.848C383.654 242.911 383.497 243.068 383.497 243.262V244.713C383.497 244.907 383.654 245.063 383.848 245.063H386.738C386.932 245.063 387.089 244.907 387.089 244.713V243.262C387.089 243.068 386.932 242.911 386.738 242.911Z" fill="#3F3D56"/>
<path d="M393.922 242.911H391.032C390.838 242.911 390.681 243.068 390.681 243.262V244.713C390.681 244.907 390.838 245.063 391.032 245.063H393.922C394.116 245.063 394.273 244.907 394.273 244.713V243.262C394.273 243.068 394.116 242.911 393.922 242.911Z" fill="#3F3D56"/>
<path d="M345.789 247.215H317.755C317.561 247.215 317.404 247.372 317.404 247.565V249.017C317.404 249.21 317.561 249.367 317.755 249.367H345.789C345.983 249.367 346.14 249.21 346.14 249.017V247.565C346.14 247.372 345.983 247.215 345.789 247.215Z" fill="#3F3D56"/>
<path d="M437.501 413.672L431.896 404.878L430.777 409.903C430.58 410.783 430.384 411.677 430.202 412.565C428.61 411.237 426.917 410.009 425.259 408.831C420.17 405.225 415.084 401.615 410 398L411.592 407.014C412.573 412.565 413.599 418.229 416.027 423.304C416.296 423.878 416.586 424.446 416.899 425H440.555C440.745 424.486 440.876 423.952 440.947 423.41C440.953 423.375 440.955 423.339 440.954 423.304C441.325 419.861 439.377 416.617 437.501 413.672Z" fill="#FFF7E9"/>
<path d="M72.5012 413.672L66.8962 404.878L65.7767 409.903C65.5804 410.783 65.3841 411.677 65.2024 412.565C63.6104 411.237 61.9165 410.009 60.2592 408.831C55.1704 405.225 50.084 401.615 45 398L46.592 407.014C47.5735 412.565 48.5986 418.229 51.0266 423.304C51.2956 423.878 51.5863 424.446 51.8991 425H75.5546C75.7448 424.486 75.8765 423.952 75.9471 423.41C75.953 423.375 75.9554 423.339 75.9542 423.304C76.3252 419.861 74.3768 416.617 72.5012 413.672Z" fill="#FFF7E9"/>
<path d="M96.9407 30.4173C93.5139 31.4359 90.317 28.5738 87.9319 25.8624L88.7796 26.8666C83.1689 30.8118 79.814 37.2388 77.6372 43.7448C75.4605 50.2436 74.2464 57.0508 71.7894 63.4563C69.3325 69.8546 65.3669 76.045 59.2964 79.237C51.1641 83.5121 41.1999 81.5682 32.5503 78.4838C32.4354 78.4407 32.3276 78.4049 32.2126 78.3619C35.7159 71.8281 37.8613 64.6551 38.5202 57.2731C34.962 64.2093 29.8304 70.2198 23.5344 74.8255C17.8826 72.2604 12.4481 69.2426 7.28411 65.8019C3.94354 63.5711 0.42336 60.6875 0.035423 56.6921C-0.359698 52.7254 2.60731 49.103 6.10593 47.195C9.60455 45.287 13.6276 44.6414 17.4495 43.4937C21.2642 42.3532 25.1579 40.4811 27.1623 37.038C31.7816 29.119 24.0085 17.9506 28.9655 10.2324C31.408 6.43784 36.1495 4.91715 40.5461 3.86272C47.2569 2.26 54.0685 1.1121 60.9344 0.426839C66.9618 -0.175696 73.1903 -0.398058 78.9232 1.53866C84.656 3.47538 89.8572 7.97287 91.0857 13.8978C94.4335 15.6552 97.9752 17.5991 99.7712 20.9345C101.567 24.2628 100.569 29.3413 96.9407 30.4173Z" fill="#2F2E41"/>
<path d="M91.8252 29.0829C88.5439 33.1872 86.7577 37.6257 86.7577 40.2838C79.941 52.7234 89.689 63.4085 102.148 70.2145C107.117 72.9434 112.855 73.9422 118.456 73.0533L118.977 70.8317L119.683 72.8329C119.683 72.8329 127.795 99.5833 130.471 101.153C129.455 96.3918 128.292 74.3493 127.727 69.7032C126.944 63.3796 129.672 53.9653 131.64 48.2403C132.86 44.7119 133.486 41.006 133.493 37.2733V37.1101L135.409 43.2549L142.384 40.2838C141.087 32.8519 142.384 24.4149 126.826 25.1466C118.412 19.3684 111.002 18.4883 104.915 20.1271C104.13 18.9145 99.6002 21.1857 98.2913 20.5472" fill="#2F2E41"/>
<path d="M438.634 76.3102V190.304C438.633 191.219 438.268 192.095 437.62 192.742C436.973 193.389 436.095 193.753 435.179 193.754H343.5L355.753 186.617C378.444 175.275 386.505 163.902 373.168 142.323C360.705 122.157 357.835 97.4995 365.335 75.0102L366.054 72.8528H435.179C436.096 72.8548 436.975 73.2199 437.622 73.8681C438.27 74.5162 438.634 75.3945 438.634 76.3102Z" fill="url(#paint0_linear_783_359)"/>
<path d="M425.324 90.901H241.9C241.709 90.8968 241.527 90.8182 241.394 90.6821C241.261 90.5459 241.186 90.3631 241.186 90.1726C241.186 89.9822 241.261 89.7993 241.394 89.6632C241.527 89.5271 241.709 89.4485 241.9 89.4443H425.324C425.515 89.4485 425.697 89.5271 425.83 89.6632C425.963 89.7993 426.038 89.9822 426.038 90.1726C426.038 90.3631 425.963 90.5459 425.83 90.6821C425.697 90.8182 425.515 90.8968 425.324 90.901Z" fill="#CACACA"/>
<path d="M416.433 78.0803H405.943C405.735 78.0844 405.537 78.1698 405.392 78.3181C405.246 78.4663 405.165 78.6657 405.165 78.8734C405.165 79.0811 405.246 79.2805 405.392 79.4287C405.537 79.577 405.735 79.6624 405.943 79.6665H416.433C416.641 79.6624 416.839 79.577 416.985 79.4287C417.131 79.2805 417.212 79.0811 417.212 78.8734C417.212 78.6657 417.131 78.4663 416.985 78.3181C416.839 78.1698 416.641 78.0844 416.433 78.0803Z" fill="white"/>
<path d="M416.433 81.0574H405.943C405.735 81.0615 405.537 81.1468 405.392 81.2951C405.246 81.4434 405.165 81.6428 405.165 81.8504C405.165 82.0581 405.246 82.2575 405.392 82.4058C405.537 82.5541 405.735 82.6394 405.943 82.6435H416.433C416.641 82.6394 416.839 82.5541 416.985 82.4058C417.131 82.2575 417.212 82.0581 417.212 81.8504C417.212 81.6428 417.131 81.4434 416.985 81.2951C416.839 81.1468 416.641 81.0615 416.433 81.0574Z" fill="white"/>
<path d="M416.433 84.0303H405.943C405.735 84.0344 405.537 84.1197 405.392 84.268C405.246 84.4163 405.165 84.6157 405.165 84.8233C405.165 85.031 405.246 85.2304 405.392 85.3787C405.537 85.527 405.735 85.6123 405.943 85.6164H416.433C416.641 85.6123 416.839 85.527 416.985 85.3787C417.131 85.2304 417.212 85.031 417.212 84.8233C417.212 84.6157 417.131 84.4163 416.985 84.268C416.839 84.1197 416.641 84.0344 416.433 84.0303Z" fill="white"/>
<path d="M321.037 123H258.117C256.396 123 255 124.393 255 126.112C255 127.831 256.396 129.225 258.117 129.225H321.037C322.759 129.225 324.154 127.831 324.154 126.112C324.154 124.393 322.759 123 321.037 123Z" fill="#F9A826"/>
<path d="M301.037 114H258.117C256.396 114 255 115.393 255 117.112C255 118.831 256.396 120.225 258.117 120.225H301.037C302.759 120.225 304.154 118.831 304.154 117.112C304.154 115.393 302.759 114 301.037 114Z" fill="#F9A826"/>
<path d="M327.037 146H321.117C319.396 146 318 147.393 318 149.112C318 150.831 319.396 152.225 321.117 152.225H327.037C328.759 152.225 330.154 150.831 330.154 149.112C330.154 147.393 328.759 146 327.037 146Z" fill="#F9A826"/>
<path d="M275.037 159H259.117C257.396 159 256 160.393 256 162.112C256 163.831 257.396 165.225 259.117 165.225H275.037C276.759 165.225 278.154 163.831 278.154 162.112C278.154 160.393 276.759 159 275.037 159Z" fill="#F9A826"/>
<path fill-rule="evenodd" clip-rule="evenodd" d="M285.117 159H301.037C302.759 159 304.154 160.393 304.154 162.112C304.154 163.831 302.759 165.225 301.037 165.225H285.117C283.396 165.225 282 163.831 282 162.112C282 160.393 283.396 159 285.117 159ZM301.037 159.495H285.117C285.117 159.495 282.5 159.495 282.5 162.112C282.5 164.73 285.117 164.729 285.117 164.729H301.037C301.037 164.729 303.654 164.729 303.654 162.112C303.654 159.495 301.037 159.495 301.037 159.495Z" fill="#F9A826"/>
<path d="M256.037 79H247.117C245.396 79 244 80.3935 244 82.1124C244 83.8313 245.396 85.2247 247.117 85.2247H256.037C257.759 85.2247 259.154 83.8313 259.154 82.1124C259.154 80.3934 257.759 79 256.037 79Z" fill="#F9A826"/>
<path d="M281.948 83H268.052C267.5 83 267 83.4477 267 84C267 84.5523 267.5 85 268.052 85H281.948C282.5 85 283 84.5523 283 84C283 83.4477 282.5 83 281.948 83Z" fill="#F9A826"/>
<path d="M311.503 145.899H258.971C257.249 145.899 255.854 147.293 255.854 149.012C255.854 150.73 257.249 152.124 258.971 152.124H311.503C313.225 152.124 314.62 150.73 314.62 149.012C314.62 147.293 313.225 145.899 311.503 145.899Z" fill="#E6E6E6"/>
<path d="M291.65 135H259.117C257.396 135 256 136.393 256 138.112C256 139.831 257.396 141.225 259.117 141.225H291.65C293.371 141.225 294.767 139.831 294.767 138.112C294.767 136.393 293.371 135 291.65 135Z" fill="#E6E6E6"/>
<path d="M378.512 113.189C378.909 110.773 380.997 109 383.446 109H412.467C414.318 109 415.727 110.66 415.427 112.486L407.488 160.811C407.091 163.227 405.003 165 402.554 165H373.533C371.682 165 370.273 163.34 370.573 161.514L378.512 113.189Z" fill="#FFCB68"/>
<defs>
<linearGradient id="paint0_linear_783_359" x1="137.87" y1="105.005" x2="290.02" y2="319.824" gradientUnits="userSpaceOnUse">
<stop stop-color="#FFB82E"/>
<stop offset="1" stop-color="#FFC557"/>
</linearGradient>
</defs>
</svg>
