<svg width="72" height="72" viewBox="0 0 72 72" fill="none" xmlns="http://www.w3.org/2000/svg">
<path fill-rule="evenodd" clip-rule="evenodd" d="M69.28 14.3978C70.1585 14.6511 70.83 15.3618 71.0331 16.2532C71.6869 19.1226 72 22.3299 72 25.9535V46.0465C72 54.6688 70.2904 61.3484 65.8471 65.8314C65.3769 66.3058 64.7369 66.5734 64.0689 66.5749C63.4008 66.5764 62.7597 66.3117 62.2873 65.8393L40.9217 44.4737C40.4507 44.0026 40.186 43.3638 40.186 42.6977C40.186 42.0315 40.4507 41.3927 40.9217 40.9217L66.8082 15.0352C67.4547 14.3887 68.4015 14.1446 69.28 14.3978ZM46.2497 42.6977L63.868 60.316C65.9015 57.1819 66.9767 52.6246 66.9767 46.0465V25.9535C66.9767 24.5894 66.9285 23.3122 66.8339 22.1135L46.2497 42.6977Z" fill="#FFB82E"/>
<path fill-rule="evenodd" clip-rule="evenodd" d="M9.72948 9.72948C6.66351 12.7954 5.02326 17.8291 5.02326 25.9535V46.0465C5.02326 52.4653 6.05452 56.9734 8.00865 60.0866C9.70803 62.7939 12.2563 64.6836 16.0505 65.7928L65.7928 16.0506C64.6837 12.2564 62.7939 9.70807 60.0866 8.00868C56.9734 6.05453 52.4653 5.02326 46.0465 5.02326H25.9535C17.8291 5.02326 12.7954 6.66351 9.72948 9.72948ZM6.1775 6.1775C10.6464 1.70858 17.3337 0 25.9535 0H46.0465C52.8891 0 58.4945 1.0785 62.7572 3.75413C67.1225 6.49425 69.7619 10.708 71.0331 16.2532C71.2263 17.096 70.9716 17.9757 70.3602 18.5872L18.5871 70.3602C17.9757 70.9716 17.0927 71.2255 16.2499 71.0323C10.7047 69.7611 6.49421 67.1225 3.7541 62.7571C1.07849 58.4945 0 52.8891 0 46.0465V25.9535C0 17.3337 1.70858 10.6464 6.1775 6.1775Z" fill="#FFB82E"/>
<path fill-rule="evenodd" clip-rule="evenodd" d="M40.9217 40.9217C41.9025 39.9408 43.4928 39.9408 44.4737 40.9217L65.8393 62.2873C66.3117 62.7597 66.5764 63.4008 66.5749 64.0689C66.5734 64.7369 66.3058 65.3769 65.8313 65.8471C61.3484 70.2904 54.6688 72 46.0465 72H25.9535C22.3299 72 19.1193 71.6861 16.2499 71.0323C15.3585 70.8292 14.6511 70.1584 14.3978 69.2799C14.1445 68.4014 14.3886 67.4547 15.0351 66.8082L40.9217 40.9217ZM22.1134 66.8338C23.3121 66.9285 24.5894 66.9767 25.9535 66.9767H46.0465C52.6246 66.9767 57.1819 65.9015 60.316 63.868L42.6977 46.2497L22.1134 66.8338Z" fill="#FFB82E"/>
<path fill-rule="evenodd" clip-rule="evenodd" d="M26.3553 17.6902C23.02 17.6902 19.979 19.5649 19.1573 23.1055C18.1434 27.4651 20.8649 31.473 23.9279 34.3755C25.3116 35.6781 27.4397 35.6601 28.7718 34.3859L28.7805 34.3776C31.8311 31.4875 34.5402 27.4732 33.552 23.0994C32.7282 19.5628 29.6887 17.6902 26.3553 17.6902ZM26.3553 12.667C31.5261 12.667 36.9911 15.6983 38.4466 21.9699L38.4495 21.9823C40.0686 29.1232 35.5494 34.8833 32.2391 38.0206C28.9502 41.1616 23.7829 41.1427 20.4798 38.0284L20.4754 38.0243C17.1768 34.8992 12.5998 29.1287 14.2641 21.9699M26.3553 12.667C21.1849 12.667 15.72 15.6991 14.2641 21.9699L26.3553 12.667Z" fill="#FFB82E"/>
<path fill-rule="evenodd" clip-rule="evenodd" d="M22.9215 24.9489C22.9215 23.0994 24.4208 21.6 26.2703 21.6H26.3004C28.1499 21.6 29.6492 23.0994 29.6492 24.9489C29.6492 26.7984 28.1499 28.2977 26.3004 28.2977H26.2703C24.4208 28.2977 22.9215 26.7984 22.9215 24.9489Z" fill="#FFB82E"/>
</svg>
