<svg width="909" height="605" viewBox="0 0 909 605" fill="none" xmlns="http://www.w3.org/2000/svg">
<g clip-path="url(#clip0_469_558)">
<path d="M852.017 574.167L841.807 580.806L811.342 544.583L826.411 534.785L852.017 574.167Z" fill="#A0616A"/>
<path d="M859.302 584.584L827.905 605L827.647 604.603C825.54 601.362 824.806 597.416 825.608 593.634C826.409 589.853 828.68 586.544 831.921 584.436L831.922 584.436L834.827 576.355L848.357 573.749L851.097 571.966L859.302 584.584Z" fill="#2F2E41"/>
<path d="M677.045 591.564L664.867 591.563L659.074 544.587L677.047 544.588L677.045 591.564Z" fill="#A0616A"/>
<path d="M677.474 604.268L640.024 604.266V603.793C640.025 599.927 641.56 596.219 644.294 593.486C647.028 590.752 650.735 589.216 654.601 589.216H654.602L661.443 584.026L674.206 589.217H677.475L677.474 604.268Z" fill="#2F2E41"/>
<path d="M803.103 304.209L693.895 306.611L683.07 320.142C683.07 320.142 684.007 315.371 683.173 320.611C682.34 325.851 661.272 430.327 665.254 433.831C669.237 437.335 657.703 461.527 656.855 463.003C656.008 464.478 646.878 537.3 656.855 543.288L660.604 568.706H678.044C678.044 568.706 695.515 548.487 691.999 544.822C688.483 541.157 698.539 528.969 698.923 522.434C699.308 515.898 702.979 486.255 700.135 481.503C697.29 476.75 693.444 458.913 700.661 451.998C707.877 445.083 741.535 360.109 741.535 360.109C741.535 360.109 751.315 459.728 751.292 467.55C751.262 477.722 757.942 472.688 757.942 481.618C757.942 483.422 779.693 529.794 794.311 544.289L824.541 567.543L838.493 557.079V541.964C838.493 541.964 825.563 513.918 821.053 509.408C816.542 504.897 799.888 491.09 799.888 484.775C799.888 478.461 792.048 476.261 797.321 467.889C802.595 459.517 800.79 455.908 798.986 452.3C797.182 448.691 800.603 300.845 800.603 300.845L803.103 304.209Z" fill="#2F2E41"/>
<path d="M757.566 84.9852C775.791 84.9852 790.566 70.21 790.566 51.9839C790.566 33.7578 775.791 18.9826 757.566 18.9826C739.34 18.9826 724.565 33.7578 724.565 51.9839C724.565 70.21 739.34 84.9852 757.566 84.9852Z" fill="#A0616A"/>
<path d="M783.929 316.823L793.218 288.859L809.932 291.937L799.059 321.152C799.72 322.864 799.891 324.726 799.552 326.53C799.212 328.333 798.377 330.006 797.139 331.361C795.901 332.715 794.31 333.697 792.544 334.197C790.778 334.697 788.909 334.694 787.144 334.189C785.38 333.684 783.792 332.698 782.558 331.339C781.324 329.981 780.493 328.306 780.159 326.502C779.825 324.697 780.001 322.836 780.667 321.126C781.333 319.416 782.463 317.926 783.929 316.823L783.929 316.823Z" fill="#A0616A"/>
<path d="M591.277 262.781L614.038 244.067L626.542 255.578L601.774 274.507C601.421 276.308 600.573 277.975 599.325 279.32C598.077 280.665 596.479 281.636 594.71 282.122C592.94 282.609 591.071 282.592 589.31 282.074C587.55 281.556 585.969 280.557 584.745 279.19C583.521 277.823 582.703 276.141 582.382 274.335C582.062 272.528 582.251 270.668 582.93 268.963C583.609 267.258 584.749 265.776 586.224 264.684C587.699 263.592 589.449 262.933 591.277 262.781H591.277Z" fill="#A0616A"/>
<path d="M718.053 46.2106C721.611 47.3152 725.04 47.9663 727.354 45.0479C729.668 42.1295 729.063 38.7925 732.505 37.3855C735.383 36.4204 738.518 36.5656 741.295 37.7925C741.795 37.9785 742.283 38.1878 742.76 38.3971C743.027 38.1645 743.294 37.9437 743.585 37.7343C745.773 36.1787 748.473 35.5212 751.131 35.8973C749.188 36.8357 747.59 38.361 746.562 40.2575C747.515 40.7342 748.48 41.2109 749.457 41.6178C753.561 43.2968 758 43.9966 762.422 43.6615C766.843 43.3265 771.126 41.966 774.931 39.6878C771.117 49.7336 774.082 53.3147 779.675 62.4886L779.896 63.0234C779.337 60.6166 786.651 57.8377 786.651 61.3259C786.329 64.8996 785.548 68.4169 784.325 71.7903C791.499 60.9887 795.731 48.3499 792.952 36.2228C792.359 33.6765 792.092 30.9441 790.476 28.8744C788.86 26.8165 785.883 25.6072 783.535 26.77C783.244 22.8266 781.889 19.0359 779.616 15.8007C777.343 12.5656 774.235 10.0069 770.624 8.39685C767.013 6.78675 763.033 6.18538 759.107 6.65665C755.181 7.12792 751.456 8.65421 748.329 11.0733C745.422 13.3173 743.132 16.259 740.539 18.8751C737.946 21.4913 734.877 23.8748 731.249 24.5259C728.947 24.9329 726.354 24.6887 724.517 26.1422C722.39 27.8281 722.366 30.793 722.378 33.6417C724.46 33.5823 726.512 34.1449 728.273 35.2578C726.118 35.312 724.035 36.0444 722.32 37.3507C722.287 37.3711 722.256 37.3945 722.227 37.4205C721.599 42.2109 721.855 43.2225 718.053 46.2106Z" fill="#2F2E41"/>
<path d="M834.158 154.382C833.39 150.701 831.87 147.218 829.693 144.152C827.516 141.085 824.73 138.502 821.508 136.562C821.268 135.331 820.84 134.543 820.184 134.309C810.805 130.975 784.62 115.57 784.62 115.57L782.425 97.9538L735.042 95.6771L722.917 115.57C722.917 115.57 691.509 118.727 692.091 130.225C684.485 139.713 650.626 182.106 630.332 210.142C620.632 223.541 614.028 233.664 614.876 235.34C617.732 240.986 613.72 237.177 609.231 238.197C604.742 239.217 606.918 241.869 607.02 245.78C607.122 249.691 591.684 257.92 591.684 257.92C601.103 261.287 612.902 275.127 612.902 275.127C612.902 275.127 624.328 263.09 626.402 261.831C628.477 260.573 629.633 258.737 636.196 256.459C642.759 254.181 640.005 252.446 640.481 247.617C640.957 242.789 642.555 246.359 651.771 241.905C660.986 237.45 653.505 239.15 656.056 233.063C658.606 226.976 657.79 230.309 666.087 225.276C671.075 222.251 676.028 217.809 682.921 210.142C687.495 205.053 692.923 198.546 699.787 190.081C699.834 190.023 699.878 189.964 699.924 189.906C700.385 196.768 700.741 203.633 700.952 210.142C701.552 228.635 700.979 244.229 698.288 248.523C694.51 254.55 688.114 274.721 682.916 292.431C681.909 295.866 681.731 299.49 682.397 303.007C683.063 306.523 684.553 309.832 686.745 312.661C688.937 315.49 691.769 317.758 695.008 319.281C698.247 320.803 701.801 321.536 705.378 321.418C737.628 320.355 784.821 317.895 794.019 312.497C799.022 313.212 803.965 314.299 808.807 315.747C808.807 315.747 812.062 299.472 813.146 297.302C814.231 295.132 814.231 292.962 818.571 287.537C822.911 282.112 819.656 282.112 817.486 277.772C815.316 273.432 818.571 275.602 823.996 266.922C829.421 258.242 823.996 263.667 822.911 257.157C821.826 250.647 822.911 253.902 827.251 245.222C830.847 238.03 832.954 228.593 835.422 210.141C835.932 206.325 836.458 202.131 837.016 197.482C838.859 182.124 836.528 165.722 834.158 154.382Z" fill="#F9A826"/>
<path d="M315.83 578.835C315.107 578.868 314.391 578.678 313.779 578.291C313.167 577.903 312.689 577.337 312.41 576.669C312.131 576.002 312.064 575.264 312.217 574.556C312.371 573.849 312.739 573.206 313.271 572.714L313.513 571.752C313.481 571.675 313.449 571.598 313.417 571.522C312.688 569.801 311.467 568.333 309.907 567.304C308.347 566.275 306.518 565.729 304.649 565.736C302.781 565.743 300.956 566.302 299.403 567.343C297.851 568.384 296.641 569.86 295.926 571.587C293.065 578.477 289.423 585.379 288.526 592.664C288.131 595.884 288.298 599.149 289.018 602.312C282.299 587.655 278.81 571.724 278.788 555.6C278.786 551.554 279.011 547.511 279.461 543.49C279.833 540.193 280.349 536.92 281.009 533.671C284.61 516.039 292.342 499.514 303.57 485.451C309.004 482.486 313.399 477.926 316.162 472.386C317.163 470.395 317.871 468.269 318.263 466.075C317.65 466.155 315.951 456.819 316.414 456.246C315.559 454.95 314.03 454.305 313.097 453.04C308.457 446.749 302.064 447.847 298.726 456.397C291.597 459.995 291.528 465.963 295.902 471.703C298.685 475.355 299.068 480.296 301.51 484.205C301.259 484.527 300.997 484.838 300.746 485.16C296.153 491.065 292.151 497.407 288.795 504.094C289.611 496.603 288.637 489.025 285.953 481.984C283.233 475.422 278.135 469.895 273.645 464.222C268.252 457.408 257.193 460.382 256.243 469.02C256.234 469.103 256.225 469.187 256.216 469.271C256.883 469.647 257.536 470.046 258.175 470.469C258.977 471.005 259.599 471.771 259.958 472.666C260.318 473.562 260.399 474.545 260.19 475.487C259.981 476.429 259.493 477.287 258.789 477.946C258.085 478.606 257.197 479.038 256.244 479.185L256.146 479.2C256.384 481.604 256.804 483.986 257.402 486.325C251.642 508.601 264.077 516.714 281.833 517.078C282.225 517.279 282.607 517.48 282.999 517.671C279.627 527.226 277.512 537.178 276.707 547.278C276.252 553.237 276.279 559.223 276.788 565.177L276.758 564.966C275.471 558.345 271.939 552.371 266.758 548.052C259.063 541.731 248.192 539.403 239.89 534.322C239.008 533.755 237.982 533.453 236.933 533.45C235.885 533.448 234.858 533.745 233.973 534.307C233.088 534.87 232.382 535.673 231.939 536.623C231.495 537.573 231.333 538.63 231.47 539.67C231.482 539.744 231.493 539.818 231.504 539.892C232.742 540.396 233.947 540.976 235.112 541.63C235.779 542.007 236.432 542.406 237.071 542.828C237.873 543.364 238.495 544.13 238.854 545.026C239.214 545.921 239.295 546.905 239.086 547.847C238.877 548.789 238.389 549.646 237.685 550.306C236.98 550.966 236.093 551.398 235.14 551.545L235.042 551.56C234.971 551.57 234.911 551.58 234.841 551.59C236.955 556.639 239.923 561.286 243.614 565.328C247.216 584.773 262.684 586.618 279.23 580.956H279.24C281.055 588.845 283.686 596.524 287.089 603.87H315.127C315.228 603.558 315.318 603.236 315.409 602.925C312.813 603.088 310.208 602.933 307.65 602.463C309.731 599.91 311.811 597.337 313.891 594.784C313.937 594.737 313.981 594.686 314.022 594.634C315.077 593.327 316.142 592.031 317.197 590.724L317.198 590.723C317.254 586.718 316.795 582.723 315.831 578.835L315.83 578.835Z" fill="#F2F2F2"/>
<path d="M100.168 536.425L107.904 544.602L143.826 517.988L132.409 505.919L100.168 536.425Z" fill="#C78F8F"/>
<path d="M112.846 540.948L104.087 532.72L101.937 530.705L79.6396 548.532L85.4398 554.662L92.267 550.284L89.1306 558.564L104.509 574.818C105.245 575.598 106.212 576.121 107.268 576.312C108.323 576.504 109.412 576.353 110.376 575.881C111.339 575.41 112.127 574.643 112.624 573.692C113.121 572.742 113.3 571.657 113.137 570.597L109.818 549.125L115.667 543.594L112.846 540.948Z" fill="#2F2E41"/>
<path d="M270.191 238.708L267.738 265.486C267.738 265.486 263.457 285.661 266.421 284.026C269.386 282.391 264.07 289.751 265.47 296.133C266.87 302.515 253.513 350.109 259.563 345.179C265.613 340.248 256.066 374.309 250.029 391.113C248.18 396.307 246.281 401.565 244.369 406.784C243.992 407.841 243.614 408.885 243.225 409.942C240.747 416.734 238.269 423.425 235.892 429.739C235.553 430.619 235.225 431.5 234.899 432.368C234.886 432.393 234.886 432.418 234.874 432.418C227.05 453.008 220.347 469.208 217.668 471.887C216.272 473.283 194.123 489.282 171.799 505.306C148.367 522.123 124.747 538.977 124.747 538.977L102.686 515.834C102.686 515.834 103.214 515.683 104.208 515.381C106.044 514.852 109.44 513.859 113.893 512.538C132.456 507.067 108.874 498.552 125.728 492.464C130.482 490.754 133.652 489.42 134.368 488.716C138.557 484.628 144.179 474.88 146.833 478.968C149.486 483.056 161.523 452.681 164.994 449.675C166.856 448.052 172.93 440.468 178.138 433.801C182.615 428.066 186.463 422.997 186.463 422.997C186.463 422.997 186.539 420.28 186.652 415.954C186.816 409.552 187.055 399.603 187.307 389.641C187.294 389.628 187.294 389.628 187.307 389.628C187.394 385.88 187.482 382.132 187.571 378.572C187.633 375.818 187.696 373.164 187.759 370.711C187.923 363.366 188.036 357.807 188.036 356.423C188.036 351.883 188.036 355.417 191.62 352.675C192.156 352.255 192.664 351.801 193.142 351.317C193.908 350.627 194.615 349.874 195.255 349.065C195.519 348.499 193.872 349.267 191.733 348.839C190.575 348.607 189.504 348.058 188.639 347.254C184.136 343.204 188.992 330.752 188.992 330.752C178.754 310.276 179.496 293.484 184.288 280.542C187.871 271.254 193.558 262.924 200.902 256.204C203.697 253.54 206.743 251.152 209.996 249.072L210.311 247.375L213.769 228.646C215.609 227.636 217.521 226.765 219.492 226.043C225.635 223.838 232.227 223.182 238.684 224.131C245.102 225.06 251.316 227.071 257.06 230.08C261.756 232.439 266.162 235.335 270.191 238.708Z" fill="#2F2E41"/>
<path d="M173.592 578.146L184.799 579.188L194.244 535.488L177.701 533.95L173.592 578.146Z" fill="#C78F8F"/>
<path d="M205.871 595.274L189.218 581.326L189.973 573.301L186.099 573.176L174.101 572.786H174.088L171.145 572.685L166.151 600.784L174.566 601.563L176.792 593.765L179.899 602.067L184.351 602.482L202.173 604.142C202.324 604.154 202.487 604.167 202.638 604.167C203.347 604.168 204.048 604.018 204.694 603.728C205.34 603.437 205.917 603.013 206.386 602.482C207.116 601.683 207.562 600.666 207.656 599.589C207.73 598.779 207.606 597.963 207.295 597.212C206.984 596.46 206.495 595.795 205.871 595.274Z" fill="#2F2E41"/>
<path d="M235.893 429.739C231.629 452.945 213.58 507.356 202.664 539.203C197.695 553.755 194.224 563.604 194.224 563.604L188.564 561.818H188.552L178.98 558.799L175.496 557.692H175.484L171.258 556.347C171.258 556.347 171.748 530.361 171.799 505.306C171.836 494.803 171.786 484.452 171.585 476.251C171.358 467.309 170.968 460.907 170.327 459.636C167.673 454.429 172.113 453.875 176.805 452.567C181.508 451.247 177.836 449.26 176.012 445.034C174.78 442.216 177.207 438.455 178.93 436.317C179.405 435.715 179.913 435.14 180.452 434.594C180.452 434.594 179.622 434.304 178.138 433.801C182.615 428.066 186.464 422.997 186.464 422.997C186.464 422.997 186.539 420.28 186.652 415.954C186.816 409.552 187.055 399.603 187.307 389.641C187.294 389.628 187.294 389.628 187.307 389.628C187.395 385.88 187.482 382.132 187.571 378.572C194.765 384.094 201.758 389.503 208.097 394.509C208.105 394.515 208.111 394.522 208.115 394.531C208.12 394.54 208.122 394.549 208.122 394.559C223.353 406.596 234.786 416.256 236.396 419.325C237.125 420.708 236.873 424.406 235.893 429.739Z" fill="#2F2E41"/>
<path d="M207.419 193.443L209.776 215.306L208.39 243.974L271.886 236.43L277.852 193.443L270.25 193.519L207.419 193.443Z" fill="#FFB6B6"/>
<path d="M261.43 122.829L237.533 103.962L224.989 103.233L206.375 115.158L201.817 138.411L191.038 164.595L206.848 235.259C206.848 235.259 208.331 240.33 204.445 240.939C200.56 241.548 201.026 249.023 201.026 249.023C201.026 249.023 201.817 255.5 198.044 256.071C194.271 256.641 184.209 256.641 193.013 267.961C201.817 279.281 271.453 236.467 271.453 236.467L281.567 183.397C281.567 183.397 301.181 157.051 280.058 141.962L261.43 122.829Z" fill="#F9A826"/>
<path d="M157.108 283.269C156.055 281.955 155.303 280.426 154.905 278.79C154.507 277.154 154.472 275.45 154.803 273.799C155.135 272.148 155.824 270.59 156.823 269.234C157.821 267.879 159.105 266.759 160.584 265.953L190.642 165.073L209.438 174.536L176.703 271.228C177.892 273.802 178.096 276.722 177.276 279.436C176.456 282.15 174.669 284.468 172.253 285.952C169.838 287.437 166.962 287.983 164.171 287.488C161.379 286.994 158.866 285.492 157.108 283.269L157.108 283.269Z" fill="#C78F8F"/>
<path d="M210.692 114.224C210.692 114.224 205.319 111.369 201.644 123.726C198.702 133.618 174.828 192.542 174.524 206.868C172.559 207.284 170.789 208.343 169.492 209.876C168.194 211.409 167.444 213.331 167.359 215.337L196.877 219.293C202.035 214.942 203.388 209.066 201.392 207.322L207.801 189.818L234.538 134.124L214.612 116.219L210.692 114.224Z" fill="#F9A826"/>
<path d="M368.412 250.11C368.793 248.47 368.81 246.766 368.462 245.118C368.114 243.471 367.408 241.92 366.395 240.575C365.383 239.23 364.087 238.123 362.601 237.332C361.114 236.542 359.472 236.087 357.79 236L288.837 157.246L274.21 174.7L345.537 247.727C345.578 250.562 346.657 253.283 348.57 255.376C350.483 257.468 353.097 258.786 355.917 259.079C358.736 259.373 361.566 258.622 363.869 256.969C366.172 255.316 367.789 252.875 368.412 250.11L368.412 250.11Z" fill="#C78F8F"/>
<path d="M246.999 120.861C246.999 120.861 250.609 115.963 259.266 125.515C266.196 133.162 313.202 175.968 319.672 188.753C321.623 188.279 323.677 188.468 325.51 189.289C327.342 190.111 328.85 191.519 329.794 193.291L304.89 209.623C298.358 207.931 294.597 203.218 295.642 200.783L282.294 187.771L234.103 149.117L244.327 124.355L246.999 120.861Z" fill="#F9A826"/>
<path d="M579.034 285.662C577.044 284.975 575.401 283.537 574.454 281.656C573.507 279.775 573.331 277.599 573.964 275.591C574.099 275.184 574.268 274.79 574.468 274.412L555.424 253.609L562.579 240.232L585.586 271.549C587.091 272.501 588.239 273.924 588.85 275.596C589.461 277.268 589.501 279.096 588.964 280.793C588.65 281.756 588.149 282.648 587.489 283.417C586.83 284.187 586.026 284.819 585.122 285.277C584.219 285.736 583.234 286.012 582.224 286.09C581.214 286.167 580.198 286.045 579.235 285.731C579.168 285.709 579.101 285.686 579.034 285.662Z" fill="#FFB6B6"/>
<path d="M456.942 127.657C456.312 130.594 456.245 133.624 456.744 136.586C456.876 137.425 457.058 138.254 457.288 139.071C458.141 142.123 458.951 144.935 459.733 147.472C460.192 149.048 460.665 150.533 461.117 151.911C463.723 159.958 465.758 164.514 467.201 165.473C467.9 165.942 468.603 166.371 469.284 166.79C472.775 168.926 475.305 170.475 473.613 174.417C473.367 174.98 473.075 175.522 472.74 176.038C472.179 176.904 471.56 177.73 470.886 178.511C470.501 178.953 470.147 179.419 469.824 179.907C469.403 180.531 469.22 181.056 469.446 181.532C469.733 182.117 470.526 182.408 472.229 182.491C472.5 182.503 472.81 182.519 473.142 182.518C473.25 182.525 473.362 182.521 473.486 182.522C473.705 182.525 473.953 182.527 474.206 182.517C476.31 182.477 479.025 183.585 481.931 185.276C490.507 190.271 500.613 200.326 500.736 200.451L563.835 264.973L565.064 264.149L567.985 262.187L568.995 261.513L570.147 260.738L575.166 257.379L577.702 255.685L561.426 225.802L559.654 222.553L558.135 219.751L527.065 162.688L514.723 143.07L511.969 138.699L500.232 120.06C498.575 117.423 496.414 115.138 493.874 113.335C491.334 111.533 488.464 110.249 485.427 109.556C482.39 108.863 479.247 108.775 476.176 109.296C473.106 109.818 470.168 110.94 467.53 112.597C467.353 112.709 467.176 112.823 467.001 112.939C461.867 116.355 458.26 121.632 456.942 127.657Z" fill="#F9A826"/>
<path d="M461.13 578.546L449.57 578.448L444.452 532.817L461.514 532.962L461.13 578.546Z" fill="#FFB6B6"/>
<path d="M464.196 573.213L461.177 573.012L448.864 572.17L444.902 571.905L444.827 580.169L426.363 592.696C425.451 593.316 424.761 594.211 424.394 595.25C424.027 596.289 424.001 597.419 424.322 598.474C424.642 599.529 425.291 600.454 426.174 601.114C427.057 601.774 428.128 602.134 429.231 602.142L452.209 602.331L456.234 594.181L457.706 602.381L466.384 602.456L464.196 573.213Z" fill="#2F2E41"/>
<path d="M582.841 570.099L571.792 573.496L553.14 531.539L569.449 526.526L582.841 570.099Z" fill="#FFB6B6"/>
<path d="M584.158 564.094L581.215 564.811L569.23 567.717L565.368 568.66L567.795 576.572L553.972 594.08C553.289 594.945 552.901 596.006 552.863 597.107C552.826 598.209 553.141 599.293 553.763 600.203C554.385 601.113 555.281 601.8 556.321 602.165C557.361 602.529 558.491 602.552 559.545 602.23L581.517 595.476L582.888 586.483L586.774 593.853L595.063 591.3L584.158 564.094Z" fill="#2F2E41"/>
<path d="M437.877 194.857L415.817 258.971L415.088 264.101C409.529 269.379 416.512 271.118 413.894 272.51C411.276 273.902 409.515 277.804 413.043 278.501C416.572 279.198 427.948 529.267 442.953 538.977C457.958 548.686 467.09 555.71 464.334 541.492C463.224 535.764 464.795 505.052 467.066 470.418C467.324 466.493 471.391 462.338 467.863 458.522C464.334 454.706 468.297 452.195 468.519 449.028C471.684 403.802 475.338 359.152 475.338 359.152C475.338 359.152 498.725 439.47 504.798 433.253C510.87 427.035 508.467 442.343 510.323 446.918C511.873 450.74 505.257 458.249 514.981 458.364C524.705 458.479 547.543 536.549 549.86 536.461C554.45 536.286 567.353 536.781 575.015 535.203C578.799 534.425 562.003 475.317 547.978 424.277C546.86 420.206 540.773 420.112 544.688 412.253C548.602 404.395 529.124 353.548 530.795 351.196C535.232 344.954 536.922 342.241 532.546 341.832C528.171 341.423 526.878 343.824 526.642 337.769C526.405 331.714 525.65 316.783 525.65 316.783C525.65 316.783 522.481 257.732 500.287 225.107L498.394 205.722L437.877 194.857Z" fill="#2F2E41"/>
<path d="M492.991 72.4485L463.735 76.6142L461.97 97.7989L447.533 120.382C447.533 120.382 415.444 142.966 437.824 178.64C429.307 209.372 420.84 238.844 412.767 258.493C406.478 297.484 462.816 301.221 527.22 287.422C527.22 287.422 526.332 270.75 520.488 262.735C514.643 254.72 517.825 252.97 517.825 252.97L513.741 237.996C516.052 216.352 508.249 214.409 504.581 204.409L515.715 100.649L492.991 72.4485Z" fill="#F9A826"/>
<path d="M352.548 253.809C352.858 251.726 353.968 249.846 355.643 248.57C357.318 247.293 359.425 246.72 361.515 246.973C361.939 247.032 362.358 247.125 362.767 247.252L379.713 224.708L394.178 229.282L367.624 257.655C366.966 259.309 365.778 260.699 364.247 261.607C362.715 262.515 360.926 262.891 359.159 262.675C357.13 262.408 355.291 261.346 354.045 259.723C352.8 258.099 352.25 256.047 352.517 254.019C352.526 253.949 352.537 253.879 352.548 253.809Z" fill="#FFB6B6"/>
<path d="M503.072 113.447C502.656 112.931 502.204 112.428 501.726 111.937C498.404 108.514 494.126 106.173 489.451 105.221C484.776 104.27 479.923 104.752 475.527 106.605C475.1 106.78 474.672 106.982 474.257 107.183C459.227 114.566 451.115 119.484 450.134 121.786C449.794 122.566 449.505 123.333 449.216 124.075C448.939 124.804 448.675 125.496 448.398 126.125C447.241 128.817 445.908 130.49 442.512 129.735C441.386 129.459 440.3 129.041 439.28 128.49C438.814 128.263 438.387 128.024 437.984 127.798C436.525 126.993 435.469 126.415 434.752 126.943C434.06 127.458 434.035 128.766 434.664 131.798C434.872 133.063 434.838 134.356 434.563 135.608C433.732 139.262 432.429 142.792 430.689 146.111C428.082 151.313 425.15 156.346 421.91 161.179L391.989 203.843L389.964 206.723L387.75 209.88L370.092 235.061L371.136 236.13L375.513 240.595L376.481 241.589L377.362 242.494L379.638 244.821L381.776 246.997L429.482 208.132L434.802 203.792L444.336 196.02L463.868 180.109L500.833 145.897C503.166 143.755 505.043 141.163 506.351 138.278C507.658 135.393 508.369 132.273 508.442 129.106C508.442 128.892 508.455 128.691 508.455 128.477C508.469 122.992 506.564 117.676 503.072 113.447Z" fill="#F9A826"/>
<path d="M475.428 71.6774C493.483 71.6774 508.119 57.0408 508.119 38.9855C508.119 20.9303 493.483 6.2937 475.428 6.2937C457.373 6.2937 442.737 20.9303 442.737 38.9855C442.737 57.0408 457.373 71.6774 475.428 71.6774Z" fill="#FFB6B6"/>
<path d="M518.75 84.3174C523.137 90.5968 526.072 97.774 527.341 105.329C523.806 107.591 519.69 108.779 515.492 108.749C515.35 108.199 515.207 107.65 515.045 107.1C513.828 102.843 512.019 98.7789 509.67 95.0266C509.992 99.0727 509.443 103.141 508.061 106.957C505.843 105.949 503.467 105.336 501.038 105.145C499.059 105.145 497.107 105.605 495.337 106.489C493.281 99.6686 491.387 93.3978 490.044 88.8983C490.003 100.178 473.472 110.011 455.434 108.586C454.782 108.179 461.317 89.6313 460.686 89.2037C459.241 88.2469 457.836 87.2085 456.431 86.1905C462.335 77.0693 468.748 67.2967 467.649 65.8309C467.73 67.643 461.256 76.3568 454.212 84.5821C450.303 81.7114 472.515 35.0065 461.541 31.2196C461.358 32.8687 458.935 32.8687 455.983 32.5226C455.205 29.8017 454.046 27.204 452.543 24.8063C452.738 27.2216 452.448 29.6516 451.688 31.9525C448.773 31.9534 445.866 32.2604 443.015 32.8687C442.355 31.8308 441.628 30.8378 440.836 29.8962C440.914 31.0437 440.88 32.1961 440.735 33.337C437.823 33.9681 435.421 34.701 435.075 35.2915C432.795 34.4567 436.683 30.6903 435.258 28.7357C431.634 23.8495 437.009 16.7236 440.409 11.6743C447.392 1.33173 462.722 -2.25158 473.574 3.95806C474.062 2.26818 476.566 1.14844 479.783 0.395139C481.146 0.0946347 482.541 -0.0353224 483.936 0.00828376C497.78 0.252581 516.999 11.6743 517.753 25.4986C517.814 26.883 517.915 28.3896 518.017 29.998C518.994 45.4713 517.793 59.7435 528.36 71.0634C532.187 75.1556 532.228 94.5379 530.762 104.514C526.954 100.503 524.247 84.9079 518.75 84.3174Z" fill="#2F2E41"/>
<path d="M203.267 52.5791C200.396 59.7309 192.295 73.7953 191.197 81.4678L191.691 80.9821C192.633 82.5915 193.704 84.1223 194.892 85.5594C197.023 83.322 199.596 81.5527 202.447 80.3645C200.89 83.5597 199.988 87.0343 199.795 90.5836C202.852 100.167 216.986 95.8993 225.267 94.8529C233.536 104.312 244.538 106.781 258.945 101.342C262.974 101.757 267.485 102.009 270.308 99.628C273.132 97.247 271.45 92.8376 272.97 89.5026C283.79 65.7471 273.804 57.1763 265.32 46.4046C263.453 44.0342 263.46 40.4967 261.188 38.2351C258.036 35.1002 253.204 34.1359 248.749 33.3635C249.906 33.4244 251.06 33.1865 252.098 32.6724C253.137 32.1584 254.026 31.3857 254.68 30.4286C255.253 29.4643 255.549 28.3604 255.534 27.2387C255.52 26.117 255.196 25.0209 254.599 24.0715C253.006 21.4299 249.695 19.8938 246.5 19.5101C243.354 19.2963 240.192 19.5681 237.128 20.3157C235.143 20.5768 233.221 21.1912 231.453 22.1299C230.618 22.575 229.94 23.2643 229.508 24.1055C229.076 24.9468 228.911 25.8999 229.035 26.8374C229.301 27.7032 229.759 28.4977 230.375 29.1617C230.991 29.8257 231.749 30.3421 232.592 30.6723C233.878 31.216 235.231 31.5862 236.615 31.7733C230.259 30.9486 223.804 32.0786 218.107 35.013C210.967 38.8216 206.149 45.431 203.267 52.5791Z" fill="#2F2E41"/>
<path d="M241.929 92.675C256.025 92.675 267.452 81.2476 267.452 67.1513C267.452 53.0549 256.025 41.6276 241.929 41.6276C227.833 41.6276 216.406 53.0549 216.406 67.1513C216.406 81.2476 227.833 92.675 241.929 92.675Z" fill="#C78F8F"/>
<path d="M217.369 53.4659C218.849 57.9385 223.078 59.3798 226.987 60.2786C228.219 60.5659 229.459 60.8336 230.711 61.0718C231.172 60.4945 231.664 59.9287 232.176 59.3939C234.307 57.1565 236.88 55.3873 239.731 54.199C238.498 56.723 237.679 59.4287 237.304 62.2127C239.667 62.5556 242.043 62.8357 244.432 63.0532C246.454 63.4835 248.563 63.1207 250.325 62.0398C252.086 60.959 253.365 59.2427 253.897 57.2456C256.072 60.8025 258.644 64.1521 262.161 65.565C264.172 66.2877 266.362 66.3471 268.409 65.7346C270.456 65.1221 272.254 63.8698 273.537 62.1614C275.565 59.3745 276.971 56.1849 277.66 52.8079C278.658 48.8472 279.213 44.2846 277.253 41.7716C275.683 39.7378 272.975 39.7013 270.477 39.8817C264.962 40.3048 259.505 41.2941 254.193 42.8341L253.743 43.8453C254.656 38.3604 252.675 33.0832 249.011 31.2064C246.54 29.9516 243.567 30.162 240.678 30.4165C236.967 30.5821 233.3 31.2912 229.795 32.5212C225.774 34.068 222.329 36.8195 219.931 40.3992C217.367 44.2929 216.093 49.6033 217.369 53.4659Z" fill="#2F2E41"/>
<path d="M253.754 29.6101C253.503 29.5358 254.155 29.6312 253.929 29.6373C254.041 29.6308 254.153 29.6152 254.263 29.5906C254.281 29.5868 254.535 29.5057 254.367 29.5653C254.746 29.452 255.084 29.2313 255.34 28.9299C255.94 28.1885 256.41 27.3514 256.731 26.4537C257.137 25.2674 257.789 24.1803 258.645 23.2637C258.887 23.0199 259.184 22.8367 259.511 22.7291C259.838 22.6215 260.186 22.5925 260.526 22.6444C260.866 22.6963 261.189 22.8277 261.469 23.028C261.749 23.2282 261.977 23.4916 262.136 23.7968C262.459 24.9742 262.349 26.2283 261.825 27.3311C261.459 28.4532 260.915 29.509 260.213 30.4576C259.036 32.009 257.434 33.1846 255.601 33.8412C253.479 34.6117 251.166 34.6778 249.004 34.0297C248.718 33.9112 248.473 33.7122 248.299 33.4569C248.124 33.2016 248.028 32.901 248.021 32.5918C248.014 32.2827 248.097 31.9782 248.261 31.7155C248.424 31.4528 248.66 31.2433 248.94 31.1125L252.546 29.6364C252.736 29.5521 252.94 29.506 253.148 29.5008C253.355 29.4955 253.562 29.5313 253.755 29.6059C253.949 29.6805 254.126 29.7926 254.276 29.9358C254.427 30.0789 254.547 30.2503 254.631 30.4401C254.716 30.6299 254.761 30.8344 254.766 31.0419C254.771 31.2494 254.735 31.4559 254.66 31.6495C254.585 31.843 254.473 32.02 254.33 32.1701C254.186 32.3202 254.015 32.4406 253.825 32.5243L253.818 32.5273L250.212 34.0033L250.149 31.0861C250.598 31.216 251.061 31.2951 251.529 31.3221C252.028 31.3721 252.531 31.3509 253.024 31.2591C253.496 31.1972 253.96 31.0841 254.407 30.9217C254.694 30.817 254.975 30.6979 255.25 30.5647C255.349 30.5163 255.448 30.466 255.546 30.4139C255.539 30.4177 255.959 30.1733 255.775 30.2881C256.241 29.9901 256.678 29.6492 257.082 29.27C257.224 29.1355 257.355 28.9896 257.474 28.8337C257.679 28.5813 257.869 28.3172 258.044 28.0426C258.399 27.4611 258.681 26.8376 258.882 26.1865C258.973 25.9129 259.051 25.6346 259.113 25.353C259.131 25.1983 259.159 25.0451 259.197 24.8943C259.331 24.5349 259.172 25.1041 259.326 25.2598L259.99 25.7496C260.115 25.7868 260.247 25.7954 260.375 25.7748C260.504 25.7543 260.626 25.705 260.733 25.6307C260.812 25.5199 260.795 25.5382 260.682 25.6858C260.55 25.8595 260.429 26.0414 260.321 26.2303C260.083 26.6751 259.867 27.1318 259.675 27.5984C259.278 28.5909 258.777 29.5382 258.179 30.4242C257.593 31.3203 256.739 32.0086 255.739 32.391C254.739 32.7734 253.644 32.8304 252.61 32.5537C252.222 32.3992 251.91 32.0983 251.742 31.7158C251.573 31.3334 251.562 30.9002 251.71 30.5096C251.869 30.1247 252.17 29.8161 252.551 29.6484C252.932 29.4807 253.363 29.467 253.754 29.6101Z" fill="#2F2E41"/>
</g>
<defs>
<clipPath id="clip0_469_558">
<rect width="909" height="605" fill="white"/>
</clipPath>
</defs>
</svg>
