<svg width="21" height="16" viewBox="0 0 21 16" fill="none" xmlns="http://www.w3.org/2000/svg">
<path d="M8.75008 7.71938L8.71962 7.48861C8.67252 7.13188 8.48325 6.81227 8.15702 6.68383C7.64382 6.48179 6.69123 6.22921 5.13594 6.22921C3.58064 6.22921 2.62805 6.48179 2.11485 6.68383C1.78862 6.81227 1.59936 7.13188 1.55226 7.48861L1.03051 11.4402C0.965052 11.936 1.18755 12.412 1.65346 12.5523C2.28235 12.7416 3.37366 12.9491 5.13594 12.9491C5.49578 12.9491 5.82764 12.9404 6.13331 12.9251M8.75008 7.71938C8.16273 7.79567 7.72235 7.90975 7.40585 8.01879C6.9593 8.17264 6.70515 8.59407 6.64332 9.06231L6.13331 12.9251M8.75008 7.71938C9.17152 7.66464 9.66862 7.62935 10.2499 7.62935C10.8853 7.62935 11.4201 7.67151 11.8654 7.73515M6.13331 12.9251L6.09887 13.4774C6.06091 14.0863 6.35754 14.6534 6.94683 14.8111C7.59627 14.9849 8.64477 15.157 10.2499 15.157C11.8548 15.157 12.9032 14.9849 13.5527 14.8112C14.1422 14.6535 14.4388 14.0861 14.4007 13.4771L14.3657 12.9186M14.3657 12.9186C14.7036 12.938 15.0747 12.9491 15.4816 12.9491C17.2439 12.9491 18.3352 12.7415 18.9641 12.5522C19.43 12.412 19.6525 11.9359 19.5871 11.4401L19.0653 7.48856C19.0182 7.13184 18.829 6.81222 18.5027 6.68378C17.9895 6.48174 17.0369 6.22916 15.4816 6.22916C13.9264 6.22916 12.9738 6.48174 12.4606 6.68378C12.1343 6.81222 11.9451 7.13184 11.898 7.48856L11.8654 7.73515M14.3657 12.9186L13.8565 9.06232C13.7947 8.59407 13.5408 8.17275 13.0942 8.01888C12.7988 7.91709 12.3955 7.8109 11.8654 7.73515M10.2499 6.2263C9.0868 6.2263 8.1439 5.28405 8.1439 4.12172C8.1439 2.95939 9.0868 2.01714 10.2499 2.01714C11.413 2.01714 12.3559 2.95939 12.3559 4.12172C12.3559 5.28405 11.413 6.2263 10.2499 6.2263ZM15.4816 4.82611C14.3185 4.82611 13.3756 3.88385 13.3756 2.72153C13.3756 1.5592 14.3185 0.616943 15.4816 0.616943C16.6448 0.616943 17.5877 1.5592 17.5877 2.72153C17.5877 3.88385 16.6448 4.82611 15.4816 4.82611ZM5.13594 4.82615C3.97282 4.82615 3.02992 3.8839 3.02992 2.72157C3.02992 1.55924 3.97282 0.61699 5.13594 0.61699C6.29905 0.61699 7.24195 1.55924 7.24195 2.72157C7.24195 3.8839 6.29905 4.82615 5.13594 4.82615Z" stroke="#636363" stroke-width="0.888561"/>
</svg>
