<svg width="56" height="49" viewBox="0 0 56 49" fill="none" xmlns="http://www.w3.org/2000/svg">
<path fill-rule="evenodd" clip-rule="evenodd" d="M26.1273 1.07781C26.9579 -0.359272 29.0421 -0.359269 29.8727 1.07781L55.7093 45.7797C56.5373 47.2124 55.4978 49 53.8366 49H2.16338C0.502175 49 -0.537349 47.2124 0.290716 45.7797L26.1273 1.07781ZM30.1188 13.9073C28.95 12.74 27.0501 12.74 25.8814 13.9074C25.2569 14.5312 24.9423 15.3981 25.0221 16.2749L26.3958 31.3696C26.4297 31.7421 26.5934 32.091 26.8586 32.356C27.4882 32.985 28.5119 32.985 29.1416 32.3561C29.407 32.091 29.5709 31.742 29.6048 31.3694L30.9785 16.2752C31.0583 15.3982 30.7435 14.5311 30.1188 13.9073ZM30.1433 42.2171C28.9599 43.3945 27.0412 43.3945 25.8577 42.2171C24.6743 41.0398 24.6743 39.131 25.8577 37.9536C27.0412 36.7763 28.9599 36.7763 30.1433 37.9536C31.3268 39.131 31.3268 41.0398 30.1433 42.2171Z" fill="#FFB82E"/>
</svg>
