<svg width="34" height="34" viewBox="0 0 34 34" fill="none" xmlns="http://www.w3.org/2000/svg">
<path d="M10.3333 25L10.746 20.5784C10.89 19.0362 12.1842 17.8571 13.733 17.8571H20.267C21.8158 17.8571 23.11 19.0362 23.254 20.5784L23.6667 25M17 33C8.16344 33 1 25.8366 1 17C1 8.16344 8.16344 1 17 1C25.8366 1 33 8.16344 33 17C33 25.8366 25.8366 33 17 33ZM17 14.7143C15.1591 14.7143 13.6667 13.2219 13.6667 11.381C13.6667 9.54 15.1591 8.04762 17 8.04762C18.8409 8.04762 20.3333 9.54 20.3333 11.381C20.3333 13.2219 18.8409 14.7143 17 14.7143Z" stroke="#FFB82E" stroke-width="1.5" stroke-linecap="round"/>
</svg>
