<svg width="21" height="37" viewBox="0 0 21 37" fill="none" xmlns="http://www.w3.org/2000/svg">
<path fill-rule="evenodd" clip-rule="evenodd" d="M0 9.99683C0 4.39323 4.64227 0 10.25 0C15.8577 0 20.5 4.39323 20.5 9.99683C20.5 14.2901 17.6303 16.5569 15.5445 17.9369C13.6097 19.231 12.5 20.3228 12.5 22.2702V23.25C12.5 24.4926 11.4926 25.5 10.25 25.5C9.00736 25.5 8 24.4926 8 23.25V22.2702C8 17.8724 10.9371 15.6042 13.0478 14.193L13.0573 14.1867C14.9229 12.953 16 11.8602 16 9.99683C16 7.01376 13.5099 4.5 10.25 4.5C6.99011 4.5 4.5 7.01376 4.5 9.99683C4.5 11.2395 3.49264 12.2468 2.25 12.2468C1.00736 12.2468 0 11.2395 0 9.99683Z" fill="#FFB82E"/>
<path fill-rule="evenodd" clip-rule="evenodd" d="M7.23193 33.75C7.23193 32.0931 8.57508 30.75 10.2319 30.75H10.2679C11.9248 30.75 13.2679 32.0931 13.2679 33.75C13.2679 35.4069 11.9248 36.75 10.2679 36.75H10.2319C8.57508 36.75 7.23193 35.4069 7.23193 33.75Z" fill="#FFB82E"/>
</svg>
