<svg width="18" height="34" viewBox="0 0 18 34" fill="none" xmlns="http://www.w3.org/2000/svg">
<path fill-rule="evenodd" clip-rule="evenodd" d="M11.5882 33.4989C11.7053 33.8452 11.3158 34.1404 11.021 33.9289L0.215084 26.1764C0.150648 26.1302 0.0753231 26.1071 0 26.1071V24.1071C0.485323 24.1071 0.970001 24.2565 1.38094 24.5514L8.07646 29.3549L5.48829 21.6974C5.15608 20.7145 5.49741 19.6166 6.35418 19.002L12.5782 14.5366H4.76917C3.73844 14.5366 2.84408 13.874 2.52234 12.9221L0 5.45931V0C0.147341 0 0.294682 0.0849829 0.352129 0.254949L4.41704 12.2817C4.46859 12.4342 4.61009 12.5366 4.76917 12.5366H17.6271C17.99 12.5366 18.1383 13.0091 17.8422 13.2216L7.52004 20.627C7.38529 20.7237 7.3295 20.8987 7.38299 21.057L11.5882 33.4989Z" fill="white"/>
</svg>
