<svg width="1484" height="325" viewBox="0 0 1484 325" fill="none" xmlns="http://www.w3.org/2000/svg">
<path fill-rule="evenodd" clip-rule="evenodd" d="M0.0390625 320L0.0390625 17.7L134.029 17.7C152.777 17.7 169.821 22.0279 185.138 30.6963C200.44 39.0706 212.438 50.4868 221.111 64.9392C230.082 79.4101 234.557 95.896 234.557 114.367C234.557 132.556 230.08 149.178 221.119 164.21C212.447 178.952 200.449 190.658 185.144 199.321C183.245 200.396 181.32 201.404 179.368 202.345L247.738 320.439L170.766 319.997L110.113 212.321L64.2441 212.321L64.2441 320H0.0390625ZM63.2441 211.321L110.697 211.321L171.352 319L245.998 319.429L177.959 201.908C178.262 201.766 178.564 201.622 178.866 201.477C180.821 200.536 182.75 199.527 184.651 198.451C199.809 189.871 211.678 178.288 220.258 163.702C229.124 148.83 233.557 132.385 233.557 114.367C233.557 96.063 229.124 79.761 220.258 65.461C211.678 51.161 199.809 39.864 184.651 31.57C169.493 22.99 152.619 18.7 134.029 18.7L1.03906 18.7L1.03906 319H63.2441L63.2441 211.321ZM147.31 80.9416L147.296 80.9342C140.311 77.302 132.18 75.47 122.875 75.47H64.2441L64.2441 157.983L131.026 157.983C138.593 157.983 145.129 156.304 150.669 152.981C156.512 149.362 160.957 144.5 164.019 138.381C167.092 131.952 168.636 124.811 168.636 116.941C168.636 108.509 166.81 101.255 163.198 95.1418C159.589 89.0348 154.312 84.3025 147.324 80.9485L147.31 80.9416ZM164.917 138.82C161.771 145.112 157.195 150.117 151.189 153.835C145.469 157.267 138.748 158.983 131.026 158.983L63.2441 158.983L63.2441 74.47H122.875C132.313 74.47 140.607 76.329 147.757 80.047C154.907 83.479 160.341 88.341 164.059 94.633C167.777 100.925 169.636 108.361 169.636 116.941C169.636 124.949 168.063 132.242 164.917 138.82ZM481.804 289.399C473.51 296.835 464.358 303.127 454.348 308.275C444.338 313.137 434.042 316.855 423.46 319.429C412.878 322.003 402.439 323.29 392.143 323.29C367.547 323.29 346.097 318.285 327.793 308.275C309.489 298.265 295.189 284.537 284.893 267.091C274.597 249.645 269.449 229.625 269.449 207.031C269.449 189.585 272.309 173.569 278.029 158.983C283.749 144.397 291.757 131.813 302.053 121.231C312.349 110.363 324.504 102.069 338.518 96.349C352.818 90.343 368.262 87.34 384.85 87.34C400.294 87.34 414.594 90.2 427.75 95.92C440.906 101.354 452.203 109.219 461.641 119.515C471.365 129.525 478.801 141.394 483.949 155.122C489.097 168.85 491.385 183.865 490.813 200.167L490.384 219.043L328.532 219.043C328.6 219.378 328.671 219.711 328.743 220.043C330.164 226.546 332.421 232.504 335.515 237.919C341.521 247.929 349.815 255.794 360.397 261.514C371.265 266.948 383.992 269.665 398.578 269.665C408.588 269.665 417.74 268.092 426.034 264.946C434.1 261.887 442.707 256.663 451.855 249.276C452.113 249.067 452.372 248.856 452.632 248.644L481.804 289.399ZM329.767 220.043C331.169 226.368 333.375 232.157 336.378 237.414C342.286 247.256 350.439 254.992 360.858 260.627C371.559 265.974 384.123 268.665 398.578 268.665C408.482 268.665 417.512 267.109 425.679 264.011C433.842 260.915 442.615 255.547 451.999 247.87L452.824 247.195L483.139 289.546L482.471 290.144C474.113 297.637 464.89 303.978 454.805 309.164L454.795 309.17L454.785 309.175C444.712 314.067 434.349 317.809 423.696 320.401C413.041 322.992 402.523 324.29 392.143 324.29C367.409 324.29 345.789 319.256 327.313 309.152C308.856 299.059 294.422 285.205 284.032 267.599C273.635 249.982 268.449 229.783 268.449 207.031C268.449 189.474 271.327 173.333 277.098 158.618C282.863 143.918 290.94 131.22 301.332 120.538C311.725 109.569 323.996 101.197 338.136 95.4247C352.566 89.3653 368.14 86.34 384.85 86.34C400.417 86.34 414.852 89.223 428.141 94.9994C441.421 100.486 452.834 108.43 462.368 118.829C472.188 128.94 479.693 140.925 484.885 154.771C490.084 168.635 492.388 183.782 491.812 200.2C491.812 200.201 491.812 200.201 491.812 200.202L491.361 220.043L329.767 220.043ZM433.327 181.72V180.004C432.755 172.282 430.181 165.275 425.605 158.983C421.315 152.691 415.738 147.829 408.874 144.397C402.01 140.965 394.288 139.249 385.708 139.249C373.124 139.249 362.399 141.68 353.533 146.542C344.953 151.404 338.375 158.554 333.799 167.992C331.908 171.893 330.407 176.135 329.298 180.72C329.217 181.052 329.139 181.385 329.063 181.72H433.327ZM330.327 180.72H432.327V180.041C431.763 172.52 429.256 165.703 424.796 159.571L424.787 159.559L424.779 159.546C420.586 153.396 415.139 148.648 408.427 145.291C401.717 141.937 394.151 140.249 385.708 140.249C373.254 140.249 362.706 142.654 354.02 147.415C345.631 152.171 339.191 159.163 334.699 168.428C332.874 172.193 331.415 176.289 330.327 180.72ZM555.173 313.914L555.163 313.91C538.734 306.704 525.444 296.889 515.322 284.453L514.708 283.7L553.921 249.834L554.578 250.533C563.351 259.872 573.094 266.645 583.806 270.875C594.567 274.839 605.315 276.816 616.054 276.816C620.268 276.816 624.037 276.396 627.369 275.565C630.99 274.449 634.025 273.065 636.49 271.427C638.939 269.516 640.675 267.361 641.738 264.969L641.748 264.948L641.758 264.928C643.119 262.204 643.797 259.354 643.797 256.366C643.797 250.425 641.402 245.736 636.555 242.209C633.758 240.819 629.404 239.133 623.46 237.152L623.44 237.145L623.42 237.138C617.458 234.866 609.772 232.445 600.355 229.877C585.729 226.148 573.227 221.84 562.86 216.944L562.845 216.937L562.83 216.929C552.748 211.745 544.642 205.963 538.54 199.571L538.521 199.551L538.504 199.531C533.292 193.45 529.231 186.926 526.328 179.96L526.319 179.937L526.31 179.914C523.692 172.642 522.39 164.661 522.39 155.98C522.39 145.533 524.713 136.071 529.375 127.618C534.022 118.908 540.411 111.506 548.53 105.416L548.537 105.411L548.544 105.406C556.933 99.3312 566.47 94.7087 577.147 91.5332C587.831 88.0695 599.085 86.34 610.906 86.34C622.714 86.34 634.238 87.7802 645.474 90.6614C656.705 93.541 667.081 97.7181 676.598 103.195C686.395 108.384 694.91 114.588 702.132 121.811L702.805 122.484L668.877 159.983L668.135 159.281C663.042 154.471 657.235 150.08 650.712 146.109L650.704 146.104L650.695 146.099C644.47 142.137 637.966 139.027 631.182 136.766C624.388 134.501 618.349 133.385 613.051 133.385C608.25 133.385 603.891 133.808 599.97 134.648C596.346 135.485 593.32 136.731 590.869 138.365C588.451 139.977 586.567 142.124 585.212 144.825C584.138 147.251 583.592 149.963 583.592 152.977C583.592 155.953 584.264 158.791 585.614 161.504C587.244 164.209 589.411 166.517 592.129 168.428C595.214 170.105 599.722 172.079 605.677 174.347C611.93 176.621 620.335 179.186 630.901 182.042C644.667 185.77 656.312 189.936 665.821 194.546C675.623 199.159 683.454 204.515 689.279 210.631L689.282 210.634C694.239 215.883 697.889 221.868 700.225 228.582C702.554 235.28 703.712 242.686 703.712 250.789C703.712 265.006 699.646 277.793 691.515 289.12C683.679 300.149 672.808 308.835 658.942 315.19L658.934 315.194L658.926 315.197C645.055 321.266 629.471 324.29 612.193 324.29C590.921 324.29 571.912 320.84 555.183 313.918L555.173 313.914ZM690.7 288.541C698.708 277.387 702.712 264.803 702.712 250.789C702.712 242.781 701.568 235.488 699.28 228.91C696.992 222.332 693.417 216.469 688.555 211.321C682.835 205.315 675.113 200.024 665.389 195.448C655.951 190.872 644.368 186.725 630.64 183.007C620.058 180.147 611.621 177.573 605.329 175.285C599.323 172.997 594.747 170.995 591.601 169.279C588.741 167.277 586.453 164.846 584.737 161.986C583.307 159.126 582.592 156.123 582.592 152.977C582.592 149.831 583.164 146.971 584.308 144.397C585.738 141.537 587.74 139.249 590.314 137.533C592.888 135.817 596.034 134.53 599.752 133.672C603.756 132.814 608.189 132.385 613.051 132.385C618.485 132.385 624.634 133.529 631.498 135.817C638.362 138.105 644.94 141.251 651.232 145.255C657.501 149.071 663.12 153.276 668.09 157.871C668.336 158.098 668.579 158.325 668.821 158.554L701.425 122.518C694.275 115.368 685.838 109.219 676.114 104.071C666.676 98.637 656.38 94.49 645.226 91.63C634.072 88.77 622.632 87.34 610.906 87.34C599.18 87.34 588.026 89.056 577.444 92.4881C566.862 95.634 557.424 100.21 549.13 106.216C541.122 112.222 534.83 119.515 530.254 128.095C525.678 136.389 523.39 145.684 523.39 155.98C523.39 164.56 524.677 172.425 527.251 179.575C530.111 186.439 534.115 192.874 539.263 198.88C545.269 205.172 553.277 210.892 563.287 216.04C573.583 220.902 586.024 225.192 600.61 228.91C610.048 231.484 617.77 233.915 623.776 236.203C629.782 238.205 634.215 239.921 637.075 241.351C642.223 245.069 644.797 250.074 644.797 256.366C644.797 259.512 644.082 262.515 642.652 265.375C641.508 267.949 639.649 270.237 637.075 272.239C634.501 273.955 631.355 275.385 627.637 276.529C624.205 277.387 620.344 277.816 616.054 277.816C605.186 277.816 594.318 275.814 583.45 271.81C572.582 267.52 562.715 260.656 553.849 251.218L516.097 283.822C526.107 296.12 539.263 305.844 555.565 312.994C572.153 319.858 591.029 323.29 612.193 323.29C629.353 323.29 644.797 320.287 658.525 314.281C672.253 307.989 682.978 299.409 690.7 288.541ZM780.796 313.417L780.784 313.41C768.89 305.867 759.618 295.282 752.965 281.688L752.96 281.676L752.955 281.665C746.589 267.776 743.426 251.181 743.426 231.913V91.059L806.344 91.059V222.046C806.344 232.229 808.04 241.092 811.403 248.66C814.762 255.937 819.502 261.5 825.615 265.389C831.713 269.27 839.239 271.239 848.244 271.239C854.711 271.239 860.74 270.256 866.339 268.3C871.936 266.058 876.674 262.986 880.57 259.091C884.478 255.182 887.553 250.573 889.793 245.253C892.026 239.95 893.147 234.22 893.147 228.052V91.059L956.065 91.059V320H896.195L894.842 290.51C893.254 292.564 891.55 294.566 889.73 296.516C881.625 305.2 871.93 311.999 860.655 316.914C849.368 321.834 837.219 324.29 824.22 324.29C807.485 324.29 793.002 320.682 780.808 313.424L780.796 313.417ZM894.77 288.953C893 291.314 891.077 293.608 888.999 295.834C880.991 304.414 871.41 311.135 860.256 315.997C849.102 320.859 837.09 323.29 824.22 323.29C807.632 323.29 793.332 319.715 781.32 312.565C769.594 305.129 760.442 294.69 753.864 281.248C747.572 267.52 744.426 251.075 744.426 231.913V92.059L805.344 92.059V222.046C805.344 232.342 807.06 241.351 810.492 249.073C813.924 256.509 818.786 262.229 825.078 266.233C831.37 270.237 839.092 272.239 848.244 272.239C854.822 272.239 860.971 271.238 866.691 269.236C872.411 266.948 877.273 263.802 881.277 259.798C885.281 255.794 888.427 251.075 890.715 245.641C893.003 240.207 894.147 234.344 894.147 228.052V92.059L955.065 92.059V319H897.15L895.712 287.669C895.403 288.099 895.089 288.527 894.77 288.953ZM1015.79 320V0.540039L1078.71 0.540039V320H1015.79ZM1159.15 320V147.542L1116.68 147.542V91.059H1159.15V33.573L1222.07 33.573V91.059H1268.4V147.542H1222.07V320H1159.15ZM1221.07 146.542H1267.4V92.059H1221.07V34.573L1160.15 34.573V92.059H1117.68V146.542L1160.15 146.542V319H1221.07V146.542ZM1334.83 313.914L1334.82 313.91C1318.39 306.704 1305.1 296.889 1294.98 284.453L1294.37 283.7L1333.58 249.834L1334.24 250.533C1343.01 259.872 1352.75 266.645 1363.46 270.875C1374.22 274.839 1384.97 276.816 1395.71 276.816C1399.93 276.816 1403.69 276.396 1407.03 275.565C1410.65 274.449 1413.68 273.065 1416.15 271.427C1418.6 269.516 1420.33 267.361 1421.4 264.969L1421.4 264.948L1421.42 264.928C1422.78 262.204 1423.45 259.354 1423.45 256.366C1423.45 250.425 1421.06 245.736 1416.21 242.209C1413.42 240.819 1409.06 239.133 1403.12 237.152L1403.1 237.145L1403.08 237.138C1397.11 234.866 1389.43 232.445 1380.01 229.877C1365.39 226.148 1352.88 221.84 1342.52 216.944L1342.5 216.937L1342.49 216.929C1332.41 211.745 1324.3 205.963 1318.2 199.571L1318.18 199.551L1318.16 199.531C1312.95 193.45 1308.89 186.926 1305.99 179.96L1305.98 179.937L1305.97 179.914C1303.35 172.642 1302.05 164.661 1302.05 155.98C1302.05 145.534 1304.37 136.074 1309.03 127.621C1313.68 118.91 1320.07 111.507 1328.19 105.416L1328.19 105.411L1328.2 105.406C1336.59 99.331 1346.13 94.7083 1356.81 91.5327C1367.49 88.0694 1378.74 86.34 1390.56 86.34C1402.37 86.34 1413.9 87.7802 1425.13 90.6614C1436.36 93.541 1446.74 97.7179 1456.25 103.195C1466.05 108.384 1474.57 114.588 1481.79 121.811L1482.46 122.484L1448.53 159.983L1447.79 159.281C1442.7 154.471 1436.89 150.08 1430.37 146.109L1430.36 146.104L1430.35 146.099C1424.13 142.137 1417.62 139.027 1410.84 136.766C1404.05 134.501 1398.01 133.385 1392.71 133.385C1387.91 133.385 1383.55 133.808 1379.63 134.648C1376 135.485 1372.98 136.731 1370.53 138.365C1368.11 139.977 1366.22 142.123 1364.87 144.823C1363.8 147.25 1363.25 149.963 1363.25 152.977C1363.25 155.952 1363.92 158.791 1365.27 161.504C1366.9 164.209 1369.07 166.516 1371.79 168.428C1374.87 170.105 1379.38 172.079 1385.34 174.348C1391.59 176.622 1399.99 179.186 1410.56 182.042L1410.3 183.007C1399.72 180.147 1391.28 177.573 1384.99 175.285C1378.98 172.997 1374.4 170.995 1371.26 169.279C1368.4 167.277 1366.11 164.846 1364.39 161.986C1362.96 159.126 1362.25 156.123 1362.25 152.977C1362.25 149.831 1362.82 146.971 1363.97 144.397C1365.4 141.537 1367.4 139.249 1369.97 137.533C1372.55 135.817 1375.69 134.53 1379.41 133.672C1383.41 132.814 1387.85 132.385 1392.71 132.385C1398.14 132.385 1404.29 133.529 1411.16 135.817C1418.02 138.105 1424.6 141.251 1430.89 145.255C1437.16 149.071 1442.78 153.276 1447.75 157.871C1447.99 158.097 1448.24 158.325 1448.48 158.553C1448.48 158.553 1448.48 158.554 1448.48 158.554L1481.08 122.518C1473.93 115.368 1465.5 109.219 1455.77 104.071C1446.33 98.637 1436.04 94.49 1424.88 91.63C1413.73 88.77 1402.29 87.34 1390.56 87.34C1378.84 87.34 1367.68 89.056 1357.1 92.4881C1346.52 95.634 1337.08 100.21 1328.79 106.216C1320.78 112.222 1314.49 119.515 1309.91 128.095C1305.34 136.389 1303.05 145.684 1303.05 155.98C1303.05 164.56 1304.33 172.425 1306.91 179.575C1309.77 186.439 1313.77 192.874 1318.92 198.88C1324.93 205.172 1332.93 210.892 1342.94 216.04C1353.24 220.902 1365.68 225.192 1380.27 228.91C1389.71 231.484 1397.43 233.915 1403.43 236.203C1409.44 238.205 1413.87 239.921 1416.73 241.351C1421.88 245.069 1424.45 250.074 1424.45 256.366C1424.45 259.512 1423.74 262.515 1422.31 265.375C1421.17 267.949 1419.31 270.237 1416.73 272.239C1414.16 273.955 1411.01 275.385 1407.29 276.529C1403.86 277.387 1400 277.816 1395.71 277.816C1384.84 277.816 1373.98 275.814 1363.11 271.81C1352.24 267.52 1342.37 260.656 1333.51 251.218L1295.75 283.822C1305.76 296.12 1318.92 305.844 1335.22 312.994C1351.81 319.858 1370.69 323.29 1391.85 323.29C1409.01 323.29 1424.45 320.287 1438.18 314.281C1451.91 307.989 1462.64 299.409 1470.36 288.541C1478.37 277.387 1482.37 264.803 1482.37 250.789C1482.37 242.781 1481.23 235.488 1478.94 228.91C1476.65 222.332 1473.07 216.469 1468.21 211.321C1462.49 205.315 1454.77 200.024 1445.05 195.448C1435.61 190.872 1424.03 186.725 1410.3 183.007L1410.56 182.042C1424.32 185.77 1435.97 189.936 1445.48 194.546C1455.28 199.159 1463.11 204.515 1468.94 210.631L1468.94 210.634C1473.9 215.883 1477.55 221.868 1479.88 228.582C1482.21 235.28 1483.37 242.686 1483.37 250.789C1483.37 265.008 1479.3 277.797 1471.17 289.124C1463.33 300.152 1452.46 308.836 1438.6 315.19L1438.59 315.194L1438.58 315.197C1424.71 321.266 1409.13 324.29 1391.85 324.29C1370.58 324.29 1351.57 320.84 1334.84 313.918L1334.83 313.914ZM1016.79 319H1077.71V1.54004L1016.79 1.54004V319Z" fill="#FFE7B7"/>
</svg>
