<svg width="92" height="92" viewBox="0 0 92 92" fill="none" xmlns="http://www.w3.org/2000/svg">
<path fill-rule="evenodd" clip-rule="evenodd" d="M46 17.1163C30.048 17.1163 17.1163 30.048 17.1163 46C17.1163 61.952 30.048 74.8837 46 74.8837C61.952 74.8837 74.8837 61.952 74.8837 46C74.8837 30.048 61.952 17.1163 46 17.1163ZM10.6977 46C10.6977 26.5031 26.5031 10.6977 46 10.6977C65.4969 10.6977 81.3023 26.5031 81.3023 46C81.3023 65.4969 65.4969 81.3023 46 81.3023C26.5031 81.3023 10.6977 65.4969 10.6977 46Z" fill="#FFB82E"/>
<path fill-rule="evenodd" clip-rule="evenodd" d="M46 36.3721C40.6827 36.3721 36.3721 40.6827 36.3721 46C36.3721 51.3173 40.6827 55.6279 46 55.6279C51.3173 55.6279 55.6279 51.3173 55.6279 46C55.6279 40.6827 51.3173 36.3721 46 36.3721ZM29.9535 46C29.9535 37.1378 37.1378 29.9535 46 29.9535C54.8622 29.9535 62.0465 37.1378 62.0465 46C62.0465 54.8622 54.8622 62.0465 46 62.0465C37.1378 62.0465 29.9535 54.8622 29.9535 46Z" fill="#FFB82E"/>
<path fill-rule="evenodd" clip-rule="evenodd" d="M46 0C47.7724 0 49.2093 1.43685 49.2093 3.2093V11.7674C49.2093 13.5399 47.7724 14.9767 46 14.9767C44.2276 14.9767 42.7907 13.5399 42.7907 11.7674V3.2093C42.7907 1.43685 44.2276 0 46 0Z" fill="#FFB82E"/>
<path fill-rule="evenodd" clip-rule="evenodd" d="M0 46C0 44.2276 1.43685 42.7907 3.2093 42.7907H11.7674C13.5399 42.7907 14.9767 44.2276 14.9767 46C14.9767 47.7724 13.5399 49.2093 11.7674 49.2093H3.2093C1.43685 49.2093 0 47.7724 0 46Z" fill="#FFB82E"/>
<path fill-rule="evenodd" clip-rule="evenodd" d="M46 77.0233C47.7724 77.0233 49.2093 78.4601 49.2093 80.2326V88.7907C49.2093 90.5631 47.7724 92 46 92C44.2276 92 42.7907 90.5631 42.7907 88.7907V80.2326C42.7907 78.4601 44.2276 77.0233 46 77.0233Z" fill="#FFB82E"/>
<path fill-rule="evenodd" clip-rule="evenodd" d="M77.0233 46C77.0233 44.2276 78.4601 42.7907 80.2326 42.7907H88.7907C90.5631 42.7907 92 44.2276 92 46C92 47.7724 90.5631 49.2093 88.7907 49.2093H80.2326C78.4601 49.2093 77.0233 47.7724 77.0233 46Z" fill="#FFB82E"/>
</svg>
