<svg width="506" height="17" viewBox="0 0 506 17" fill="none" xmlns="http://www.w3.org/2000/svg">
<path fill-rule="evenodd" clip-rule="evenodd" d="M171.84 1.48736C166.463 1.40376 161.086 1.37394 155.71 1.3979C155.434 1.39913 155.209 1.17627 155.208 0.900131C155.206 0.623992 155.429 0.399139 155.705 0.397908C161.089 0.373925 166.472 0.403777 171.855 0.487477C172.131 0.491771 172.352 0.719081 172.347 0.995191C172.343 1.2713 172.116 1.49165 171.84 1.48736ZM140.069 1.119C140.076 1.39506 139.857 1.62432 139.581 1.63108C134.206 1.76256 128.833 1.94781 123.461 2.1868C123.185 2.19907 122.951 1.98538 122.939 1.70951C122.927 1.43365 123.141 1.20006 123.416 1.18779C128.795 0.948499 134.175 0.763025 139.557 0.631376C139.833 0.624622 140.062 0.842938 140.069 1.119ZM187.483 1.38196C187.492 1.10599 187.724 0.890234 188 0.900049C193.379 1.09137 198.757 1.3365 204.133 1.63546C204.409 1.6508 204.62 1.88674 204.605 2.16246C204.59 2.43817 204.354 2.64925 204.078 2.63392C198.709 2.33533 193.337 2.0905 187.964 1.89942C187.688 1.8896 187.473 1.65793 187.483 1.38196ZM505 0.500001C505.045 0.772417 504.861 1.02991 504.589 1.07512L497.164 2.48651C496.891 2.53172 496.634 2.34753 496.589 2.07512C496.543 1.8027 496.728 1.54521 497 1.5L504.425 0.0886118C504.697 0.0434 504.955 0.227585 505 0.500001ZM107.821 2.53367C107.839 2.80924 107.63 3.04705 107.355 3.06484C101.99 3.41116 96.6277 3.81117 91.2692 4.26487C90.994 4.28816 90.7521 4.08399 90.7288 3.80883C90.7055 3.53367 90.9097 3.29173 91.1848 3.26843C96.55 2.81418 101.919 2.41367 107.29 2.06692C107.566 2.04913 107.804 2.2581 107.821 2.53367ZM219.712 3.15424C219.733 2.87889 219.973 2.67257 220.249 2.69341C225.616 3.09968 230.979 3.5597 236.34 4.07349C236.615 4.09983 236.816 4.34403 236.79 4.61891C236.763 4.89379 236.519 5.09527 236.244 5.06892C230.891 4.55577 225.533 4.09632 220.173 3.69056C219.898 3.66972 219.692 3.4296 219.712 3.15424ZM486.309 3.86936C486.352 4.1422 486.165 4.3979 485.892 4.44048C480.749 5.24306 475.6 5.99565 470.445 6.69822C470.172 6.73551 469.92 6.54393 469.882 6.27032C469.845 5.99671 470.037 5.74467 470.31 5.70738C475.459 5.00568 480.601 4.25403 485.738 3.45243C486.011 3.40986 486.267 3.59652 486.309 3.86936ZM75.6563 5.23695C75.6851 5.51159 75.4858 5.75757 75.2111 5.78637C69.865 6.34692 64.5232 6.96105 59.1866 7.62876C58.9126 7.66304 58.6627 7.4687 58.6284 7.1947C58.5942 6.92069 58.7885 6.67077 59.0625 6.63649C64.4057 5.96796 69.7541 5.35306 75.1069 4.79182C75.3815 4.76302 75.6275 4.96232 75.6563 5.23695ZM251.846 6.21416C251.878 5.93986 252.126 5.7433 252.4 5.77514C255.073 6.08547 257.746 6.40921 260.417 6.74637C262.995 7.07187 265.575 7.38484 268.156 7.6853C268.43 7.71723 268.627 7.96547 268.595 8.23976C268.563 8.51405 268.315 8.71052 268.04 8.67859C265.456 8.37776 262.873 8.0644 260.291 7.73849C257.624 7.40175 254.955 7.07841 252.285 6.76847C252.01 6.73663 251.814 6.48846 251.846 6.21416ZM455.396 8.1023C455.428 8.37658 455.232 8.62487 454.957 8.65687C449.788 9.25995 444.613 9.8129 439.435 10.3157C439.16 10.3424 438.915 10.1412 438.889 9.86636C438.862 9.59151 439.063 9.34707 439.338 9.32038C444.51 8.8182 449.678 8.26594 454.842 7.6636C455.116 7.63161 455.364 7.82802 455.396 8.1023ZM43.6249 9.22453C43.6646 9.4978 43.4753 9.75155 43.2021 9.79131C40.5421 10.1783 37.8836 10.5787 35.2267 10.9924L26.6892 12.3218C26.4164 12.3643 26.1607 12.1776 26.1182 11.9047C26.0758 11.6319 26.2625 11.3762 26.5354 11.3337L35.0729 10.0043C37.733 9.59006 40.3948 9.18921 43.0581 8.80173C43.3314 8.76197 43.5851 8.95127 43.6249 9.22453ZM283.114 9.78795C283.141 9.51309 283.385 9.31186 283.66 9.33848C288.835 9.8397 294.013 10.2907 299.193 10.6916C299.468 10.7129 299.674 10.9534 299.653 11.2287C299.632 11.504 299.391 11.7099 299.116 11.6886C293.929 11.2873 288.745 10.8357 283.564 10.3338C283.289 10.3072 283.088 10.0628 283.114 9.78795ZM424.343 11.1369C424.364 11.4122 424.158 11.6527 423.883 11.6741C418.694 12.0768 413.502 12.4293 408.307 12.7316C408.032 12.7476 407.795 12.5371 407.779 12.2615C407.763 11.9858 407.974 11.7493 408.249 11.7333C413.437 11.4314 418.623 11.0793 423.805 10.6771C424.081 10.6557 424.321 10.8616 424.343 11.1369ZM314.221 12.2144C314.237 11.9387 314.474 11.7282 314.749 11.7441C319.939 12.0449 325.13 12.2954 330.323 12.4957C330.599 12.5064 330.814 12.7387 330.803 13.0146C330.793 13.2905 330.561 13.5056 330.285 13.495C325.085 13.2944 319.888 13.0436 314.692 12.7425C314.416 12.7265 314.205 12.4901 314.221 12.2144ZM393.195 12.9687C393.206 13.2446 392.991 13.477 392.715 13.4877C387.515 13.6895 382.313 13.841 377.11 13.9422C376.834 13.9476 376.606 13.7281 376.6 13.452C376.595 13.1759 376.815 12.9478 377.091 12.9424C382.287 12.8413 387.482 12.69 392.676 12.4884C392.952 12.4777 393.184 12.6927 393.195 12.9687ZM345.399 13.4363C345.404 13.1602 345.632 12.9407 345.908 12.946C351.105 13.0459 356.303 13.0956 361.5 13.095C361.776 13.0949 362 13.3188 362 13.5949C362 13.871 361.776 14.0949 361.5 14.095C356.296 14.0956 351.092 14.0459 345.889 13.9459C345.613 13.9405 345.394 13.7124 345.399 13.4363ZM10.0313 14.4097C10.0738 14.6826 9.88707 14.9382 9.61421 14.9807L1.07671 16.3101L0.922852 15.322L9.46035 13.9926C9.73321 13.9501 9.98884 14.1369 10.0313 14.4097Z" fill="#FFE9BD"/>
</svg>
