<svg width="15" height="15" viewBox="0 0 15 15" fill="none" xmlns="http://www.w3.org/2000/svg">
<path d="M6.17318 1.71411C6.21053 1.30331 6.55496 0.98877 6.96743 0.98877H7.77852C8.19098 0.98877 8.53541 1.30331 8.57276 1.71411C8.60345 2.05138 8.84616 2.32671 9.16328 2.44556C9.24478 2.47611 9.32536 2.50869 9.40487 2.54324C9.71861 2.6796 10.0877 2.65346 10.3505 2.43445C10.6753 2.1638 11.1528 2.18547 11.4517 2.4844L12.0242 3.05685C12.3092 3.34187 12.3299 3.79719 12.0718 4.10685C11.8569 4.36476 11.8369 4.72893 11.9814 5.03199C12.0439 5.16323 12.101 5.29756 12.1524 5.43469C12.2713 5.75181 12.5466 5.99455 12.8839 6.02523C13.2947 6.06259 13.6092 6.40701 13.6092 6.81948V7.63057C13.6092 8.04303 13.2947 8.38746 12.8839 8.42482C12.5466 8.4555 12.2713 8.69821 12.1524 9.01533C12.1063 9.13843 12.0555 9.25929 12.0004 9.37765C11.8664 9.66527 11.8881 10.0087 12.0912 10.2525C12.3383 10.5489 12.3185 10.9849 12.0456 11.2578L11.4058 11.8977C11.1329 12.1706 10.6969 12.1903 10.4004 11.9432C10.1566 11.7401 9.81322 11.7184 9.5256 11.8524C9.40724 11.9076 9.28638 11.9583 9.16328 12.0045C8.84616 12.1234 8.60345 12.3987 8.57276 12.7359C8.53541 13.1467 8.19098 13.4613 7.77852 13.4613H6.96743C6.55496 13.4613 6.21053 13.1467 6.17318 12.7359C6.1425 12.3987 5.89976 12.1234 5.58265 12.0045C5.44551 11.9531 5.31119 11.896 5.17995 11.8334C4.87689 11.6889 4.51271 11.709 4.2548 11.9239C3.94514 12.1819 3.48981 12.1613 3.2048 11.8763L2.63235 11.3038C2.33341 11.0049 2.31175 10.5273 2.58239 10.2025C2.80142 9.93973 2.82755 9.57066 2.69119 9.25692C2.65664 9.17741 2.62407 9.0969 2.59351 9.01533C2.47467 8.69821 2.19933 8.4555 1.86206 8.42482C1.45126 8.38746 1.13672 8.04303 1.13672 7.63057V6.81948C1.13672 6.40701 1.45126 6.06259 1.86206 6.02523C2.19933 5.99455 2.47467 5.75182 2.59351 5.4347C2.62943 5.33887 2.66814 5.2444 2.70956 5.1514C2.85612 4.82229 2.83176 4.43278 2.60112 4.15602C2.31987 3.81852 2.34239 3.32224 2.65303 3.01159L3.15953 2.50509C3.47019 2.19444 3.96646 2.17192 4.30396 2.45318C4.58073 2.68381 4.97024 2.70817 5.29934 2.56161C5.39234 2.52019 5.48681 2.48148 5.58264 2.44556C5.89976 2.32672 6.1425 2.05138 6.17318 1.71411Z" stroke="#5a5a5a" stroke-width="1" stroke-linecap="round" stroke-linejoin="round"/>
<path d="M9.24385 7.22502C9.24385 8.25831 8.40626 9.0959 7.37297 9.0959C6.33969 9.0959 5.5021 8.25831 5.5021 7.22502C5.5021 6.19174 6.33969 5.35415 7.37297 5.35415C8.40626 5.35415 9.24385 6.19174 9.24385 7.22502Z" stroke="#5a5a5a" stroke-width="1" stroke-linecap="round" stroke-linejoin="round"/>
</svg>
