<svg width="29" height="30" viewBox="0 0 29 30" fill="none" xmlns="http://www.w3.org/2000/svg">
<g filter="url(#filter0_d_104_66)">
<path d="M16.5685 10.441L14.7837 4.83133C14.6959 4.55553 14.3056 4.55553 14.2179 4.83133L12.433 10.441C12.3938 10.5641 12.2794 10.6478 12.1501 10.6478H6.47426C6.19013 10.6478 6.06834 11.0086 6.29432 11.1808L10.8792 14.6748C10.9789 14.7509 11.0201 14.8814 10.9821 15.001L9.11858 20.8577C9.03061 21.1342 9.35065 21.3597 9.5814 21.1839L14.3208 17.572C14.4271 17.491 14.5744 17.491 14.6807 17.572L19.4201 21.1839C19.6509 21.3597 19.9709 21.1342 19.883 20.8577L18.0195 15.001C17.9814 14.8814 18.0226 14.7509 18.1224 14.6748L22.7072 11.1808C22.9332 11.0086 22.8114 10.6478 22.5273 10.6478H16.8514C16.7222 10.6478 16.6077 10.5641 16.5685 10.441Z" fill="#FFB82E"/>
<path d="M16.5685 10.441L14.7837 4.83133C14.6959 4.55553 14.3056 4.55553 14.2179 4.83133L12.433 10.441C12.3938 10.5641 12.2794 10.6478 12.1501 10.6478H6.47426C6.19013 10.6478 6.06834 11.0086 6.29432 11.1808L10.8792 14.6748C10.9789 14.7509 11.0201 14.8814 10.9821 15.001L9.11858 20.8577C9.03061 21.1342 9.35065 21.3597 9.5814 21.1839L14.3208 17.572C14.4271 17.491 14.5744 17.491 14.6807 17.572L19.4201 21.1839C19.6509 21.3597 19.9709 21.1342 19.883 20.8577L18.0195 15.001C17.9814 14.8814 18.0226 14.7509 18.1224 14.6748L22.7072 11.1808C22.9332 11.0086 22.8114 10.6478 22.5273 10.6478H16.8514C16.7222 10.6478 16.6077 10.5641 16.5685 10.441Z" stroke="#FFB82E" stroke-width="0.471207"/>
</g>
<defs>
<filter id="filter0_d_104_66" x="0.00347233" y="0.148058" width="28.9945" height="28.9682" filterUnits="userSpaceOnUse" color-interpolation-filters="sRGB">
<feFlood flood-opacity="0" result="BackgroundImageFix"/>
<feColorMatrix in="SourceAlpha" type="matrix" values="0 0 0 0 0 0 0 0 0 0 0 0 0 0 0 0 0 0 127 0" result="hardAlpha"/>
<feOffset dy="1.69634"/>
<feGaussianBlur stdDeviation="2.9686"/>
<feComposite in2="hardAlpha" operator="out"/>
<feColorMatrix type="matrix" values="0 0 0 0 0.649842 0 0 0 0 0.738015 0 0 0 0 0.841522 0 0 0 0.1 0"/>
<feBlend mode="normal" in2="BackgroundImageFix" result="effect1_dropShadow_104_66"/>
<feBlend mode="normal" in="SourceGraphic" in2="effect1_dropShadow_104_66" result="shape"/>
</filter>
</defs>
</svg>
