<svg width="78" height="78" viewBox="0 0 78 78" fill="none" xmlns="http://www.w3.org/2000/svg">
<path fill-rule="evenodd" clip-rule="evenodd" d="M39 10.5405C22.118 10.5405 8.43243 24.2261 8.43243 41.1081C8.43243 57.9901 22.118 71.6757 39 71.6757C55.882 71.6757 69.5676 57.9901 69.5676 41.1081C69.5676 24.2261 55.882 10.5405 39 10.5405ZM2.10811 41.1081C2.10811 20.7333 18.6252 4.21622 39 4.21622C59.3748 4.21622 75.8919 20.7333 75.8919 41.1081C75.8919 61.4829 59.3748 78 39 78C18.6252 78 2.10811 61.4829 2.10811 41.1081Z" fill="#FFB82E"/>
<path fill-rule="evenodd" clip-rule="evenodd" d="M39 16.8649C40.7464 16.8649 42.1622 18.2806 42.1622 20.027V39.3555L53.3246 46.332C54.8055 47.2576 55.2558 49.2085 54.3302 50.6895C53.4046 52.1704 51.4537 52.6206 49.9727 51.695L37.3241 43.7896C36.3995 43.2118 35.8378 42.1984 35.8378 41.1081V20.027C35.8378 18.2806 37.2536 16.8649 39 16.8649Z" fill="#FFB82E"/>
<path fill-rule="evenodd" clip-rule="evenodd" d="M15.9387 0.926176C17.1736 2.16108 17.1736 4.16325 15.9387 5.39815L5.39815 15.9387C4.16325 17.1736 2.16108 17.1736 0.926176 15.9387C-0.308725 14.7038 -0.308725 12.7016 0.926176 11.4667L11.4667 0.926176C12.7016 -0.308725 14.7038 -0.308725 15.9387 0.926176Z" fill="#FFB82E"/>
<path fill-rule="evenodd" clip-rule="evenodd" d="M62.0613 0.926176C60.8264 2.16108 60.8264 4.16325 62.0613 5.39815L72.6018 15.9387C73.8367 17.1736 75.8389 17.1736 77.0738 15.9387C78.3087 14.7038 78.3087 12.7016 77.0738 11.4667L66.5333 0.926176C65.2984 -0.308725 63.2962 -0.308725 62.0613 0.926176Z" fill="#FFB82E"/>
</svg>
