<svg width="40" height="33" viewBox="0 0 40 33" fill="none" xmlns="http://www.w3.org/2000/svg">
<path d="M12.6861 32.5C27.3094 32.5 35.3056 19.994 35.3056 9.1514C35.3056 8.79653 35.3056 8.44166 35.2841 8.08996C36.8399 6.92786 38.1829 5.4891 39.25 3.84102C37.7997 4.50503 36.2611 4.94079 34.6856 5.13376C36.3445 4.10721 37.5858 2.49373 38.1787 0.593315C36.6179 1.54972 34.9102 2.22375 33.1293 2.58629C31.9308 1.27083 30.3457 0.399791 28.6193 0.107963C26.8928 -0.183865 25.1214 0.119793 23.579 0.971945C22.0366 1.8241 20.8093 3.17723 20.087 4.82194C19.3647 6.46666 19.1877 8.31125 19.5834 10.0703C16.4225 9.9068 13.3303 9.059 10.5075 7.58189C7.68464 6.10478 5.1943 4.03139 3.19813 1.49633C2.18046 3.30242 1.86792 5.44098 2.32414 7.47657C2.78037 9.51217 3.97106 11.2917 5.65377 12.453C4.3973 12.4091 3.16916 12.0561 2.07161 11.4232V11.5278C2.07139 13.4203 2.70464 15.2548 3.86419 16.7208C5.02373 18.1868 6.63835 19.1942 8.43479 19.5726C7.26373 19.9018 6.03512 19.9495 4.84341 19.712C5.35079 21.3435 6.33966 22.7704 7.67163 23.7931C9.0036 24.8158 10.612 25.3829 12.2717 25.4153C9.45386 27.6931 5.97609 28.9273 2.39698 28.9196C1.76304 28.92 1.12962 28.8819 0.5 28.8055C4.13517 31.2158 8.36562 32.495 12.6861 32.4905" fill="#1DA1F2"/>
</svg>
